solid csg.js
facet normal 0 0 -1
outer loop
vertex 30 0 0
vertex 30 -10 0
vertex 22 -10 0
endloop
endfacet
facet normal 0 0 -1
outer loop
vertex 30 0 0
vertex 22 -10 0
vertex 17 -10 0
endloop
endfacet
facet normal 0 0 -1
outer loop
vertex 30 0 0
vertex 17 -10 0
vertex 13 -10 0
endloop
endfacet
facet normal 0 0 -1
outer loop
vertex 30 0 0
vertex 13 -10 0
vertex 8 -10 0
endloop
endfacet
facet normal 0 0 -1
outer loop
vertex 30 0 0
vertex 8 -10 0
vertex 0 -10 0
endloop
endfacet
facet normal 0 0 -1
outer loop
vertex 30 0 0
vertex 0 -10 0
vertex 0 0 0
endloop
endfacet
facet normal 0 0 -1
outer loop
vertex 17 -10 0
vertex 17 -10.25 0
vertex 13 -10.25 0
endloop
endfacet
facet normal 0 0 -1
outer loop
vertex 17 -10 0
vertex 13 -10.25 0
vertex 13 -10 0
endloop
endfacet
facet normal 0 0 -1
outer loop
vertex 8 -10 0
vertex 8 -24 0
vertex 0 -24 0
endloop
endfacet
facet normal 0 0 -1
outer loop
vertex 8 -10 0
vertex 0 -24 0
vertex 0 -10 0
endloop
endfacet
facet normal 0 0 -1
outer loop
vertex 17 -23.75 0
vertex 17 -24 0
vertex 13 -24 0
endloop
endfacet
facet normal 0 0 -1
outer loop
vertex 17 -23.75 0
vertex 13 -24 0
vertex 13 -23.75 0
endloop
endfacet
facet normal 0 0 -1
outer loop
vertex 30 -10 0
vertex 30 -24 0
vertex 22 -24 0
endloop
endfacet
facet normal 0 0 -1
outer loop
vertex 30 -10 0
vertex 22 -24 0
vertex 22 -10 0
endloop
endfacet
facet normal 0 0 -1
outer loop
vertex 8 -24 0
vertex 13 -24 0
vertex 17 -24 0
endloop
endfacet
facet normal 0 0 -1
outer loop
vertex 8 -24 0
vertex 17 -24 0
vertex 22 -24 0
endloop
endfacet
facet normal 0 0 -1
outer loop
vertex 8 -24 0
vertex 22 -24 0
vertex 30 -24 0
endloop
endfacet
facet normal 0 0 -1
outer loop
vertex 8 -24 0
vertex 30 -24 0
vertex 30 -34 0
endloop
endfacet
facet normal 0 0 -1
outer loop
vertex 8 -24 0
vertex 30 -34 0
vertex 0 -34 0
endloop
endfacet
facet normal 0 0 -1
outer loop
vertex 8 -24 0
vertex 0 -34 0
vertex 0 -24 0
endloop
endfacet
facet normal 0 0 1
outer loop
vertex 30 -34 3.5
vertex 30 -24 3.5
vertex 22 -24 3.5
endloop
endfacet
facet normal 0 0 1
outer loop
vertex 30 -34 3.5
vertex 22 -24 3.5
vertex 17 -24 3.5
endloop
endfacet
facet normal 0 0 1
outer loop
vertex 30 -34 3.5
vertex 17 -24 3.5
vertex 13 -24 3.5
endloop
endfacet
facet normal 0 0 1
outer loop
vertex 30 -34 3.5
vertex 13 -24 3.5
vertex 8 -24 3.5
endloop
endfacet
facet normal 0 0 1
outer loop
vertex 30 -34 3.5
vertex 8 -24 3.5
vertex 0 -24 3.5
endloop
endfacet
facet normal 0 0 1
outer loop
vertex 30 -34 3.5
vertex 0 -24 3.5
vertex 0 -34 3.5
endloop
endfacet
facet normal 0 0 1
outer loop
vertex 17 -24 3.5
vertex 17 -23.75 3.5
vertex 13 -23.75 3.5
endloop
endfacet
facet normal 0 0 1
outer loop
vertex 17 -24 3.5
vertex 13 -23.75 3.5
vertex 13 -24 3.5
endloop
endfacet
facet normal 0 0 1
outer loop
vertex 8 -24 3.5
vertex 8 -10 3.5
vertex 0 -10 3.5
endloop
endfacet
facet normal 0 0 1
outer loop
vertex 8 -24 3.5
vertex 0 -10 3.5
vertex 0 -24 3.5
endloop
endfacet
facet normal 0 0 1
outer loop
vertex 17 -10.25 3.5
vertex 17 -10 3.5
vertex 13 -10 3.5
endloop
endfacet
facet normal 0 0 1
outer loop
vertex 17 -10.25 3.5
vertex 13 -10 3.5
vertex 13 -10.25 3.5
endloop
endfacet
facet normal 0 0 1
outer loop
vertex 30 -24 3.5
vertex 30 -10 3.5
vertex 22 -10 3.5
endloop
endfacet
facet normal 0 0 1
outer loop
vertex 30 -24 3.5
vertex 22 -10 3.5
vertex 22 -24 3.5
endloop
endfacet
facet normal 0 0 1
outer loop
vertex 8 -10 3.5
vertex 13 -10 3.5
vertex 17 -10 3.5
endloop
endfacet
facet normal 0 0 1
outer loop
vertex 8 -10 3.5
vertex 17 -10 3.5
vertex 22 -10 3.5
endloop
endfacet
facet normal 0 0 1
outer loop
vertex 8 -10 3.5
vertex 22 -10 3.5
vertex 30 -10 3.5
endloop
endfacet
facet normal 0 0 1
outer loop
vertex 8 -10 3.5
vertex 30 -10 3.5
vertex 30 0 3.5
endloop
endfacet
facet normal 0 0 1
outer loop
vertex 8 -10 3.5
vertex 30 0 3.5
vertex 0 0 3.5
endloop
endfacet
facet normal 0 0 1
outer loop
vertex 8 -10 3.5
vertex 0 0 3.5
vertex 0 -10 3.5
endloop
endfacet
facet normal 0 -1 0
outer loop
vertex 30 -34 0
vertex 30 -34 3.5
vertex 0 -34 3.5
endloop
endfacet
facet normal 0 -1 0
outer loop
vertex 30 -34 0
vertex 0 -34 3.5
vertex 0 -34 0
endloop
endfacet
facet normal 1 0 0
outer loop
vertex 30 -24 0
vertex 30 -10 0
vertex 30 0 0
endloop
endfacet
facet normal 1 0 0
outer loop
vertex 30 -24 0
vertex 30 0 0
vertex 30 0 3.5
endloop
endfacet
facet normal 1 0 0
outer loop
vertex 30 -24 0
vertex 30 0 3.5
vertex 30 -10 3.5
endloop
endfacet
facet normal 1 0 0
outer loop
vertex 30 -24 0
vertex 30 -10 3.5
vertex 30 -24 3.5
endloop
endfacet
facet normal 1 0 0
outer loop
vertex 30 -24 0
vertex 30 -24 3.5
vertex 30 -34 3.5
endloop
endfacet
facet normal 1 0 0
outer loop
vertex 30 -24 0
vertex 30 -34 3.5
vertex 30 -34 0
endloop
endfacet
facet normal 0 1 0
outer loop
vertex 30 0 3.5
vertex 30 0 0
vertex 0 0 0
endloop
endfacet
facet normal 0 1 0
outer loop
vertex 30 0 3.5
vertex 0 0 0
vertex 0 0 3.5
endloop
endfacet
facet normal -1 0 0
outer loop
vertex 0 -24 3.5
vertex 0 -10 3.5
vertex 0 0 3.5
endloop
endfacet
facet normal -1 0 0
outer loop
vertex 0 -24 3.5
vertex 0 0 3.5
vertex 0 0 0
endloop
endfacet
facet normal -1 0 0
outer loop
vertex 0 -24 3.5
vertex 0 0 0
vertex 0 -10 0
endloop
endfacet
facet normal -1 0 0
outer loop
vertex 0 -24 3.5
vertex 0 -10 0
vertex 0 -24 0
endloop
endfacet
facet normal -1 0 0
outer loop
vertex 0 -24 3.5
vertex 0 -24 0
vertex 0 -34 0
endloop
endfacet
facet normal -1 0 0
outer loop
vertex 0 -24 3.5
vertex 0 -34 0
vertex 0 -34 3.5
endloop
endfacet
facet normal 0 1 0
outer loop
vertex 13 -24 3.5
vertex 13 -24 0
vertex 8 -24 0
endloop
endfacet
facet normal 0 1 0
outer loop
vertex 13 -24 3.5
vertex 8 -24 0
vertex 8 -24 3.5
endloop
endfacet
facet normal 0 1 0
outer loop
vertex 22 -24 3.5
vertex 22 -24 0
vertex 17 -24 0
endloop
endfacet
facet normal 0 1 0
outer loop
vertex 22 -24 3.5
vertex 17 -24 0
vertex 17 -24 3.5
endloop
endfacet
facet normal -1 0 0
outer loop
vertex 13 -23.75 3.5
vertex 13 -23.75 0
vertex 13 -24 0
endloop
endfacet
facet normal -1 0 0
outer loop
vertex 13 -23.75 3.5
vertex 13 -24 0
vertex 13 -24 3.5
endloop
endfacet
facet normal -1 0 0
outer loop
vertex 13 -10 3.5
vertex 13 -10 0
vertex 13 -10.25 0
endloop
endfacet
facet normal -1 0 0
outer loop
vertex 13 -10 3.5
vertex 13 -10.25 0
vertex 13 -10.25 3.5
endloop
endfacet
facet normal 0 1 0
outer loop
vertex 17 -23.75 3.5
vertex 17 -23.75 0
vertex 13 -23.75 0
endloop
endfacet
facet normal 0 1 0
outer loop
vertex 17 -23.75 3.5
vertex 13 -23.75 0
vertex 13 -23.75 3.5
endloop
endfacet
facet normal 1 0 0
outer loop
vertex 17 -23.75 0
vertex 17 -23.75 3.5
vertex 17 -24 3.5
endloop
endfacet
facet normal 1 0 0
outer loop
vertex 17 -23.75 0
vertex 17 -24 3.5
vertex 17 -24 0
endloop
endfacet
facet normal 1 0 0
outer loop
vertex 17 -10 0
vertex 17 -10 3.5
vertex 17 -10.25 3.5
endloop
endfacet
facet normal 1 0 0
outer loop
vertex 17 -10 0
vertex 17 -10.25 3.5
vertex 17 -10.25 0
endloop
endfacet
facet normal -1 0 0
outer loop
vertex 22 -10 3.5
vertex 22 -10 0
vertex 22 -24 0
endloop
endfacet
facet normal -1 0 0
outer loop
vertex 22 -10 3.5
vertex 22 -24 0
vertex 22 -24 3.5
endloop
endfacet
facet normal 0 -1 0
outer loop
vertex 13 -10 0
vertex 13 -10 3.5
vertex 8 -10 3.5
endloop
endfacet
facet normal 0 -1 0
outer loop
vertex 13 -10 0
vertex 8 -10 3.5
vertex 8 -10 0
endloop
endfacet
facet normal 0 -1 0
outer loop
vertex 22 -10 0
vertex 22 -10 3.5
vertex 17 -10 3.5
endloop
endfacet
facet normal 0 -1 0
outer loop
vertex 22 -10 0
vertex 17 -10 3.5
vertex 17 -10 0
endloop
endfacet
facet normal 0 -1 0
outer loop
vertex 17 -10.25 0
vertex 17 -10.25 3.5
vertex 13 -10.25 3.5
endloop
endfacet
facet normal 0 -1 0
outer loop
vertex 17 -10.25 0
vertex 13 -10.25 3.5
vertex 13 -10.25 0
endloop
endfacet
facet normal 1 0 0
outer loop
vertex 8 -10 0
vertex 8 -10 3.5
vertex 8 -24 3.5
endloop
endfacet
facet normal 1 0 0
outer loop
vertex 8 -10 0
vertex 8 -24 3.5
vertex 8 -24 0
endloop
endfacet
endsolid csg.js
