M48
; DRILL file {KiCad 8.0.9} date 2025-04-15T00:10:52+0100
; FORMAT={-:-/ absolute / inch / decimal}
; #@! TF.CreationDate,2025-04-15T00:10:52+01:00
; #@! TF.GenerationSoftware,Kicad,Pcbnew,8.0.9
; #@! TF.FileFunction,Plated,1,2,PTH
FMAT,2
INCH
; #@! TA.AperFunction,Plated,PTH,ComponentDrill
T1C0.0430
%
G90
G05
T1
X0.3295Y-0.1224
X0.3295Y-0.448
X0.3295Y-0.8224
X0.3295Y-1.048
X0.4295Y-0.1224
X0.4295Y-0.448
X0.4295Y-0.8224
X0.4295Y-1.048
X0.5295Y-0.1224
X0.5295Y-0.448
X0.5295Y-0.8224
X0.5295Y-1.048
X0.6295Y-0.1224
X0.6295Y-0.448
X0.6295Y-0.8224
X0.6295Y-1.048
X0.7295Y-0.1224
X0.7295Y-0.448
X0.7295Y-0.8224
X0.7295Y-1.048
X0.8295Y-0.1224
X0.8295Y-0.448
X0.8295Y-0.8224
X0.8295Y-1.048
X0.9295Y-0.1224
X0.9295Y-0.448
X0.9295Y-0.8224
X0.9295Y-1.048
X1.0295Y-0.1224
X1.0295Y-0.448
X1.0295Y-0.8224
X1.0295Y-1.048
X1.1295Y-0.1224
X1.1295Y-0.448
X1.1295Y-0.8224
X1.1295Y-1.048
X1.2295Y-0.1224
X1.2295Y-0.448
X1.2295Y-0.8224
X1.2295Y-1.048
X1.3295Y-0.1224
X1.3295Y-0.448
X1.3295Y-0.8224
X1.3295Y-1.048
X1.4295Y-0.1224
X1.4295Y-0.448
X1.4295Y-0.8224
X1.4295Y-1.048
X1.5295Y-0.1224
X1.5295Y-0.448
X1.5295Y-0.8224
X1.5295Y-1.048
X1.6295Y-0.1224
X1.6295Y-0.448
X1.6295Y-0.8224
X1.6295Y-1.048
X1.7295Y-0.1224
X1.7295Y-0.448
X1.7295Y-0.8224
X1.7295Y-1.048
X1.8295Y-0.1224
X1.8295Y-0.448
X1.8295Y-0.8224
X1.8295Y-1.048
X1.9295Y-0.1224
X1.9295Y-0.448
X1.9295Y-0.8224
X1.9295Y-1.048
X2.0295Y-0.1224
X2.0295Y-0.448
X2.0295Y-0.8224
X2.0295Y-1.048
X2.1295Y-0.1224
X2.1295Y-0.448
X2.1295Y-0.8224
X2.1295Y-1.048
X2.2295Y-0.1224
X2.2295Y-0.448
X2.2295Y-0.8224
X2.2295Y-1.048
M30
