0
SECTION
2
HEADER
9
$INSUNITS
70
4
0
ENDSEC
0
SECTION
2
TABLES
0
TABLE
2
LTYPE
0
LTYPE
72
65
70
64
2
CONTINUOUS
3
______
73
0
40
0
0
ENDTAB
0
TABLE
2
LAYER
0
ENDTAB
0
ENDSEC
0
SECTION
2
ENTITIES
0
LINE
8
0
10
129.139382
20
-211.0508165
11
117.8981769
21
-173.0414919
0
LINE
8
0
10
117.775
20
-172.1906754
11
117.775
21
-151.299638
0
LINE
8
0
10
117.8014532
20
-150.9021218
11
122.4703254
21
-115.9774872
0
LINE
8
0
10
122.7660559
20
-115.0224873
11
135.992886
21
-88.8349839
0
LINE
8
0
10
138.6707022
20
-87.1875
11
170.8726569
21
-87.1875
0
LINE
8
0
10
172.7467419
20
-86.5301064
11
186.1032581
21
-75.8448936
0
LINE
8
0
10
187.9773431
20
-75.1875
11
220.8726569
21
-75.1875
0
LINE
8
0
10
222.7467419
20
-75.8448936
11
236.1032581
21
-86.5301064
0
LINE
8
0
10
237.9773431
20
-87.1875
11
357.85
21
-87.1875
0
LINE
8
0
10
360.85
20
-90.1875
11
360.85
21
-210.2
0
LINE
8
0
10
357.85
20
-213.2
11
132.0162051
21
-213.2
0
ARC
8
0
10
120.775
20
-172.1906754
40
3
50
180
51
196.4755113
0
ARC
8
0
10
120.775
20
-151.299638
40
3
50
172.3856062
51
180
0
ARC
8
0
10
125.4438722
20
-116.3750034
40
3
50
153.2024922
51
172.3856062
0
ARC
8
0
10
138.6707022
20
-90.1875
40
3
50
90
51
153.2024922
0
ARC
8
0
10
170.8726569
20
-84.1875
40
3
50
270
51
308.6598065
0
ARC
8
0
10
187.9773431
20
-78.1875
40
3
50
90
51
128.6598065
0
ARC
8
0
10
220.8726569
20
-78.1875
40
3
50
51.3401935
51
90
0
ARC
8
0
10
237.9773431
20
-84.1875
40
3
50
231.3401935
51
270
0
ARC
8
0
10
357.85
20
-90.1875
40
3
50
0
51
90
0
ARC
8
0
10
357.85
20
-210.2
40
3
50
270
51
0
0
ARC
8
0
10
132.0162051
20
-210.2
40
3
50
196.4755113
51
270
0
LINE
8
0
10
127.5375
20
-132
11
127.5375
21
-118
0
LINE
8
0
10
127.5375
20
-118
11
132.5375
21
-118
0
LINE
8
0
10
132.5375
20
-118
11
132.5375
21
-118.3
0
LINE
8
0
10
132.5375
20
-118.3
11
136.5375
21
-118.3
0
LINE
8
0
10
136.5375
20
-118.3
11
136.5375
21
-118
0
LINE
8
0
10
136.5375
20
-118
11
141.5375
21
-118
0
LINE
8
0
10
141.5375
20
-118
11
141.5375
21
-132
0
LINE
8
0
10
141.5375
20
-132
11
136.5375
21
-132
0
LINE
8
0
10
136.5375
20
-132
11
136.5375
21
-131.7
0
LINE
8
0
10
136.5375
20
-131.7
11
132.5375
21
-131.7
0
LINE
8
0
10
132.5375
20
-131.7
11
132.5375
21
-132
0
LINE
8
0
10
132.5375
20
-132
11
127.5375
21
-132
0
LINE
8
0
10
146.5875
20
-132
11
146.5875
21
-118
0
LINE
8
0
10
146.5875
20
-118
11
151.5875
21
-118
0
LINE
8
0
10
151.5875
20
-118
11
151.5875
21
-118.3
0
LINE
8
0
10
151.5875
20
-118.3
11
155.5875
21
-118.3
0
LINE
8
0
10
155.5875
20
-118.3
11
155.5875
21
-118
0
LINE
8
0
10
155.5875
20
-118
11
160.5875
21
-118
0
LINE
8
0
10
160.5875
20
-118
11
160.5875
21
-132
0
LINE
8
0
10
160.5875
20
-132
11
155.5875
21
-132
0
LINE
8
0
10
155.5875
20
-132
11
155.5875
21
-131.7
0
LINE
8
0
10
155.5875
20
-131.7
11
151.5875
21
-131.7
0
LINE
8
0
10
151.5875
20
-131.7
11
151.5875
21
-132
0
LINE
8
0
10
151.5875
20
-132
11
146.5875
21
-132
0
LINE
8
0
10
165.6375
20
-132
11
165.6375
21
-118
0
LINE
8
0
10
165.6375
20
-118
11
170.6375
21
-118
0
LINE
8
0
10
170.6375
20
-118
11
170.6375
21
-118.3
0
LINE
8
0
10
170.6375
20
-118.3
11
174.6375
21
-118.3
0
LINE
8
0
10
174.6375
20
-118.3
11
174.6375
21
-118
0
LINE
8
0
10
174.6375
20
-118
11
179.6375
21
-118
0
LINE
8
0
10
179.6375
20
-118
11
179.6375
21
-132
0
LINE
8
0
10
179.6375
20
-132
11
174.6375
21
-132
0
LINE
8
0
10
174.6375
20
-132
11
174.6375
21
-131.7
0
LINE
8
0
10
174.6375
20
-131.7
11
170.6375
21
-131.7
0
LINE
8
0
10
170.6375
20
-131.7
11
170.6375
21
-132
0
LINE
8
0
10
170.6375
20
-132
11
165.6375
21
-132
0
LINE
8
0
10
184.6875
20
-132
11
184.6875
21
-118
0
LINE
8
0
10
184.6875
20
-118
11
189.6875
21
-118
0
LINE
8
0
10
189.6875
20
-118
11
189.6875
21
-118.3
0
LINE
8
0
10
189.6875
20
-118.3
11
193.6875
21
-118.3
0
LINE
8
0
10
193.6875
20
-118.3
11
193.6875
21
-118
0
LINE
8
0
10
193.6875
20
-118
11
198.6875
21
-118
0
LINE
8
0
10
198.6875
20
-118
11
198.6875
21
-132
0
LINE
8
0
10
198.6875
20
-132
11
193.6875
21
-132
0
LINE
8
0
10
193.6875
20
-132
11
193.6875
21
-131.7
0
LINE
8
0
10
193.6875
20
-131.7
11
189.6875
21
-131.7
0
LINE
8
0
10
189.6875
20
-131.7
11
189.6875
21
-132
0
LINE
8
0
10
189.6875
20
-132
11
184.6875
21
-132
0
LINE
8
0
10
203.7375
20
-132
11
203.7375
21
-118
0
LINE
8
0
10
203.7375
20
-118
11
208.7375
21
-118
0
LINE
8
0
10
208.7375
20
-118
11
208.7375
21
-118.3
0
LINE
8
0
10
208.7375
20
-118.3
11
212.7375
21
-118.3
0
LINE
8
0
10
212.7375
20
-118.3
11
212.7375
21
-118
0
LINE
8
0
10
212.7375
20
-118
11
217.7375
21
-118
0
LINE
8
0
10
217.7375
20
-118
11
217.7375
21
-132
0
LINE
8
0
10
217.7375
20
-132
11
212.7375
21
-132
0
LINE
8
0
10
212.7375
20
-132
11
212.7375
21
-131.7
0
LINE
8
0
10
212.7375
20
-131.7
11
208.7375
21
-131.7
0
LINE
8
0
10
208.7375
20
-131.7
11
208.7375
21
-132
0
LINE
8
0
10
208.7375
20
-132
11
203.7375
21
-132
0
LINE
8
0
10
222.7875
20
-132
11
222.7875
21
-118
0
LINE
8
0
10
222.7875
20
-118
11
227.7875
21
-118
0
LINE
8
0
10
227.7875
20
-118
11
227.7875
21
-118.3
0
LINE
8
0
10
227.7875
20
-118.3
11
231.7875
21
-118.3
0
LINE
8
0
10
231.7875
20
-118.3
11
231.7875
21
-118
0
LINE
8
0
10
231.7875
20
-118
11
236.7875
21
-118
0
LINE
8
0
10
236.7875
20
-118
11
236.7875
21
-132
0
LINE
8
0
10
236.7875
20
-132
11
231.7875
21
-132
0
LINE
8
0
10
231.7875
20
-132
11
231.7875
21
-131.7
0
LINE
8
0
10
231.7875
20
-131.7
11
227.7875
21
-131.7
0
LINE
8
0
10
227.7875
20
-131.7
11
227.7875
21
-132
0
LINE
8
0
10
227.7875
20
-132
11
222.7875
21
-132
0
LINE
8
0
10
241.8375
20
-132
11
241.8375
21
-118
0
LINE
8
0
10
241.8375
20
-118
11
246.8375
21
-118
0
LINE
8
0
10
246.8375
20
-118
11
246.8375
21
-118.3
0
LINE
8
0
10
246.8375
20
-118.3
11
250.8375
21
-118.3
0
LINE
8
0
10
250.8375
20
-118.3
11
250.8375
21
-118
0
LINE
8
0
10
250.8375
20
-118
11
255.8375
21
-118
0
LINE
8
0
10
255.8375
20
-118
11
255.8375
21
-132
0
LINE
8
0
10
255.8375
20
-132
11
250.8375
21
-132
0
LINE
8
0
10
250.8375
20
-132
11
250.8375
21
-131.7
0
LINE
8
0
10
250.8375
20
-131.7
11
246.8375
21
-131.7
0
LINE
8
0
10
246.8375
20
-131.7
11
246.8375
21
-132
0
LINE
8
0
10
246.8375
20
-132
11
241.8375
21
-132
0
LINE
8
0
10
270.4125
20
-132
11
270.4125
21
-118
0
LINE
8
0
10
270.4125
20
-118
11
275.4125
21
-118
0
LINE
8
0
10
275.4125
20
-118
11
275.4125
21
-118.3
0
LINE
8
0
10
275.4125
20
-118.3
11
279.4125
21
-118.3
0
LINE
8
0
10
279.4125
20
-118.3
11
279.4125
21
-118
0
LINE
8
0
10
279.4125
20
-118
11
284.4125
21
-118
0
LINE
8
0
10
284.4125
20
-118
11
284.4125
21
-132
0
LINE
8
0
10
284.4125
20
-132
11
279.4125
21
-132
0
LINE
8
0
10
279.4125
20
-132
11
279.4125
21
-131.7
0
LINE
8
0
10
279.4125
20
-131.7
11
275.4125
21
-131.7
0
LINE
8
0
10
275.4125
20
-131.7
11
275.4125
21
-132
0
LINE
8
0
10
275.4125
20
-132
11
270.4125
21
-132
0
LINE
8
0
10
137.0625
20
-151.05
11
137.0625
21
-137.05
0
LINE
8
0
10
137.0625
20
-137.05
11
142.0625
21
-137.05
0
LINE
8
0
10
142.0625
20
-137.05
11
142.0625
21
-137.35
0
LINE
8
0
10
142.0625
20
-137.35
11
146.0625
21
-137.35
0
LINE
8
0
10
146.0625
20
-137.35
11
146.0625
21
-137.05
0
LINE
8
0
10
146.0625
20
-137.05
11
151.0625
21
-137.05
0
LINE
8
0
10
151.0625
20
-137.05
11
151.0625
21
-151.05
0
LINE
8
0
10
151.0625
20
-151.05
11
146.0625
21
-151.05
0
LINE
8
0
10
146.0625
20
-151.05
11
146.0625
21
-150.75
0
LINE
8
0
10
146.0625
20
-150.75
11
142.0625
21
-150.75
0
LINE
8
0
10
142.0625
20
-150.75
11
142.0625
21
-151.05
0
LINE
8
0
10
142.0625
20
-151.05
11
137.0625
21
-151.05
0
LINE
8
0
10
156.1125
20
-151.05
11
156.1125
21
-137.05
0
LINE
8
0
10
156.1125
20
-137.05
11
161.1125
21
-137.05
0
LINE
8
0
10
161.1125
20
-137.05
11
161.1125
21
-137.35
0
LINE
8
0
10
161.1125
20
-137.35
11
165.1125
21
-137.35
0
LINE
8
0
10
165.1125
20
-137.35
11
165.1125
21
-137.05
0
LINE
8
0
10
165.1125
20
-137.05
11
170.1125
21
-137.05
0
LINE
8
0
10
170.1125
20
-137.05
11
170.1125
21
-151.05
0
LINE
8
0
10
170.1125
20
-151.05
11
165.1125
21
-151.05
0
LINE
8
0
10
165.1125
20
-151.05
11
165.1125
21
-150.75
0
LINE
8
0
10
165.1125
20
-150.75
11
161.1125
21
-150.75
0
LINE
8
0
10
161.1125
20
-150.75
11
161.1125
21
-151.05
0
LINE
8
0
10
161.1125
20
-151.05
11
156.1125
21
-151.05
0
LINE
8
0
10
175.1625
20
-151.05
11
175.1625
21
-137.05
0
LINE
8
0
10
175.1625
20
-137.05
11
180.1625
21
-137.05
0
LINE
8
0
10
180.1625
20
-137.05
11
180.1625
21
-137.35
0
LINE
8
0
10
180.1625
20
-137.35
11
184.1625
21
-137.35
0
LINE
8
0
10
184.1625
20
-137.35
11
184.1625
21
-137.05
0
LINE
8
0
10
184.1625
20
-137.05
11
189.1625
21
-137.05
0
LINE
8
0
10
189.1625
20
-137.05
11
189.1625
21
-151.05
0
LINE
8
0
10
189.1625
20
-151.05
11
184.1625
21
-151.05
0
LINE
8
0
10
184.1625
20
-151.05
11
184.1625
21
-150.75
0
LINE
8
0
10
184.1625
20
-150.75
11
180.1625
21
-150.75
0
LINE
8
0
10
180.1625
20
-150.75
11
180.1625
21
-151.05
0
LINE
8
0
10
180.1625
20
-151.05
11
175.1625
21
-151.05
0
LINE
8
0
10
194.2125
20
-151.05
11
194.2125
21
-137.05
0
LINE
8
0
10
194.2125
20
-137.05
11
199.2125
21
-137.05
0
LINE
8
0
10
199.2125
20
-137.05
11
199.2125
21
-137.35
0
LINE
8
0
10
199.2125
20
-137.35
11
203.2125
21
-137.35
0
LINE
8
0
10
203.2125
20
-137.35
11
203.2125
21
-137.05
0
LINE
8
0
10
203.2125
20
-137.05
11
208.2125
21
-137.05
0
LINE
8
0
10
208.2125
20
-137.05
11
208.2125
21
-151.05
0
LINE
8
0
10
208.2125
20
-151.05
11
203.2125
21
-151.05
0
LINE
8
0
10
203.2125
20
-151.05
11
203.2125
21
-150.75
0
LINE
8
0
10
203.2125
20
-150.75
11
199.2125
21
-150.75
0
LINE
8
0
10
199.2125
20
-150.75
11
199.2125
21
-151.05
0
LINE
8
0
10
199.2125
20
-151.05
11
194.2125
21
-151.05
0
LINE
8
0
10
213.2625
20
-151.05
11
213.2625
21
-137.05
0
LINE
8
0
10
213.2625
20
-137.05
11
218.2625
21
-137.05
0
LINE
8
0
10
218.2625
20
-137.05
11
218.2625
21
-137.35
0
LINE
8
0
10
218.2625
20
-137.35
11
222.2625
21
-137.35
0
LINE
8
0
10
222.2625
20
-137.35
11
222.2625
21
-137.05
0
LINE
8
0
10
222.2625
20
-137.05
11
227.2625
21
-137.05
0
LINE
8
0
10
227.2625
20
-137.05
11
227.2625
21
-151.05
0
LINE
8
0
10
227.2625
20
-151.05
11
222.2625
21
-151.05
0
LINE
8
0
10
222.2625
20
-151.05
11
222.2625
21
-150.75
0
LINE
8
0
10
222.2625
20
-150.75
11
218.2625
21
-150.75
0
LINE
8
0
10
218.2625
20
-150.75
11
218.2625
21
-151.05
0
LINE
8
0
10
218.2625
20
-151.05
11
213.2625
21
-151.05
0
LINE
8
0
10
232.3125
20
-151.05
11
232.3125
21
-137.05
0
LINE
8
0
10
232.3125
20
-137.05
11
237.3125
21
-137.05
0
LINE
8
0
10
237.3125
20
-137.05
11
237.3125
21
-137.35
0
LINE
8
0
10
237.3125
20
-137.35
11
241.3125
21
-137.35
0
LINE
8
0
10
241.3125
20
-137.35
11
241.3125
21
-137.05
0
LINE
8
0
10
241.3125
20
-137.05
11
246.3125
21
-137.05
0
LINE
8
0
10
246.3125
20
-137.05
11
246.3125
21
-151.05
0
LINE
8
0
10
246.3125
20
-151.05
11
241.3125
21
-151.05
0
LINE
8
0
10
241.3125
20
-151.05
11
241.3125
21
-150.75
0
LINE
8
0
10
241.3125
20
-150.75
11
237.3125
21
-150.75
0
LINE
8
0
10
237.3125
20
-150.75
11
237.3125
21
-151.05
0
LINE
8
0
10
237.3125
20
-151.05
11
232.3125
21
-151.05
0
LINE
8
0
10
251.3625
20
-151.05
11
251.3625
21
-137.05
0
LINE
8
0
10
251.3625
20
-137.05
11
256.3625
21
-137.05
0
LINE
8
0
10
256.3625
20
-137.05
11
256.3625
21
-137.35
0
LINE
8
0
10
256.3625
20
-137.35
11
260.3625
21
-137.35
0
LINE
8
0
10
260.3625
20
-137.35
11
260.3625
21
-137.05
0
LINE
8
0
10
260.3625
20
-137.05
11
265.3625
21
-137.05
0
LINE
8
0
10
265.3625
20
-137.05
11
265.3625
21
-151.05
0
LINE
8
0
10
265.3625
20
-151.05
11
260.3625
21
-151.05
0
LINE
8
0
10
260.3625
20
-151.05
11
260.3625
21
-150.75
0
LINE
8
0
10
260.3625
20
-150.75
11
256.3625
21
-150.75
0
LINE
8
0
10
256.3625
20
-150.75
11
256.3625
21
-151.05
0
LINE
8
0
10
256.3625
20
-151.05
11
251.3625
21
-151.05
0
LINE
8
0
10
122.775
20
-170.1
11
122.775
21
-156.1
0
LINE
8
0
10
122.775
20
-156.1
11
127.775
21
-156.1
0
LINE
8
0
10
127.775
20
-156.1
11
127.775
21
-156.4
0
LINE
8
0
10
127.775
20
-156.4
11
131.775
21
-156.4
0
LINE
8
0
10
131.775
20
-156.4
11
131.775
21
-156.1
0
LINE
8
0
10
131.775
20
-156.1
11
136.775
21
-156.1
0
LINE
8
0
10
136.775
20
-156.1
11
136.775
21
-170.1
0
LINE
8
0
10
136.775
20
-170.1
11
131.775
21
-170.1
0
LINE
8
0
10
131.775
20
-170.1
11
131.775
21
-169.8
0
LINE
8
0
10
131.775
20
-169.8
11
127.775
21
-169.8
0
LINE
8
0
10
127.775
20
-169.8
11
127.775
21
-170.1
0
LINE
8
0
10
127.775
20
-170.1
11
122.775
21
-170.1
0
LINE
8
0
10
141.825
20
-170.1
11
141.825
21
-156.1
0
LINE
8
0
10
141.825
20
-156.1
11
146.825
21
-156.1
0
LINE
8
0
10
146.825
20
-156.1
11
146.825
21
-156.4
0
LINE
8
0
10
146.825
20
-156.4
11
150.825
21
-156.4
0
LINE
8
0
10
150.825
20
-156.4
11
150.825
21
-156.1
0
LINE
8
0
10
150.825
20
-156.1
11
155.825
21
-156.1
0
LINE
8
0
10
155.825
20
-156.1
11
155.825
21
-170.1
0
LINE
8
0
10
155.825
20
-170.1
11
150.825
21
-170.1
0
LINE
8
0
10
150.825
20
-170.1
11
150.825
21
-169.8
0
LINE
8
0
10
150.825
20
-169.8
11
146.825
21
-169.8
0
LINE
8
0
10
146.825
20
-169.8
11
146.825
21
-170.1
0
LINE
8
0
10
146.825
20
-170.1
11
141.825
21
-170.1
0
LINE
8
0
10
160.875
20
-170.1
11
160.875
21
-156.1
0
LINE
8
0
10
160.875
20
-156.1
11
165.875
21
-156.1
0
LINE
8
0
10
165.875
20
-156.1
11
165.875
21
-156.4
0
LINE
8
0
10
165.875
20
-156.4
11
169.875
21
-156.4
0
LINE
8
0
10
169.875
20
-156.4
11
169.875
21
-156.1
0
LINE
8
0
10
169.875
20
-156.1
11
174.875
21
-156.1
0
LINE
8
0
10
174.875
20
-156.1
11
174.875
21
-170.1
0
LINE
8
0
10
174.875
20
-170.1
11
169.875
21
-170.1
0
LINE
8
0
10
169.875
20
-170.1
11
169.875
21
-169.8
0
LINE
8
0
10
169.875
20
-169.8
11
165.875
21
-169.8
0
LINE
8
0
10
165.875
20
-169.8
11
165.875
21
-170.1
0
LINE
8
0
10
165.875
20
-170.1
11
160.875
21
-170.1
0
LINE
8
0
10
179.925
20
-170.1
11
179.925
21
-156.1
0
LINE
8
0
10
179.925
20
-156.1
11
184.925
21
-156.1
0
LINE
8
0
10
184.925
20
-156.1
11
184.925
21
-156.4
0
LINE
8
0
10
184.925
20
-156.4
11
188.925
21
-156.4
0
LINE
8
0
10
188.925
20
-156.4
11
188.925
21
-156.1
0
LINE
8
0
10
188.925
20
-156.1
11
193.925
21
-156.1
0
LINE
8
0
10
193.925
20
-156.1
11
193.925
21
-170.1
0
LINE
8
0
10
193.925
20
-170.1
11
188.925
21
-170.1
0
LINE
8
0
10
188.925
20
-170.1
11
188.925
21
-169.8
0
LINE
8
0
10
188.925
20
-169.8
11
184.925
21
-169.8
0
LINE
8
0
10
184.925
20
-169.8
11
184.925
21
-170.1
0
LINE
8
0
10
184.925
20
-170.1
11
179.925
21
-170.1
0
LINE
8
0
10
198.975
20
-170.1
11
198.975
21
-156.1
0
LINE
8
0
10
198.975
20
-156.1
11
203.975
21
-156.1
0
LINE
8
0
10
203.975
20
-156.1
11
203.975
21
-156.4
0
LINE
8
0
10
203.975
20
-156.4
11
207.975
21
-156.4
0
LINE
8
0
10
207.975
20
-156.4
11
207.975
21
-156.1
0
LINE
8
0
10
207.975
20
-156.1
11
212.975
21
-156.1
0
LINE
8
0
10
212.975
20
-156.1
11
212.975
21
-170.1
0
LINE
8
0
10
212.975
20
-170.1
11
207.975
21
-170.1
0
LINE
8
0
10
207.975
20
-170.1
11
207.975
21
-169.8
0
LINE
8
0
10
207.975
20
-169.8
11
203.975
21
-169.8
0
LINE
8
0
10
203.975
20
-169.8
11
203.975
21
-170.1
0
LINE
8
0
10
203.975
20
-170.1
11
198.975
21
-170.1
0
LINE
8
0
10
218.025
20
-170.1
11
218.025
21
-156.1
0
LINE
8
0
10
218.025
20
-156.1
11
223.025
21
-156.1
0
LINE
8
0
10
223.025
20
-156.1
11
223.025
21
-156.4
0
LINE
8
0
10
223.025
20
-156.4
11
227.025
21
-156.4
0
LINE
8
0
10
227.025
20
-156.4
11
227.025
21
-156.1
0
LINE
8
0
10
227.025
20
-156.1
11
232.025
21
-156.1
0
LINE
8
0
10
232.025
20
-156.1
11
232.025
21
-170.1
0
LINE
8
0
10
232.025
20
-170.1
11
227.025
21
-170.1
0
LINE
8
0
10
227.025
20
-170.1
11
227.025
21
-169.8
0
LINE
8
0
10
227.025
20
-169.8
11
223.025
21
-169.8
0
LINE
8
0
10
223.025
20
-169.8
11
223.025
21
-170.1
0
LINE
8
0
10
223.025
20
-170.1
11
218.025
21
-170.1
0
LINE
8
0
10
237.075
20
-170.1
11
237.075
21
-156.1
0
LINE
8
0
10
237.075
20
-156.1
11
242.075
21
-156.1
0
LINE
8
0
10
242.075
20
-156.1
11
242.075
21
-156.4
0
LINE
8
0
10
242.075
20
-156.4
11
246.075
21
-156.4
0
LINE
8
0
10
246.075
20
-156.4
11
246.075
21
-156.1
0
LINE
8
0
10
246.075
20
-156.1
11
251.075
21
-156.1
0
LINE
8
0
10
251.075
20
-156.1
11
251.075
21
-170.1
0
LINE
8
0
10
251.075
20
-170.1
11
246.075
21
-170.1
0
LINE
8
0
10
246.075
20
-170.1
11
246.075
21
-169.8
0
LINE
8
0
10
246.075
20
-169.8
11
242.075
21
-169.8
0
LINE
8
0
10
242.075
20
-169.8
11
242.075
21
-170.1
0
LINE
8
0
10
242.075
20
-170.1
11
237.075
21
-170.1
0
LINE
8
0
10
256.125
20
-170.1
11
256.125
21
-156.1
0
LINE
8
0
10
256.125
20
-156.1
11
261.125
21
-156.1
0
LINE
8
0
10
261.125
20
-156.1
11
261.125
21
-156.4
0
LINE
8
0
10
261.125
20
-156.4
11
265.125
21
-156.4
0
LINE
8
0
10
265.125
20
-156.4
11
265.125
21
-156.1
0
LINE
8
0
10
265.125
20
-156.1
11
270.125
21
-156.1
0
LINE
8
0
10
270.125
20
-156.1
11
270.125
21
-170.1
0
LINE
8
0
10
270.125
20
-170.1
11
265.125
21
-170.1
0
LINE
8
0
10
265.125
20
-170.1
11
265.125
21
-169.8
0
LINE
8
0
10
265.125
20
-169.8
11
261.125
21
-169.8
0
LINE
8
0
10
261.125
20
-169.8
11
261.125
21
-170.1
0
LINE
8
0
10
261.125
20
-170.1
11
256.125
21
-170.1
0
LINE
8
0
10
132.3
20
-189.15
11
132.3
21
-175.15
0
LINE
8
0
10
132.3
20
-175.15
11
137.3
21
-175.15
0
LINE
8
0
10
137.3
20
-175.15
11
137.3
21
-175.45
0
LINE
8
0
10
137.3
20
-175.45
11
141.3
21
-175.45
0
LINE
8
0
10
141.3
20
-175.45
11
141.3
21
-175.15
0
LINE
8
0
10
141.3
20
-175.15
11
146.3
21
-175.15
0
LINE
8
0
10
146.3
20
-175.15
11
146.3
21
-189.15
0
LINE
8
0
10
146.3
20
-189.15
11
141.3
21
-189.15
0
LINE
8
0
10
141.3
20
-189.15
11
141.3
21
-188.85
0
LINE
8
0
10
141.3
20
-188.85
11
137.3
21
-188.85
0
LINE
8
0
10
137.3
20
-188.85
11
137.3
21
-189.15
0
LINE
8
0
10
137.3
20
-189.15
11
132.3
21
-189.15
0
LINE
8
0
10
151.35
20
-189.15
11
151.35
21
-175.15
0
LINE
8
0
10
151.35
20
-175.15
11
156.35
21
-175.15
0
LINE
8
0
10
156.35
20
-175.15
11
156.35
21
-175.45
0
LINE
8
0
10
156.35
20
-175.45
11
160.35
21
-175.45
0
LINE
8
0
10
160.35
20
-175.45
11
160.35
21
-175.15
0
LINE
8
0
10
160.35
20
-175.15
11
165.35
21
-175.15
0
LINE
8
0
10
165.35
20
-175.15
11
165.35
21
-189.15
0
LINE
8
0
10
165.35
20
-189.15
11
160.35
21
-189.15
0
LINE
8
0
10
160.35
20
-189.15
11
160.35
21
-188.85
0
LINE
8
0
10
160.35
20
-188.85
11
156.35
21
-188.85
0
LINE
8
0
10
156.35
20
-188.85
11
156.35
21
-189.15
0
LINE
8
0
10
156.35
20
-189.15
11
151.35
21
-189.15
0
LINE
8
0
10
170.4
20
-189.15
11
170.4
21
-175.15
0
LINE
8
0
10
170.4
20
-175.15
11
175.4
21
-175.15
0
LINE
8
0
10
175.4
20
-175.15
11
175.4
21
-175.45
0
LINE
8
0
10
175.4
20
-175.45
11
179.4
21
-175.45
0
LINE
8
0
10
179.4
20
-175.45
11
179.4
21
-175.15
0
LINE
8
0
10
179.4
20
-175.15
11
184.4
21
-175.15
0
LINE
8
0
10
184.4
20
-175.15
11
184.4
21
-189.15
0
LINE
8
0
10
184.4
20
-189.15
11
179.4
21
-189.15
0
LINE
8
0
10
179.4
20
-189.15
11
179.4
21
-188.85
0
LINE
8
0
10
179.4
20
-188.85
11
175.4
21
-188.85
0
LINE
8
0
10
175.4
20
-188.85
11
175.4
21
-189.15
0
LINE
8
0
10
175.4
20
-189.15
11
170.4
21
-189.15
0
LINE
8
0
10
189.45
20
-189.15
11
189.45
21
-175.15
0
LINE
8
0
10
189.45
20
-175.15
11
194.45
21
-175.15
0
LINE
8
0
10
194.45
20
-175.15
11
194.45
21
-175.45
0
LINE
8
0
10
194.45
20
-175.45
11
198.45
21
-175.45
0
LINE
8
0
10
198.45
20
-175.45
11
198.45
21
-175.15
0
LINE
8
0
10
198.45
20
-175.15
11
203.45
21
-175.15
0
LINE
8
0
10
203.45
20
-175.15
11
203.45
21
-189.15
0
LINE
8
0
10
203.45
20
-189.15
11
198.45
21
-189.15
0
LINE
8
0
10
198.45
20
-189.15
11
198.45
21
-188.85
0
LINE
8
0
10
198.45
20
-188.85
11
194.45
21
-188.85
0
LINE
8
0
10
194.45
20
-188.85
11
194.45
21
-189.15
0
LINE
8
0
10
194.45
20
-189.15
11
189.45
21
-189.15
0
LINE
8
0
10
208.5
20
-189.15
11
208.5
21
-175.15
0
LINE
8
0
10
208.5
20
-175.15
11
213.5
21
-175.15
0
LINE
8
0
10
213.5
20
-175.15
11
213.5
21
-175.45
0
LINE
8
0
10
213.5
20
-175.45
11
217.5
21
-175.45
0
LINE
8
0
10
217.5
20
-175.45
11
217.5
21
-175.15
0
LINE
8
0
10
217.5
20
-175.15
11
222.5
21
-175.15
0
LINE
8
0
10
222.5
20
-175.15
11
222.5
21
-189.15
0
LINE
8
0
10
222.5
20
-189.15
11
217.5
21
-189.15
0
LINE
8
0
10
217.5
20
-189.15
11
217.5
21
-188.85
0
LINE
8
0
10
217.5
20
-188.85
11
213.5
21
-188.85
0
LINE
8
0
10
213.5
20
-188.85
11
213.5
21
-189.15
0
LINE
8
0
10
213.5
20
-189.15
11
208.5
21
-189.15
0
LINE
8
0
10
227.55
20
-189.15
11
227.55
21
-175.15
0
LINE
8
0
10
227.55
20
-175.15
11
232.55
21
-175.15
0
LINE
8
0
10
232.55
20
-175.15
11
232.55
21
-175.45
0
LINE
8
0
10
232.55
20
-175.45
11
236.55
21
-175.45
0
LINE
8
0
10
236.55
20
-175.45
11
236.55
21
-175.15
0
LINE
8
0
10
236.55
20
-175.15
11
241.55
21
-175.15
0
LINE
8
0
10
241.55
20
-175.15
11
241.55
21
-189.15
0
LINE
8
0
10
241.55
20
-189.15
11
236.55
21
-189.15
0
LINE
8
0
10
236.55
20
-189.15
11
236.55
21
-188.85
0
LINE
8
0
10
236.55
20
-188.85
11
232.55
21
-188.85
0
LINE
8
0
10
232.55
20
-188.85
11
232.55
21
-189.15
0
LINE
8
0
10
232.55
20
-189.15
11
227.55
21
-189.15
0
LINE
8
0
10
263.364
20
-189.15
11
263.364
21
-175.15
0
LINE
8
0
10
263.364
20
-175.15
11
268.364
21
-175.15
0
LINE
8
0
10
268.364
20
-175.15
11
268.364
21
-175.45
0
LINE
8
0
10
268.364
20
-175.45
11
272.364
21
-175.45
0
LINE
8
0
10
272.364
20
-175.45
11
272.364
21
-175.15
0
LINE
8
0
10
272.364
20
-175.15
11
277.364
21
-175.15
0
LINE
8
0
10
277.364
20
-175.15
11
277.364
21
-189.15
0
LINE
8
0
10
277.364
20
-189.15
11
272.364
21
-189.15
0
LINE
8
0
10
272.364
20
-189.15
11
272.364
21
-188.85
0
LINE
8
0
10
272.364
20
-188.85
11
268.364
21
-188.85
0
LINE
8
0
10
268.364
20
-188.85
11
268.364
21
-189.15
0
LINE
8
0
10
268.364
20
-189.15
11
263.364
21
-189.15
0
LINE
8
0
10
141.825
20
-108.1875
11
141.825
21
-94.1875
0
LINE
8
0
10
141.825
20
-94.1875
11
146.825
21
-94.1875
0
LINE
8
0
10
146.825
20
-94.1875
11
146.825
21
-94.4875
0
LINE
8
0
10
146.825
20
-94.4875
11
150.825
21
-94.4875
0
LINE
8
0
10
150.825
20
-94.4875
11
150.825
21
-94.1875
0
LINE
8
0
10
150.825
20
-94.1875
11
155.825
21
-94.1875
0
LINE
8
0
10
155.825
20
-94.1875
11
155.825
21
-108.1875
0
LINE
8
0
10
155.825
20
-108.1875
11
150.825
21
-108.1875
0
LINE
8
0
10
150.825
20
-108.1875
11
150.825
21
-107.8875
0
LINE
8
0
10
150.825
20
-107.8875
11
146.825
21
-107.8875
0
LINE
8
0
10
146.825
20
-107.8875
11
146.825
21
-108.1875
0
LINE
8
0
10
146.825
20
-108.1875
11
141.825
21
-108.1875
0
LINE
8
0
10
160.875
20
-108.1875
11
160.875
21
-94.1875
0
LINE
8
0
10
160.875
20
-94.1875
11
165.875
21
-94.1875
0
LINE
8
0
10
165.875
20
-94.1875
11
165.875
21
-94.4875
0
LINE
8
0
10
165.875
20
-94.4875
11
169.875
21
-94.4875
0
LINE
8
0
10
169.875
20
-94.4875
11
169.875
21
-94.1875
0
LINE
8
0
10
169.875
20
-94.1875
11
174.875
21
-94.1875
0
LINE
8
0
10
174.875
20
-94.1875
11
174.875
21
-108.1875
0
LINE
8
0
10
174.875
20
-108.1875
11
169.875
21
-108.1875
0
LINE
8
0
10
169.875
20
-108.1875
11
169.875
21
-107.8875
0
LINE
8
0
10
169.875
20
-107.8875
11
165.875
21
-107.8875
0
LINE
8
0
10
165.875
20
-107.8875
11
165.875
21
-108.1875
0
LINE
8
0
10
165.875
20
-108.1875
11
160.875
21
-108.1875
0
LINE
8
0
10
179.925
20
-108.1875
11
179.925
21
-94.1875
0
LINE
8
0
10
179.925
20
-94.1875
11
184.925
21
-94.1875
0
LINE
8
0
10
184.925
20
-94.1875
11
184.925
21
-94.4875
0
LINE
8
0
10
184.925
20
-94.4875
11
188.925
21
-94.4875
0
LINE
8
0
10
188.925
20
-94.4875
11
188.925
21
-94.1875
0
LINE
8
0
10
188.925
20
-94.1875
11
193.925
21
-94.1875
0
LINE
8
0
10
193.925
20
-94.1875
11
193.925
21
-108.1875
0
LINE
8
0
10
193.925
20
-108.1875
11
188.925
21
-108.1875
0
LINE
8
0
10
188.925
20
-108.1875
11
188.925
21
-107.8875
0
LINE
8
0
10
188.925
20
-107.8875
11
184.925
21
-107.8875
0
LINE
8
0
10
184.925
20
-107.8875
11
184.925
21
-108.1875
0
LINE
8
0
10
184.925
20
-108.1875
11
179.925
21
-108.1875
0
LINE
8
0
10
198.975
20
-108.1875
11
198.975
21
-94.1875
0
LINE
8
0
10
198.975
20
-94.1875
11
203.975
21
-94.1875
0
LINE
8
0
10
203.975
20
-94.1875
11
203.975
21
-94.4875
0
LINE
8
0
10
203.975
20
-94.4875
11
207.975
21
-94.4875
0
LINE
8
0
10
207.975
20
-94.4875
11
207.975
21
-94.1875
0
LINE
8
0
10
207.975
20
-94.1875
11
212.975
21
-94.1875
0
LINE
8
0
10
212.975
20
-94.1875
11
212.975
21
-108.1875
0
LINE
8
0
10
212.975
20
-108.1875
11
207.975
21
-108.1875
0
LINE
8
0
10
207.975
20
-108.1875
11
207.975
21
-107.8875
0
LINE
8
0
10
207.975
20
-107.8875
11
203.975
21
-107.8875
0
LINE
8
0
10
203.975
20
-107.8875
11
203.975
21
-108.1875
0
LINE
8
0
10
203.975
20
-108.1875
11
198.975
21
-108.1875
0
LINE
8
0
10
222.7875
20
-108.1875
11
222.7875
21
-94.1875
0
LINE
8
0
10
222.7875
20
-94.1875
11
227.7875
21
-94.1875
0
LINE
8
0
10
227.7875
20
-94.1875
11
227.7875
21
-94.4875
0
LINE
8
0
10
227.7875
20
-94.4875
11
231.7875
21
-94.4875
0
LINE
8
0
10
231.7875
20
-94.4875
11
231.7875
21
-94.1875
0
LINE
8
0
10
231.7875
20
-94.1875
11
236.7875
21
-94.1875
0
LINE
8
0
10
236.7875
20
-94.1875
11
236.7875
21
-108.1875
0
LINE
8
0
10
236.7875
20
-108.1875
11
231.7875
21
-108.1875
0
LINE
8
0
10
231.7875
20
-108.1875
11
231.7875
21
-107.8875
0
LINE
8
0
10
231.7875
20
-107.8875
11
227.7875
21
-107.8875
0
LINE
8
0
10
227.7875
20
-107.8875
11
227.7875
21
-108.1875
0
LINE
8
0
10
227.7875
20
-108.1875
11
222.7875
21
-108.1875
0
LINE
8
0
10
241.8375
20
-108.1875
11
241.8375
21
-94.1875
0
LINE
8
0
10
241.8375
20
-94.1875
11
246.8375
21
-94.1875
0
LINE
8
0
10
246.8375
20
-94.1875
11
246.8375
21
-94.4875
0
LINE
8
0
10
246.8375
20
-94.4875
11
250.8375
21
-94.4875
0
LINE
8
0
10
250.8375
20
-94.4875
11
250.8375
21
-94.1875
0
LINE
8
0
10
250.8375
20
-94.1875
11
255.8375
21
-94.1875
0
LINE
8
0
10
255.8375
20
-94.1875
11
255.8375
21
-108.1875
0
LINE
8
0
10
255.8375
20
-108.1875
11
250.8375
21
-108.1875
0
LINE
8
0
10
250.8375
20
-108.1875
11
250.8375
21
-107.8875
0
LINE
8
0
10
250.8375
20
-107.8875
11
246.8375
21
-107.8875
0
LINE
8
0
10
246.8375
20
-107.8875
11
246.8375
21
-108.1875
0
LINE
8
0
10
246.8375
20
-108.1875
11
241.8375
21
-108.1875
0
LINE
8
0
10
260.8875
20
-108.1875
11
260.8875
21
-94.1875
0
LINE
8
0
10
260.8875
20
-94.1875
11
265.8875
21
-94.1875
0
LINE
8
0
10
265.8875
20
-94.1875
11
265.8875
21
-94.4875
0
LINE
8
0
10
265.8875
20
-94.4875
11
269.8875
21
-94.4875
0
LINE
8
0
10
269.8875
20
-94.4875
11
269.8875
21
-94.1875
0
LINE
8
0
10
269.8875
20
-94.1875
11
274.8875
21
-94.1875
0
LINE
8
0
10
274.8875
20
-94.1875
11
274.8875
21
-108.1875
0
LINE
8
0
10
274.8875
20
-108.1875
11
269.8875
21
-108.1875
0
LINE
8
0
10
269.8875
20
-108.1875
11
269.8875
21
-107.8875
0
LINE
8
0
10
269.8875
20
-107.8875
11
265.8875
21
-107.8875
0
LINE
8
0
10
265.8875
20
-107.8875
11
265.8875
21
-108.1875
0
LINE
8
0
10
265.8875
20
-108.1875
11
260.8875
21
-108.1875
0
LINE
8
0
10
279.9375
20
-108.1875
11
279.9375
21
-94.1875
0
LINE
8
0
10
279.9375
20
-94.1875
11
284.9375
21
-94.1875
0
LINE
8
0
10
284.9375
20
-94.1875
11
284.9375
21
-94.4875
0
LINE
8
0
10
284.9375
20
-94.4875
11
288.9375
21
-94.4875
0
LINE
8
0
10
288.9375
20
-94.4875
11
288.9375
21
-94.1875
0
LINE
8
0
10
288.9375
20
-94.1875
11
293.9375
21
-94.1875
0
LINE
8
0
10
293.9375
20
-94.1875
11
293.9375
21
-108.1875
0
LINE
8
0
10
293.9375
20
-108.1875
11
288.9375
21
-108.1875
0
LINE
8
0
10
288.9375
20
-108.1875
11
288.9375
21
-107.8875
0
LINE
8
0
10
288.9375
20
-107.8875
11
284.9375
21
-107.8875
0
LINE
8
0
10
284.9375
20
-107.8875
11
284.9375
21
-108.1875
0
LINE
8
0
10
284.9375
20
-108.1875
11
279.9375
21
-108.1875
0
LINE
8
0
10
303.75
20
-108.1875
11
303.75
21
-94.1875
0
LINE
8
0
10
303.75
20
-94.1875
11
308.75
21
-94.1875
0
LINE
8
0
10
308.75
20
-94.1875
11
308.75
21
-94.4875
0
LINE
8
0
10
308.75
20
-94.4875
11
312.75
21
-94.4875
0
LINE
8
0
10
312.75
20
-94.4875
11
312.75
21
-94.1875
0
LINE
8
0
10
312.75
20
-94.1875
11
317.75
21
-94.1875
0
LINE
8
0
10
317.75
20
-94.1875
11
317.75
21
-108.1875
0
LINE
8
0
10
317.75
20
-108.1875
11
312.75
21
-108.1875
0
LINE
8
0
10
312.75
20
-108.1875
11
312.75
21
-107.8875
0
LINE
8
0
10
312.75
20
-107.8875
11
308.75
21
-107.8875
0
LINE
8
0
10
308.75
20
-107.8875
11
308.75
21
-108.1875
0
LINE
8
0
10
308.75
20
-108.1875
11
303.75
21
-108.1875
0
LINE
8
0
10
322.8
20
-108.1875
11
322.8
21
-94.1875
0
LINE
8
0
10
322.8
20
-94.1875
11
327.8
21
-94.1875
0
LINE
8
0
10
327.8
20
-94.1875
11
327.8
21
-94.4875
0
LINE
8
0
10
327.8
20
-94.4875
11
331.8
21
-94.4875
0
LINE
8
0
10
331.8
20
-94.4875
11
331.8
21
-94.1875
0
LINE
8
0
10
331.8
20
-94.1875
11
336.8
21
-94.1875
0
LINE
8
0
10
336.8
20
-94.1875
11
336.8
21
-108.1875
0
LINE
8
0
10
336.8
20
-108.1875
11
331.8
21
-108.1875
0
LINE
8
0
10
331.8
20
-108.1875
11
331.8
21
-107.8875
0
LINE
8
0
10
331.8
20
-107.8875
11
327.8
21
-107.8875
0
LINE
8
0
10
327.8
20
-107.8875
11
327.8
21
-108.1875
0
LINE
8
0
10
327.8
20
-108.1875
11
322.8
21
-108.1875
0
LINE
8
0
10
341.85
20
-108.1875
11
341.85
21
-94.1875
0
LINE
8
0
10
341.85
20
-94.1875
11
346.85
21
-94.1875
0
LINE
8
0
10
346.85
20
-94.1875
11
346.85
21
-94.4875
0
LINE
8
0
10
346.85
20
-94.4875
11
350.85
21
-94.4875
0
LINE
8
0
10
350.85
20
-94.4875
11
350.85
21
-94.1875
0
LINE
8
0
10
350.85
20
-94.1875
11
355.85
21
-94.1875
0
LINE
8
0
10
355.85
20
-94.1875
11
355.85
21
-108.1875
0
LINE
8
0
10
355.85
20
-108.1875
11
350.85
21
-108.1875
0
LINE
8
0
10
350.85
20
-108.1875
11
350.85
21
-107.8875
0
LINE
8
0
10
350.85
20
-107.8875
11
346.85
21
-107.8875
0
LINE
8
0
10
346.85
20
-107.8875
11
346.85
21
-108.1875
0
LINE
8
0
10
346.85
20
-108.1875
11
341.85
21
-108.1875
0
LINE
8
0
10
151.35
20
-208.2
11
151.35
21
-194.2
0
LINE
8
0
10
151.35
20
-194.2
11
156.35
21
-194.2
0
LINE
8
0
10
156.35
20
-194.2
11
156.35
21
-194.5
0
LINE
8
0
10
156.35
20
-194.5
11
160.35
21
-194.5
0
LINE
8
0
10
160.35
20
-194.5
11
160.35
21
-194.2
0
LINE
8
0
10
160.35
20
-194.2
11
165.35
21
-194.2
0
LINE
8
0
10
165.35
20
-194.2
11
165.35
21
-208.2
0
LINE
8
0
10
165.35
20
-208.2
11
160.35
21
-208.2
0
LINE
8
0
10
160.35
20
-208.2
11
160.35
21
-207.9
0
LINE
8
0
10
160.35
20
-207.9
11
156.35
21
-207.9
0
LINE
8
0
10
156.35
20
-207.9
11
156.35
21
-208.2
0
LINE
8
0
10
156.35
20
-208.2
11
151.35
21
-208.2
0
LINE
8
0
10
206.11875
20
-208.2
11
206.11875
21
-194.2
0
LINE
8
0
10
206.11875
20
-194.2
11
211.11875
21
-194.2
0
LINE
8
0
10
211.11875
20
-194.2
11
211.11875
21
-194.5
0
LINE
8
0
10
211.11875
20
-194.5
11
215.11875
21
-194.5
0
LINE
8
0
10
215.11875
20
-194.5
11
215.11875
21
-194.2
0
LINE
8
0
10
215.11875
20
-194.2
11
220.11875
21
-194.2
0
LINE
8
0
10
220.11875
20
-194.2
11
220.11875
21
-208.2
0
LINE
8
0
10
220.11875
20
-208.2
11
215.11875
21
-208.2
0
LINE
8
0
10
215.11875
20
-208.2
11
215.11875
21
-207.9
0
LINE
8
0
10
215.11875
20
-207.9
11
211.11875
21
-207.9
0
LINE
8
0
10
211.11875
20
-207.9
11
211.11875
21
-208.2
0
LINE
8
0
10
211.11875
20
-208.2
11
206.11875
21
-208.2
0
LINE
8
0
10
229.93125
20
-208.2
11
229.93125
21
-194.2
0
LINE
8
0
10
229.93125
20
-194.2
11
234.93125
21
-194.2
0
LINE
8
0
10
234.93125
20
-194.2
11
234.93125
21
-194.5
0
LINE
8
0
10
234.93125
20
-194.5
11
238.93125
21
-194.5
0
LINE
8
0
10
238.93125
20
-194.5
11
238.93125
21
-194.2
0
LINE
8
0
10
238.93125
20
-194.2
11
243.93125
21
-194.2
0
LINE
8
0
10
243.93125
20
-194.2
11
243.93125
21
-208.2
0
LINE
8
0
10
243.93125
20
-208.2
11
238.93125
21
-208.2
0
LINE
8
0
10
238.93125
20
-208.2
11
238.93125
21
-207.9
0
LINE
8
0
10
238.93125
20
-207.9
11
234.93125
21
-207.9
0
LINE
8
0
10
234.93125
20
-207.9
11
234.93125
21
-208.2
0
LINE
8
0
10
234.93125
20
-208.2
11
229.93125
21
-208.2
0
LINE
8
0
10
253.74375
20
-208.2
11
253.74375
21
-194.2
0
LINE
8
0
10
253.74375
20
-194.2
11
258.74375
21
-194.2
0
LINE
8
0
10
258.74375
20
-194.2
11
258.74375
21
-194.5
0
LINE
8
0
10
258.74375
20
-194.5
11
262.74375
21
-194.5
0
LINE
8
0
10
262.74375
20
-194.5
11
262.74375
21
-194.2
0
LINE
8
0
10
262.74375
20
-194.2
11
267.74375
21
-194.2
0
LINE
8
0
10
267.74375
20
-194.2
11
267.74375
21
-208.2
0
LINE
8
0
10
267.74375
20
-208.2
11
262.74375
21
-208.2
0
LINE
8
0
10
262.74375
20
-208.2
11
262.74375
21
-207.9
0
LINE
8
0
10
262.74375
20
-207.9
11
258.74375
21
-207.9
0
LINE
8
0
10
258.74375
20
-207.9
11
258.74375
21
-208.2
0
LINE
8
0
10
258.74375
20
-208.2
11
253.74375
21
-208.2
0
LINE
8
0
10
277.55625
20
-208.2
11
277.55625
21
-194.2
0
LINE
8
0
10
277.55625
20
-194.2
11
282.55625
21
-194.2
0
LINE
8
0
10
282.55625
20
-194.2
11
282.55625
21
-194.5
0
LINE
8
0
10
282.55625
20
-194.5
11
286.55625
21
-194.5
0
LINE
8
0
10
286.55625
20
-194.5
11
286.55625
21
-194.2
0
LINE
8
0
10
286.55625
20
-194.2
11
291.55625
21
-194.2
0
LINE
8
0
10
291.55625
20
-194.2
11
291.55625
21
-208.2
0
LINE
8
0
10
291.55625
20
-208.2
11
286.55625
21
-208.2
0
LINE
8
0
10
286.55625
20
-208.2
11
286.55625
21
-207.9
0
LINE
8
0
10
286.55625
20
-207.9
11
282.55625
21
-207.9
0
LINE
8
0
10
282.55625
20
-207.9
11
282.55625
21
-208.2
0
LINE
8
0
10
282.55625
20
-208.2
11
277.55625
21
-208.2
0
LINE
8
0
10
303.75
20
-208.2
11
303.75
21
-194.2
0
LINE
8
0
10
303.75
20
-194.2
11
308.75
21
-194.2
0
LINE
8
0
10
308.75
20
-194.2
11
308.75
21
-194.5
0
LINE
8
0
10
308.75
20
-194.5
11
312.75
21
-194.5
0
LINE
8
0
10
312.75
20
-194.5
11
312.75
21
-194.2
0
LINE
8
0
10
312.75
20
-194.2
11
317.75
21
-194.2
0
LINE
8
0
10
317.75
20
-194.2
11
317.75
21
-208.2
0
LINE
8
0
10
317.75
20
-208.2
11
312.75
21
-208.2
0
LINE
8
0
10
312.75
20
-208.2
11
312.75
21
-207.9
0
LINE
8
0
10
312.75
20
-207.9
11
308.75
21
-207.9
0
LINE
8
0
10
308.75
20
-207.9
11
308.75
21
-208.2
0
LINE
8
0
10
308.75
20
-208.2
11
303.75
21
-208.2
0
LINE
8
0
10
303.75
20
-151.05
11
303.75
21
-137.05
0
LINE
8
0
10
303.75
20
-137.05
11
308.75
21
-137.05
0
LINE
8
0
10
308.75
20
-137.05
11
308.75
21
-137.35
0
LINE
8
0
10
308.75
20
-137.35
11
312.75
21
-137.35
0
LINE
8
0
10
312.75
20
-137.35
11
312.75
21
-137.05
0
LINE
8
0
10
312.75
20
-137.05
11
317.75
21
-137.05
0
LINE
8
0
10
317.75
20
-137.05
11
317.75
21
-151.05
0
LINE
8
0
10
317.75
20
-151.05
11
312.75
21
-151.05
0
LINE
8
0
10
312.75
20
-151.05
11
312.75
21
-150.75
0
LINE
8
0
10
312.75
20
-150.75
11
308.75
21
-150.75
0
LINE
8
0
10
308.75
20
-150.75
11
308.75
21
-151.05
0
LINE
8
0
10
308.75
20
-151.05
11
303.75
21
-151.05
0
LINE
8
0
10
303.75
20
-132
11
303.75
21
-118
0
LINE
8
0
10
303.75
20
-118
11
308.75
21
-118
0
LINE
8
0
10
308.75
20
-118
11
308.75
21
-118.3
0
LINE
8
0
10
308.75
20
-118.3
11
312.75
21
-118.3
0
LINE
8
0
10
312.75
20
-118.3
11
312.75
21
-118
0
LINE
8
0
10
312.75
20
-118
11
317.75
21
-118
0
LINE
8
0
10
317.75
20
-118
11
317.75
21
-132
0
LINE
8
0
10
317.75
20
-132
11
312.75
21
-132
0
LINE
8
0
10
312.75
20
-132
11
312.75
21
-131.7
0
LINE
8
0
10
312.75
20
-131.7
11
308.75
21
-131.7
0
LINE
8
0
10
308.75
20
-131.7
11
308.75
21
-132
0
LINE
8
0
10
308.75
20
-132
11
303.75
21
-132
0
LINE
8
0
10
322.8
20
-208.2
11
322.8
21
-194.2
0
LINE
8
0
10
322.8
20
-194.2
11
327.8
21
-194.2
0
LINE
8
0
10
327.8
20
-194.2
11
327.8
21
-194.5
0
LINE
8
0
10
327.8
20
-194.5
11
331.8
21
-194.5
0
LINE
8
0
10
331.8
20
-194.5
11
331.8
21
-194.2
0
LINE
8
0
10
331.8
20
-194.2
11
336.8
21
-194.2
0
LINE
8
0
10
336.8
20
-194.2
11
336.8
21
-208.2
0
LINE
8
0
10
336.8
20
-208.2
11
331.8
21
-208.2
0
LINE
8
0
10
331.8
20
-208.2
11
331.8
21
-207.9
0
LINE
8
0
10
331.8
20
-207.9
11
327.8
21
-207.9
0
LINE
8
0
10
327.8
20
-207.9
11
327.8
21
-208.2
0
LINE
8
0
10
327.8
20
-208.2
11
322.8
21
-208.2
0
LINE
8
0
10
322.8
20
-189.15
11
322.8
21
-175.15
0
LINE
8
0
10
322.8
20
-175.15
11
327.8
21
-175.15
0
LINE
8
0
10
327.8
20
-175.15
11
327.8
21
-175.45
0
LINE
8
0
10
327.8
20
-175.45
11
331.8
21
-175.45
0
LINE
8
0
10
331.8
20
-175.45
11
331.8
21
-175.15
0
LINE
8
0
10
331.8
20
-175.15
11
336.8
21
-175.15
0
LINE
8
0
10
336.8
20
-175.15
11
336.8
21
-189.15
0
LINE
8
0
10
336.8
20
-189.15
11
331.8
21
-189.15
0
LINE
8
0
10
331.8
20
-189.15
11
331.8
21
-188.85
0
LINE
8
0
10
331.8
20
-188.85
11
327.8
21
-188.85
0
LINE
8
0
10
327.8
20
-188.85
11
327.8
21
-189.15
0
LINE
8
0
10
327.8
20
-189.15
11
322.8
21
-189.15
0
LINE
8
0
10
322.8
20
-151.05
11
322.8
21
-137.05
0
LINE
8
0
10
322.8
20
-137.05
11
327.8
21
-137.05
0
LINE
8
0
10
327.8
20
-137.05
11
327.8
21
-137.35
0
LINE
8
0
10
327.8
20
-137.35
11
331.8
21
-137.35
0
LINE
8
0
10
331.8
20
-137.35
11
331.8
21
-137.05
0
LINE
8
0
10
331.8
20
-137.05
11
336.8
21
-137.05
0
LINE
8
0
10
336.8
20
-137.05
11
336.8
21
-151.05
0
LINE
8
0
10
336.8
20
-151.05
11
331.8
21
-151.05
0
LINE
8
0
10
331.8
20
-151.05
11
331.8
21
-150.75
0
LINE
8
0
10
331.8
20
-150.75
11
327.8
21
-150.75
0
LINE
8
0
10
327.8
20
-150.75
11
327.8
21
-151.05
0
LINE
8
0
10
327.8
20
-151.05
11
322.8
21
-151.05
0
LINE
8
0
10
322.8
20
-132
11
322.8
21
-118
0
LINE
8
0
10
322.8
20
-118
11
327.8
21
-118
0
LINE
8
0
10
327.8
20
-118
11
327.8
21
-118.3
0
LINE
8
0
10
327.8
20
-118.3
11
331.8
21
-118.3
0
LINE
8
0
10
331.8
20
-118.3
11
331.8
21
-118
0
LINE
8
0
10
331.8
20
-118
11
336.8
21
-118
0
LINE
8
0
10
336.8
20
-118
11
336.8
21
-132
0
LINE
8
0
10
336.8
20
-132
11
331.8
21
-132
0
LINE
8
0
10
331.8
20
-132
11
331.8
21
-131.7
0
LINE
8
0
10
331.8
20
-131.7
11
327.8
21
-131.7
0
LINE
8
0
10
327.8
20
-131.7
11
327.8
21
-132
0
LINE
8
0
10
327.8
20
-132
11
322.8
21
-132
0
LINE
8
0
10
341.85
20
-208.2
11
341.85
21
-194.2
0
LINE
8
0
10
341.85
20
-194.2
11
346.85
21
-194.2
0
LINE
8
0
10
346.85
20
-194.2
11
346.85
21
-194.5
0
LINE
8
0
10
346.85
20
-194.5
11
350.85
21
-194.5
0
LINE
8
0
10
350.85
20
-194.5
11
350.85
21
-194.2
0
LINE
8
0
10
350.85
20
-194.2
11
355.85
21
-194.2
0
LINE
8
0
10
355.85
20
-194.2
11
355.85
21
-208.2
0
LINE
8
0
10
355.85
20
-208.2
11
350.85
21
-208.2
0
LINE
8
0
10
350.85
20
-208.2
11
350.85
21
-207.9
0
LINE
8
0
10
350.85
20
-207.9
11
346.85
21
-207.9
0
LINE
8
0
10
346.85
20
-207.9
11
346.85
21
-208.2
0
LINE
8
0
10
346.85
20
-208.2
11
341.85
21
-208.2
0
LINE
8
0
10
341.85
20
-151.05
11
341.85
21
-137.05
0
LINE
8
0
10
341.85
20
-137.05
11
346.85
21
-137.05
0
LINE
8
0
10
346.85
20
-137.05
11
346.85
21
-137.35
0
LINE
8
0
10
346.85
20
-137.35
11
350.85
21
-137.35
0
LINE
8
0
10
350.85
20
-137.35
11
350.85
21
-137.05
0
LINE
8
0
10
350.85
20
-137.05
11
355.85
21
-137.05
0
LINE
8
0
10
355.85
20
-137.05
11
355.85
21
-151.05
0
LINE
8
0
10
355.85
20
-151.05
11
350.85
21
-151.05
0
LINE
8
0
10
350.85
20
-151.05
11
350.85
21
-150.75
0
LINE
8
0
10
350.85
20
-150.75
11
346.85
21
-150.75
0
LINE
8
0
10
346.85
20
-150.75
11
346.85
21
-151.05
0
LINE
8
0
10
346.85
20
-151.05
11
341.85
21
-151.05
0
LINE
8
0
10
341.85
20
-132
11
341.85
21
-118
0
LINE
8
0
10
341.85
20
-118
11
346.85
21
-118
0
LINE
8
0
10
346.85
20
-118
11
346.85
21
-118.3
0
LINE
8
0
10
346.85
20
-118.3
11
350.85
21
-118.3
0
LINE
8
0
10
350.85
20
-118.3
11
350.85
21
-118
0
LINE
8
0
10
350.85
20
-118
11
355.85
21
-118
0
LINE
8
0
10
355.85
20
-118
11
355.85
21
-132
0
LINE
8
0
10
355.85
20
-132
11
350.85
21
-132
0
LINE
8
0
10
350.85
20
-132
11
350.85
21
-131.7
0
LINE
8
0
10
350.85
20
-131.7
11
346.85
21
-131.7
0
LINE
8
0
10
346.85
20
-131.7
11
346.85
21
-132
0
LINE
8
0
10
346.85
20
-132
11
341.85
21
-132
0
ENDSEC
0
EOF