0
SECTION
2
HEADER
9
$INSUNITS
70
4
0
ENDSEC
0
SECTION
2
TABLES
0
TABLE
2
LTYPE
0
LTYPE
72
65
70
64
2
CONTINUOUS
3
______
73
0
40
0
0
ENDTAB
0
TABLE
2
LAYER
0
ENDTAB
0
ENDSEC
0
SECTION
2
ENTITIES
0
LINE
8
0
10
0
20
-14
11
0
21
0
0
LINE
8
0
10
0
20
0
11
5
21
0
0
LINE
8
0
10
5
20
0
11
5
21
-0.3
0
LINE
8
0
10
5
20
-0.3
11
9
21
-0.3
0
LINE
8
0
10
9
20
-0.3
11
9
21
0
0
LINE
8
0
10
9
20
0
11
14
21
0
0
LINE
8
0
10
14
20
0
11
14
21
-14
0
LINE
8
0
10
14
20
-14
11
9
21
-14
0
LINE
8
0
10
9
20
-14
11
9
21
-13.7
0
LINE
8
0
10
9
20
-13.7
11
5
21
-13.7
0
LINE
8
0
10
5
20
-13.7
11
5
21
-14
0
LINE
8
0
10
5
20
-14
11
0
21
-14
0
ENDSEC
0
EOF