0
SECTION
2
HEADER
9
$INSUNITS
70
4
0
ENDSEC
0
SECTION
2
TABLES
0
TABLE
2
LTYPE
0
LTYPE
72
65
70
64
2
CONTINUOUS
3
______
73
0
40
0
0
ENDTAB
0
TABLE
2
LAYER
0
ENDTAB
0
ENDSEC
0
SECTION
2
ENTITIES
0
LINE
8
0
10
134.5375
20
-139
11
134.5375
21
-125
0
LINE
8
0
10
134.5375
20
-125
11
139.5375
21
-125
0
LINE
8
0
10
139.5375
20
-125
11
139.5375
21
-125.3
0
LINE
8
0
10
139.5375
20
-125.3
11
143.5375
21
-125.3
0
LINE
8
0
10
143.5375
20
-125.3
11
143.5375
21
-125
0
LINE
8
0
10
143.5375
20
-125
11
148.5375
21
-125
0
LINE
8
0
10
148.5375
20
-125
11
148.5375
21
-139
0
LINE
8
0
10
148.5375
20
-139
11
143.5375
21
-139
0
LINE
8
0
10
143.5375
20
-139
11
143.5375
21
-138.7
0
LINE
8
0
10
143.5375
20
-138.7
11
139.5375
21
-138.7
0
LINE
8
0
10
139.5375
20
-138.7
11
139.5375
21
-139
0
LINE
8
0
10
139.5375
20
-139
11
134.5375
21
-139
0
LINE
8
0
10
153.5875
20
-139
11
153.5875
21
-125
0
LINE
8
0
10
153.5875
20
-125
11
158.5875
21
-125
0
LINE
8
0
10
158.5875
20
-125
11
158.5875
21
-125.3
0
LINE
8
0
10
158.5875
20
-125.3
11
162.5875
21
-125.3
0
LINE
8
0
10
162.5875
20
-125.3
11
162.5875
21
-125
0
LINE
8
0
10
162.5875
20
-125
11
167.5875
21
-125
0
LINE
8
0
10
167.5875
20
-125
11
167.5875
21
-139
0
LINE
8
0
10
167.5875
20
-139
11
162.5875
21
-139
0
LINE
8
0
10
162.5875
20
-139
11
162.5875
21
-138.7
0
LINE
8
0
10
162.5875
20
-138.7
11
158.5875
21
-138.7
0
LINE
8
0
10
158.5875
20
-138.7
11
158.5875
21
-139
0
LINE
8
0
10
158.5875
20
-139
11
153.5875
21
-139
0
LINE
8
0
10
172.6375
20
-139
11
172.6375
21
-125
0
LINE
8
0
10
172.6375
20
-125
11
177.6375
21
-125
0
LINE
8
0
10
177.6375
20
-125
11
177.6375
21
-125.3
0
LINE
8
0
10
177.6375
20
-125.3
11
181.6375
21
-125.3
0
LINE
8
0
10
181.6375
20
-125.3
11
181.6375
21
-125
0
LINE
8
0
10
181.6375
20
-125
11
186.6375
21
-125
0
LINE
8
0
10
186.6375
20
-125
11
186.6375
21
-139
0
LINE
8
0
10
186.6375
20
-139
11
181.6375
21
-139
0
LINE
8
0
10
181.6375
20
-139
11
181.6375
21
-138.7
0
LINE
8
0
10
181.6375
20
-138.7
11
177.6375
21
-138.7
0
LINE
8
0
10
177.6375
20
-138.7
11
177.6375
21
-139
0
LINE
8
0
10
177.6375
20
-139
11
172.6375
21
-139
0
LINE
8
0
10
191.6875
20
-139
11
191.6875
21
-125
0
LINE
8
0
10
191.6875
20
-125
11
196.6875
21
-125
0
LINE
8
0
10
196.6875
20
-125
11
196.6875
21
-125.3
0
LINE
8
0
10
196.6875
20
-125.3
11
200.6875
21
-125.3
0
LINE
8
0
10
200.6875
20
-125.3
11
200.6875
21
-125
0
LINE
8
0
10
200.6875
20
-125
11
205.6875
21
-125
0
LINE
8
0
10
205.6875
20
-125
11
205.6875
21
-139
0
LINE
8
0
10
205.6875
20
-139
11
200.6875
21
-139
0
LINE
8
0
10
200.6875
20
-139
11
200.6875
21
-138.7
0
LINE
8
0
10
200.6875
20
-138.7
11
196.6875
21
-138.7
0
LINE
8
0
10
196.6875
20
-138.7
11
196.6875
21
-139
0
LINE
8
0
10
196.6875
20
-139
11
191.6875
21
-139
0
LINE
8
0
10
210.7375
20
-139
11
210.7375
21
-125
0
LINE
8
0
10
210.7375
20
-125
11
215.7375
21
-125
0
LINE
8
0
10
215.7375
20
-125
11
215.7375
21
-125.3
0
LINE
8
0
10
215.7375
20
-125.3
11
219.7375
21
-125.3
0
LINE
8
0
10
219.7375
20
-125.3
11
219.7375
21
-125
0
LINE
8
0
10
219.7375
20
-125
11
224.7375
21
-125
0
LINE
8
0
10
224.7375
20
-125
11
224.7375
21
-139
0
LINE
8
0
10
224.7375
20
-139
11
219.7375
21
-139
0
LINE
8
0
10
219.7375
20
-139
11
219.7375
21
-138.7
0
LINE
8
0
10
219.7375
20
-138.7
11
215.7375
21
-138.7
0
LINE
8
0
10
215.7375
20
-138.7
11
215.7375
21
-139
0
LINE
8
0
10
215.7375
20
-139
11
210.7375
21
-139
0
LINE
8
0
10
229.7875
20
-139
11
229.7875
21
-125
0
LINE
8
0
10
229.7875
20
-125
11
234.7875
21
-125
0
LINE
8
0
10
234.7875
20
-125
11
234.7875
21
-125.3
0
LINE
8
0
10
234.7875
20
-125.3
11
238.7875
21
-125.3
0
LINE
8
0
10
238.7875
20
-125.3
11
238.7875
21
-125
0
LINE
8
0
10
238.7875
20
-125
11
243.7875
21
-125
0
LINE
8
0
10
243.7875
20
-125
11
243.7875
21
-139
0
LINE
8
0
10
243.7875
20
-139
11
238.7875
21
-139
0
LINE
8
0
10
238.7875
20
-139
11
238.7875
21
-138.7
0
LINE
8
0
10
238.7875
20
-138.7
11
234.7875
21
-138.7
0
LINE
8
0
10
234.7875
20
-138.7
11
234.7875
21
-139
0
LINE
8
0
10
234.7875
20
-139
11
229.7875
21
-139
0
LINE
8
0
10
248.8375
20
-139
11
248.8375
21
-125
0
LINE
8
0
10
248.8375
20
-125
11
253.8375
21
-125
0
LINE
8
0
10
253.8375
20
-125
11
253.8375
21
-125.3
0
LINE
8
0
10
253.8375
20
-125.3
11
257.8375
21
-125.3
0
LINE
8
0
10
257.8375
20
-125.3
11
257.8375
21
-125
0
LINE
8
0
10
257.8375
20
-125
11
262.8375
21
-125
0
LINE
8
0
10
262.8375
20
-125
11
262.8375
21
-139
0
LINE
8
0
10
262.8375
20
-139
11
257.8375
21
-139
0
LINE
8
0
10
257.8375
20
-139
11
257.8375
21
-138.7
0
LINE
8
0
10
257.8375
20
-138.7
11
253.8375
21
-138.7
0
LINE
8
0
10
253.8375
20
-138.7
11
253.8375
21
-139
0
LINE
8
0
10
253.8375
20
-139
11
248.8375
21
-139
0
LINE
8
0
10
277.4125
20
-139
11
277.4125
21
-125
0
LINE
8
0
10
277.4125
20
-125
11
282.4125
21
-125
0
LINE
8
0
10
282.4125
20
-125
11
282.4125
21
-125.3
0
LINE
8
0
10
282.4125
20
-125.3
11
286.4125
21
-125.3
0
LINE
8
0
10
286.4125
20
-125.3
11
286.4125
21
-125
0
LINE
8
0
10
286.4125
20
-125
11
291.4125
21
-125
0
LINE
8
0
10
291.4125
20
-125
11
291.4125
21
-139
0
LINE
8
0
10
291.4125
20
-139
11
286.4125
21
-139
0
LINE
8
0
10
286.4125
20
-139
11
286.4125
21
-138.7
0
LINE
8
0
10
286.4125
20
-138.7
11
282.4125
21
-138.7
0
LINE
8
0
10
282.4125
20
-138.7
11
282.4125
21
-139
0
LINE
8
0
10
282.4125
20
-139
11
277.4125
21
-139
0
LINE
8
0
10
144.0625
20
-158.05
11
144.0625
21
-144.05
0
LINE
8
0
10
144.0625
20
-144.05
11
149.0625
21
-144.05
0
LINE
8
0
10
149.0625
20
-144.05
11
149.0625
21
-144.35
0
LINE
8
0
10
149.0625
20
-144.35
11
153.0625
21
-144.35
0
LINE
8
0
10
153.0625
20
-144.35
11
153.0625
21
-144.05
0
LINE
8
0
10
153.0625
20
-144.05
11
158.0625
21
-144.05
0
LINE
8
0
10
158.0625
20
-144.05
11
158.0625
21
-158.05
0
LINE
8
0
10
158.0625
20
-158.05
11
153.0625
21
-158.05
0
LINE
8
0
10
153.0625
20
-158.05
11
153.0625
21
-157.75
0
LINE
8
0
10
153.0625
20
-157.75
11
149.0625
21
-157.75
0
LINE
8
0
10
149.0625
20
-157.75
11
149.0625
21
-158.05
0
LINE
8
0
10
149.0625
20
-158.05
11
144.0625
21
-158.05
0
LINE
8
0
10
163.1125
20
-158.05
11
163.1125
21
-144.05
0
LINE
8
0
10
163.1125
20
-144.05
11
168.1125
21
-144.05
0
LINE
8
0
10
168.1125
20
-144.05
11
168.1125
21
-144.35
0
LINE
8
0
10
168.1125
20
-144.35
11
172.1125
21
-144.35
0
LINE
8
0
10
172.1125
20
-144.35
11
172.1125
21
-144.05
0
LINE
8
0
10
172.1125
20
-144.05
11
177.1125
21
-144.05
0
LINE
8
0
10
177.1125
20
-144.05
11
177.1125
21
-158.05
0
LINE
8
0
10
177.1125
20
-158.05
11
172.1125
21
-158.05
0
LINE
8
0
10
172.1125
20
-158.05
11
172.1125
21
-157.75
0
LINE
8
0
10
172.1125
20
-157.75
11
168.1125
21
-157.75
0
LINE
8
0
10
168.1125
20
-157.75
11
168.1125
21
-158.05
0
LINE
8
0
10
168.1125
20
-158.05
11
163.1125
21
-158.05
0
LINE
8
0
10
182.1625
20
-158.05
11
182.1625
21
-144.05
0
LINE
8
0
10
182.1625
20
-144.05
11
187.1625
21
-144.05
0
LINE
8
0
10
187.1625
20
-144.05
11
187.1625
21
-144.35
0
LINE
8
0
10
187.1625
20
-144.35
11
191.1625
21
-144.35
0
LINE
8
0
10
191.1625
20
-144.35
11
191.1625
21
-144.05
0
LINE
8
0
10
191.1625
20
-144.05
11
196.1625
21
-144.05
0
LINE
8
0
10
196.1625
20
-144.05
11
196.1625
21
-158.05
0
LINE
8
0
10
196.1625
20
-158.05
11
191.1625
21
-158.05
0
LINE
8
0
10
191.1625
20
-158.05
11
191.1625
21
-157.75
0
LINE
8
0
10
191.1625
20
-157.75
11
187.1625
21
-157.75
0
LINE
8
0
10
187.1625
20
-157.75
11
187.1625
21
-158.05
0
LINE
8
0
10
187.1625
20
-158.05
11
182.1625
21
-158.05
0
LINE
8
0
10
201.2125
20
-158.05
11
201.2125
21
-144.05
0
LINE
8
0
10
201.2125
20
-144.05
11
206.2125
21
-144.05
0
LINE
8
0
10
206.2125
20
-144.05
11
206.2125
21
-144.35
0
LINE
8
0
10
206.2125
20
-144.35
11
210.2125
21
-144.35
0
LINE
8
0
10
210.2125
20
-144.35
11
210.2125
21
-144.05
0
LINE
8
0
10
210.2125
20
-144.05
11
215.2125
21
-144.05
0
LINE
8
0
10
215.2125
20
-144.05
11
215.2125
21
-158.05
0
LINE
8
0
10
215.2125
20
-158.05
11
210.2125
21
-158.05
0
LINE
8
0
10
210.2125
20
-158.05
11
210.2125
21
-157.75
0
LINE
8
0
10
210.2125
20
-157.75
11
206.2125
21
-157.75
0
LINE
8
0
10
206.2125
20
-157.75
11
206.2125
21
-158.05
0
LINE
8
0
10
206.2125
20
-158.05
11
201.2125
21
-158.05
0
LINE
8
0
10
220.2625
20
-158.05
11
220.2625
21
-144.05
0
LINE
8
0
10
220.2625
20
-144.05
11
225.2625
21
-144.05
0
LINE
8
0
10
225.2625
20
-144.05
11
225.2625
21
-144.35
0
LINE
8
0
10
225.2625
20
-144.35
11
229.2625
21
-144.35
0
LINE
8
0
10
229.2625
20
-144.35
11
229.2625
21
-144.05
0
LINE
8
0
10
229.2625
20
-144.05
11
234.2625
21
-144.05
0
LINE
8
0
10
234.2625
20
-144.05
11
234.2625
21
-158.05
0
LINE
8
0
10
234.2625
20
-158.05
11
229.2625
21
-158.05
0
LINE
8
0
10
229.2625
20
-158.05
11
229.2625
21
-157.75
0
LINE
8
0
10
229.2625
20
-157.75
11
225.2625
21
-157.75
0
LINE
8
0
10
225.2625
20
-157.75
11
225.2625
21
-158.05
0
LINE
8
0
10
225.2625
20
-158.05
11
220.2625
21
-158.05
0
LINE
8
0
10
239.3125
20
-158.05
11
239.3125
21
-144.05
0
LINE
8
0
10
239.3125
20
-144.05
11
244.3125
21
-144.05
0
LINE
8
0
10
244.3125
20
-144.05
11
244.3125
21
-144.35
0
LINE
8
0
10
244.3125
20
-144.35
11
248.3125
21
-144.35
0
LINE
8
0
10
248.3125
20
-144.35
11
248.3125
21
-144.05
0
LINE
8
0
10
248.3125
20
-144.05
11
253.3125
21
-144.05
0
LINE
8
0
10
253.3125
20
-144.05
11
253.3125
21
-158.05
0
LINE
8
0
10
253.3125
20
-158.05
11
248.3125
21
-158.05
0
LINE
8
0
10
248.3125
20
-158.05
11
248.3125
21
-157.75
0
LINE
8
0
10
248.3125
20
-157.75
11
244.3125
21
-157.75
0
LINE
8
0
10
244.3125
20
-157.75
11
244.3125
21
-158.05
0
LINE
8
0
10
244.3125
20
-158.05
11
239.3125
21
-158.05
0
LINE
8
0
10
258.3625
20
-158.05
11
258.3625
21
-144.05
0
LINE
8
0
10
258.3625
20
-144.05
11
263.3625
21
-144.05
0
LINE
8
0
10
263.3625
20
-144.05
11
263.3625
21
-144.35
0
LINE
8
0
10
263.3625
20
-144.35
11
267.3625
21
-144.35
0
LINE
8
0
10
267.3625
20
-144.35
11
267.3625
21
-144.05
0
LINE
8
0
10
267.3625
20
-144.05
11
272.3625
21
-144.05
0
LINE
8
0
10
272.3625
20
-144.05
11
272.3625
21
-158.05
0
LINE
8
0
10
272.3625
20
-158.05
11
267.3625
21
-158.05
0
LINE
8
0
10
267.3625
20
-158.05
11
267.3625
21
-157.75
0
LINE
8
0
10
267.3625
20
-157.75
11
263.3625
21
-157.75
0
LINE
8
0
10
263.3625
20
-157.75
11
263.3625
21
-158.05
0
LINE
8
0
10
263.3625
20
-158.05
11
258.3625
21
-158.05
0
LINE
8
0
10
129.775
20
-177.1
11
129.775
21
-163.1
0
LINE
8
0
10
129.775
20
-163.1
11
134.775
21
-163.1
0
LINE
8
0
10
134.775
20
-163.1
11
134.775
21
-163.4
0
LINE
8
0
10
134.775
20
-163.4
11
138.775
21
-163.4
0
LINE
8
0
10
138.775
20
-163.4
11
138.775
21
-163.1
0
LINE
8
0
10
138.775
20
-163.1
11
143.775
21
-163.1
0
LINE
8
0
10
143.775
20
-163.1
11
143.775
21
-177.1
0
LINE
8
0
10
143.775
20
-177.1
11
138.775
21
-177.1
0
LINE
8
0
10
138.775
20
-177.1
11
138.775
21
-176.8
0
LINE
8
0
10
138.775
20
-176.8
11
134.775
21
-176.8
0
LINE
8
0
10
134.775
20
-176.8
11
134.775
21
-177.1
0
LINE
8
0
10
134.775
20
-177.1
11
129.775
21
-177.1
0
LINE
8
0
10
148.825
20
-177.1
11
148.825
21
-163.1
0
LINE
8
0
10
148.825
20
-163.1
11
153.825
21
-163.1
0
LINE
8
0
10
153.825
20
-163.1
11
153.825
21
-163.4
0
LINE
8
0
10
153.825
20
-163.4
11
157.825
21
-163.4
0
LINE
8
0
10
157.825
20
-163.4
11
157.825
21
-163.1
0
LINE
8
0
10
157.825
20
-163.1
11
162.825
21
-163.1
0
LINE
8
0
10
162.825
20
-163.1
11
162.825
21
-177.1
0
LINE
8
0
10
162.825
20
-177.1
11
157.825
21
-177.1
0
LINE
8
0
10
157.825
20
-177.1
11
157.825
21
-176.8
0
LINE
8
0
10
157.825
20
-176.8
11
153.825
21
-176.8
0
LINE
8
0
10
153.825
20
-176.8
11
153.825
21
-177.1
0
LINE
8
0
10
153.825
20
-177.1
11
148.825
21
-177.1
0
LINE
8
0
10
167.875
20
-177.1
11
167.875
21
-163.1
0
LINE
8
0
10
167.875
20
-163.1
11
172.875
21
-163.1
0
LINE
8
0
10
172.875
20
-163.1
11
172.875
21
-163.4
0
LINE
8
0
10
172.875
20
-163.4
11
176.875
21
-163.4
0
LINE
8
0
10
176.875
20
-163.4
11
176.875
21
-163.1
0
LINE
8
0
10
176.875
20
-163.1
11
181.875
21
-163.1
0
LINE
8
0
10
181.875
20
-163.1
11
181.875
21
-177.1
0
LINE
8
0
10
181.875
20
-177.1
11
176.875
21
-177.1
0
LINE
8
0
10
176.875
20
-177.1
11
176.875
21
-176.8
0
LINE
8
0
10
176.875
20
-176.8
11
172.875
21
-176.8
0
LINE
8
0
10
172.875
20
-176.8
11
172.875
21
-177.1
0
LINE
8
0
10
172.875
20
-177.1
11
167.875
21
-177.1
0
LINE
8
0
10
186.925
20
-177.1
11
186.925
21
-163.1
0
LINE
8
0
10
186.925
20
-163.1
11
191.925
21
-163.1
0
LINE
8
0
10
191.925
20
-163.1
11
191.925
21
-163.4
0
LINE
8
0
10
191.925
20
-163.4
11
195.925
21
-163.4
0
LINE
8
0
10
195.925
20
-163.4
11
195.925
21
-163.1
0
LINE
8
0
10
195.925
20
-163.1
11
200.925
21
-163.1
0
LINE
8
0
10
200.925
20
-163.1
11
200.925
21
-177.1
0
LINE
8
0
10
200.925
20
-177.1
11
195.925
21
-177.1
0
LINE
8
0
10
195.925
20
-177.1
11
195.925
21
-176.8
0
LINE
8
0
10
195.925
20
-176.8
11
191.925
21
-176.8
0
LINE
8
0
10
191.925
20
-176.8
11
191.925
21
-177.1
0
LINE
8
0
10
191.925
20
-177.1
11
186.925
21
-177.1
0
LINE
8
0
10
205.975
20
-177.1
11
205.975
21
-163.1
0
LINE
8
0
10
205.975
20
-163.1
11
210.975
21
-163.1
0
LINE
8
0
10
210.975
20
-163.1
11
210.975
21
-163.4
0
LINE
8
0
10
210.975
20
-163.4
11
214.975
21
-163.4
0
LINE
8
0
10
214.975
20
-163.4
11
214.975
21
-163.1
0
LINE
8
0
10
214.975
20
-163.1
11
219.975
21
-163.1
0
LINE
8
0
10
219.975
20
-163.1
11
219.975
21
-177.1
0
LINE
8
0
10
219.975
20
-177.1
11
214.975
21
-177.1
0
LINE
8
0
10
214.975
20
-177.1
11
214.975
21
-176.8
0
LINE
8
0
10
214.975
20
-176.8
11
210.975
21
-176.8
0
LINE
8
0
10
210.975
20
-176.8
11
210.975
21
-177.1
0
LINE
8
0
10
210.975
20
-177.1
11
205.975
21
-177.1
0
LINE
8
0
10
225.025
20
-177.1
11
225.025
21
-163.1
0
LINE
8
0
10
225.025
20
-163.1
11
230.025
21
-163.1
0
LINE
8
0
10
230.025
20
-163.1
11
230.025
21
-163.4
0
LINE
8
0
10
230.025
20
-163.4
11
234.025
21
-163.4
0
LINE
8
0
10
234.025
20
-163.4
11
234.025
21
-163.1
0
LINE
8
0
10
234.025
20
-163.1
11
239.025
21
-163.1
0
LINE
8
0
10
239.025
20
-163.1
11
239.025
21
-177.1
0
LINE
8
0
10
239.025
20
-177.1
11
234.025
21
-177.1
0
LINE
8
0
10
234.025
20
-177.1
11
234.025
21
-176.8
0
LINE
8
0
10
234.025
20
-176.8
11
230.025
21
-176.8
0
LINE
8
0
10
230.025
20
-176.8
11
230.025
21
-177.1
0
LINE
8
0
10
230.025
20
-177.1
11
225.025
21
-177.1
0
LINE
8
0
10
244.075
20
-177.1
11
244.075
21
-163.1
0
LINE
8
0
10
244.075
20
-163.1
11
249.075
21
-163.1
0
LINE
8
0
10
249.075
20
-163.1
11
249.075
21
-163.4
0
LINE
8
0
10
249.075
20
-163.4
11
253.075
21
-163.4
0
LINE
8
0
10
253.075
20
-163.4
11
253.075
21
-163.1
0
LINE
8
0
10
253.075
20
-163.1
11
258.075
21
-163.1
0
LINE
8
0
10
258.075
20
-163.1
11
258.075
21
-177.1
0
LINE
8
0
10
258.075
20
-177.1
11
253.075
21
-177.1
0
LINE
8
0
10
253.075
20
-177.1
11
253.075
21
-176.8
0
LINE
8
0
10
253.075
20
-176.8
11
249.075
21
-176.8
0
LINE
8
0
10
249.075
20
-176.8
11
249.075
21
-177.1
0
LINE
8
0
10
249.075
20
-177.1
11
244.075
21
-177.1
0
LINE
8
0
10
263.125
20
-177.1
11
263.125
21
-163.1
0
LINE
8
0
10
263.125
20
-163.1
11
268.125
21
-163.1
0
LINE
8
0
10
268.125
20
-163.1
11
268.125
21
-163.4
0
LINE
8
0
10
268.125
20
-163.4
11
272.125
21
-163.4
0
LINE
8
0
10
272.125
20
-163.4
11
272.125
21
-163.1
0
LINE
8
0
10
272.125
20
-163.1
11
277.125
21
-163.1
0
LINE
8
0
10
277.125
20
-163.1
11
277.125
21
-177.1
0
LINE
8
0
10
277.125
20
-177.1
11
272.125
21
-177.1
0
LINE
8
0
10
272.125
20
-177.1
11
272.125
21
-176.8
0
LINE
8
0
10
272.125
20
-176.8
11
268.125
21
-176.8
0
LINE
8
0
10
268.125
20
-176.8
11
268.125
21
-177.1
0
LINE
8
0
10
268.125
20
-177.1
11
263.125
21
-177.1
0
LINE
8
0
10
139.3
20
-196.15
11
139.3
21
-182.15
0
LINE
8
0
10
139.3
20
-182.15
11
144.3
21
-182.15
0
LINE
8
0
10
144.3
20
-182.15
11
144.3
21
-182.45
0
LINE
8
0
10
144.3
20
-182.45
11
148.3
21
-182.45
0
LINE
8
0
10
148.3
20
-182.45
11
148.3
21
-182.15
0
LINE
8
0
10
148.3
20
-182.15
11
153.3
21
-182.15
0
LINE
8
0
10
153.3
20
-182.15
11
153.3
21
-196.15
0
LINE
8
0
10
153.3
20
-196.15
11
148.3
21
-196.15
0
LINE
8
0
10
148.3
20
-196.15
11
148.3
21
-195.85
0
LINE
8
0
10
148.3
20
-195.85
11
144.3
21
-195.85
0
LINE
8
0
10
144.3
20
-195.85
11
144.3
21
-196.15
0
LINE
8
0
10
144.3
20
-196.15
11
139.3
21
-196.15
0
LINE
8
0
10
158.35
20
-196.15
11
158.35
21
-182.15
0
LINE
8
0
10
158.35
20
-182.15
11
163.35
21
-182.15
0
LINE
8
0
10
163.35
20
-182.15
11
163.35
21
-182.45
0
LINE
8
0
10
163.35
20
-182.45
11
167.35
21
-182.45
0
LINE
8
0
10
167.35
20
-182.45
11
167.35
21
-182.15
0
LINE
8
0
10
167.35
20
-182.15
11
172.35
21
-182.15
0
LINE
8
0
10
172.35
20
-182.15
11
172.35
21
-196.15
0
LINE
8
0
10
172.35
20
-196.15
11
167.35
21
-196.15
0
LINE
8
0
10
167.35
20
-196.15
11
167.35
21
-195.85
0
LINE
8
0
10
167.35
20
-195.85
11
163.35
21
-195.85
0
LINE
8
0
10
163.35
20
-195.85
11
163.35
21
-196.15
0
LINE
8
0
10
163.35
20
-196.15
11
158.35
21
-196.15
0
LINE
8
0
10
177.4
20
-196.15
11
177.4
21
-182.15
0
LINE
8
0
10
177.4
20
-182.15
11
182.4
21
-182.15
0
LINE
8
0
10
182.4
20
-182.15
11
182.4
21
-182.45
0
LINE
8
0
10
182.4
20
-182.45
11
186.4
21
-182.45
0
LINE
8
0
10
186.4
20
-182.45
11
186.4
21
-182.15
0
LINE
8
0
10
186.4
20
-182.15
11
191.4
21
-182.15
0
LINE
8
0
10
191.4
20
-182.15
11
191.4
21
-196.15
0
LINE
8
0
10
191.4
20
-196.15
11
186.4
21
-196.15
0
LINE
8
0
10
186.4
20
-196.15
11
186.4
21
-195.85
0
LINE
8
0
10
186.4
20
-195.85
11
182.4
21
-195.85
0
LINE
8
0
10
182.4
20
-195.85
11
182.4
21
-196.15
0
LINE
8
0
10
182.4
20
-196.15
11
177.4
21
-196.15
0
LINE
8
0
10
196.45
20
-196.15
11
196.45
21
-182.15
0
LINE
8
0
10
196.45
20
-182.15
11
201.45
21
-182.15
0
LINE
8
0
10
201.45
20
-182.15
11
201.45
21
-182.45
0
LINE
8
0
10
201.45
20
-182.45
11
205.45
21
-182.45
0
LINE
8
0
10
205.45
20
-182.45
11
205.45
21
-182.15
0
LINE
8
0
10
205.45
20
-182.15
11
210.45
21
-182.15
0
LINE
8
0
10
210.45
20
-182.15
11
210.45
21
-196.15
0
LINE
8
0
10
210.45
20
-196.15
11
205.45
21
-196.15
0
LINE
8
0
10
205.45
20
-196.15
11
205.45
21
-195.85
0
LINE
8
0
10
205.45
20
-195.85
11
201.45
21
-195.85
0
LINE
8
0
10
201.45
20
-195.85
11
201.45
21
-196.15
0
LINE
8
0
10
201.45
20
-196.15
11
196.45
21
-196.15
0
LINE
8
0
10
215.5
20
-196.15
11
215.5
21
-182.15
0
LINE
8
0
10
215.5
20
-182.15
11
220.5
21
-182.15
0
LINE
8
0
10
220.5
20
-182.15
11
220.5
21
-182.45
0
LINE
8
0
10
220.5
20
-182.45
11
224.5
21
-182.45
0
LINE
8
0
10
224.5
20
-182.45
11
224.5
21
-182.15
0
LINE
8
0
10
224.5
20
-182.15
11
229.5
21
-182.15
0
LINE
8
0
10
229.5
20
-182.15
11
229.5
21
-196.15
0
LINE
8
0
10
229.5
20
-196.15
11
224.5
21
-196.15
0
LINE
8
0
10
224.5
20
-196.15
11
224.5
21
-195.85
0
LINE
8
0
10
224.5
20
-195.85
11
220.5
21
-195.85
0
LINE
8
0
10
220.5
20
-195.85
11
220.5
21
-196.15
0
LINE
8
0
10
220.5
20
-196.15
11
215.5
21
-196.15
0
LINE
8
0
10
234.55
20
-196.15
11
234.55
21
-182.15
0
LINE
8
0
10
234.55
20
-182.15
11
239.55
21
-182.15
0
LINE
8
0
10
239.55
20
-182.15
11
239.55
21
-182.45
0
LINE
8
0
10
239.55
20
-182.45
11
243.55
21
-182.45
0
LINE
8
0
10
243.55
20
-182.45
11
243.55
21
-182.15
0
LINE
8
0
10
243.55
20
-182.15
11
248.55
21
-182.15
0
LINE
8
0
10
248.55
20
-182.15
11
248.55
21
-196.15
0
LINE
8
0
10
248.55
20
-196.15
11
243.55
21
-196.15
0
LINE
8
0
10
243.55
20
-196.15
11
243.55
21
-195.85
0
LINE
8
0
10
243.55
20
-195.85
11
239.55
21
-195.85
0
LINE
8
0
10
239.55
20
-195.85
11
239.55
21
-196.15
0
LINE
8
0
10
239.55
20
-196.15
11
234.55
21
-196.15
0
LINE
8
0
10
270.364
20
-196.15
11
270.364
21
-182.15
0
LINE
8
0
10
270.364
20
-182.15
11
275.364
21
-182.15
0
LINE
8
0
10
275.364
20
-182.15
11
275.364
21
-182.45
0
LINE
8
0
10
275.364
20
-182.45
11
279.364
21
-182.45
0
LINE
8
0
10
279.364
20
-182.45
11
279.364
21
-182.15
0
LINE
8
0
10
279.364
20
-182.15
11
284.364
21
-182.15
0
LINE
8
0
10
284.364
20
-182.15
11
284.364
21
-196.15
0
LINE
8
0
10
284.364
20
-196.15
11
279.364
21
-196.15
0
LINE
8
0
10
279.364
20
-196.15
11
279.364
21
-195.85
0
LINE
8
0
10
279.364
20
-195.85
11
275.364
21
-195.85
0
LINE
8
0
10
275.364
20
-195.85
11
275.364
21
-196.15
0
LINE
8
0
10
275.364
20
-196.15
11
270.364
21
-196.15
0
LINE
8
0
10
148.825
20
-115.1875
11
148.825
21
-101.1875
0
LINE
8
0
10
148.825
20
-101.1875
11
153.825
21
-101.1875
0
LINE
8
0
10
153.825
20
-101.1875
11
153.825
21
-101.4875
0
LINE
8
0
10
153.825
20
-101.4875
11
157.825
21
-101.4875
0
LINE
8
0
10
157.825
20
-101.4875
11
157.825
21
-101.1875
0
LINE
8
0
10
157.825
20
-101.1875
11
162.825
21
-101.1875
0
LINE
8
0
10
162.825
20
-101.1875
11
162.825
21
-115.1875
0
LINE
8
0
10
162.825
20
-115.1875
11
157.825
21
-115.1875
0
LINE
8
0
10
157.825
20
-115.1875
11
157.825
21
-114.8875
0
LINE
8
0
10
157.825
20
-114.8875
11
153.825
21
-114.8875
0
LINE
8
0
10
153.825
20
-114.8875
11
153.825
21
-115.1875
0
LINE
8
0
10
153.825
20
-115.1875
11
148.825
21
-115.1875
0
LINE
8
0
10
167.875
20
-115.1875
11
167.875
21
-101.1875
0
LINE
8
0
10
167.875
20
-101.1875
11
172.875
21
-101.1875
0
LINE
8
0
10
172.875
20
-101.1875
11
172.875
21
-101.4875
0
LINE
8
0
10
172.875
20
-101.4875
11
176.875
21
-101.4875
0
LINE
8
0
10
176.875
20
-101.4875
11
176.875
21
-101.1875
0
LINE
8
0
10
176.875
20
-101.1875
11
181.875
21
-101.1875
0
LINE
8
0
10
181.875
20
-101.1875
11
181.875
21
-115.1875
0
LINE
8
0
10
181.875
20
-115.1875
11
176.875
21
-115.1875
0
LINE
8
0
10
176.875
20
-115.1875
11
176.875
21
-114.8875
0
LINE
8
0
10
176.875
20
-114.8875
11
172.875
21
-114.8875
0
LINE
8
0
10
172.875
20
-114.8875
11
172.875
21
-115.1875
0
LINE
8
0
10
172.875
20
-115.1875
11
167.875
21
-115.1875
0
LINE
8
0
10
186.925
20
-115.1875
11
186.925
21
-101.1875
0
LINE
8
0
10
186.925
20
-101.1875
11
191.925
21
-101.1875
0
LINE
8
0
10
191.925
20
-101.1875
11
191.925
21
-101.4875
0
LINE
8
0
10
191.925
20
-101.4875
11
195.925
21
-101.4875
0
LINE
8
0
10
195.925
20
-101.4875
11
195.925
21
-101.1875
0
LINE
8
0
10
195.925
20
-101.1875
11
200.925
21
-101.1875
0
LINE
8
0
10
200.925
20
-101.1875
11
200.925
21
-115.1875
0
LINE
8
0
10
200.925
20
-115.1875
11
195.925
21
-115.1875
0
LINE
8
0
10
195.925
20
-115.1875
11
195.925
21
-114.8875
0
LINE
8
0
10
195.925
20
-114.8875
11
191.925
21
-114.8875
0
LINE
8
0
10
191.925
20
-114.8875
11
191.925
21
-115.1875
0
LINE
8
0
10
191.925
20
-115.1875
11
186.925
21
-115.1875
0
LINE
8
0
10
205.975
20
-115.1875
11
205.975
21
-101.1875
0
LINE
8
0
10
205.975
20
-101.1875
11
210.975
21
-101.1875
0
LINE
8
0
10
210.975
20
-101.1875
11
210.975
21
-101.4875
0
LINE
8
0
10
210.975
20
-101.4875
11
214.975
21
-101.4875
0
LINE
8
0
10
214.975
20
-101.4875
11
214.975
21
-101.1875
0
LINE
8
0
10
214.975
20
-101.1875
11
219.975
21
-101.1875
0
LINE
8
0
10
219.975
20
-101.1875
11
219.975
21
-115.1875
0
LINE
8
0
10
219.975
20
-115.1875
11
214.975
21
-115.1875
0
LINE
8
0
10
214.975
20
-115.1875
11
214.975
21
-114.8875
0
LINE
8
0
10
214.975
20
-114.8875
11
210.975
21
-114.8875
0
LINE
8
0
10
210.975
20
-114.8875
11
210.975
21
-115.1875
0
LINE
8
0
10
210.975
20
-115.1875
11
205.975
21
-115.1875
0
LINE
8
0
10
229.7875
20
-115.1875
11
229.7875
21
-101.1875
0
LINE
8
0
10
229.7875
20
-101.1875
11
234.7875
21
-101.1875
0
LINE
8
0
10
234.7875
20
-101.1875
11
234.7875
21
-101.4875
0
LINE
8
0
10
234.7875
20
-101.4875
11
238.7875
21
-101.4875
0
LINE
8
0
10
238.7875
20
-101.4875
11
238.7875
21
-101.1875
0
LINE
8
0
10
238.7875
20
-101.1875
11
243.7875
21
-101.1875
0
LINE
8
0
10
243.7875
20
-101.1875
11
243.7875
21
-115.1875
0
LINE
8
0
10
243.7875
20
-115.1875
11
238.7875
21
-115.1875
0
LINE
8
0
10
238.7875
20
-115.1875
11
238.7875
21
-114.8875
0
LINE
8
0
10
238.7875
20
-114.8875
11
234.7875
21
-114.8875
0
LINE
8
0
10
234.7875
20
-114.8875
11
234.7875
21
-115.1875
0
LINE
8
0
10
234.7875
20
-115.1875
11
229.7875
21
-115.1875
0
LINE
8
0
10
248.8375
20
-115.1875
11
248.8375
21
-101.1875
0
LINE
8
0
10
248.8375
20
-101.1875
11
253.8375
21
-101.1875
0
LINE
8
0
10
253.8375
20
-101.1875
11
253.8375
21
-101.4875
0
LINE
8
0
10
253.8375
20
-101.4875
11
257.8375
21
-101.4875
0
LINE
8
0
10
257.8375
20
-101.4875
11
257.8375
21
-101.1875
0
LINE
8
0
10
257.8375
20
-101.1875
11
262.8375
21
-101.1875
0
LINE
8
0
10
262.8375
20
-101.1875
11
262.8375
21
-115.1875
0
LINE
8
0
10
262.8375
20
-115.1875
11
257.8375
21
-115.1875
0
LINE
8
0
10
257.8375
20
-115.1875
11
257.8375
21
-114.8875
0
LINE
8
0
10
257.8375
20
-114.8875
11
253.8375
21
-114.8875
0
LINE
8
0
10
253.8375
20
-114.8875
11
253.8375
21
-115.1875
0
LINE
8
0
10
253.8375
20
-115.1875
11
248.8375
21
-115.1875
0
LINE
8
0
10
267.8875
20
-115.1875
11
267.8875
21
-101.1875
0
LINE
8
0
10
267.8875
20
-101.1875
11
272.8875
21
-101.1875
0
LINE
8
0
10
272.8875
20
-101.1875
11
272.8875
21
-101.4875
0
LINE
8
0
10
272.8875
20
-101.4875
11
276.8875
21
-101.4875
0
LINE
8
0
10
276.8875
20
-101.4875
11
276.8875
21
-101.1875
0
LINE
8
0
10
276.8875
20
-101.1875
11
281.8875
21
-101.1875
0
LINE
8
0
10
281.8875
20
-101.1875
11
281.8875
21
-115.1875
0
LINE
8
0
10
281.8875
20
-115.1875
11
276.8875
21
-115.1875
0
LINE
8
0
10
276.8875
20
-115.1875
11
276.8875
21
-114.8875
0
LINE
8
0
10
276.8875
20
-114.8875
11
272.8875
21
-114.8875
0
LINE
8
0
10
272.8875
20
-114.8875
11
272.8875
21
-115.1875
0
LINE
8
0
10
272.8875
20
-115.1875
11
267.8875
21
-115.1875
0
LINE
8
0
10
286.9375
20
-115.1875
11
286.9375
21
-101.1875
0
LINE
8
0
10
286.9375
20
-101.1875
11
291.9375
21
-101.1875
0
LINE
8
0
10
291.9375
20
-101.1875
11
291.9375
21
-101.4875
0
LINE
8
0
10
291.9375
20
-101.4875
11
295.9375
21
-101.4875
0
LINE
8
0
10
295.9375
20
-101.4875
11
295.9375
21
-101.1875
0
LINE
8
0
10
295.9375
20
-101.1875
11
300.9375
21
-101.1875
0
LINE
8
0
10
300.9375
20
-101.1875
11
300.9375
21
-115.1875
0
LINE
8
0
10
300.9375
20
-115.1875
11
295.9375
21
-115.1875
0
LINE
8
0
10
295.9375
20
-115.1875
11
295.9375
21
-114.8875
0
LINE
8
0
10
295.9375
20
-114.8875
11
291.9375
21
-114.8875
0
LINE
8
0
10
291.9375
20
-114.8875
11
291.9375
21
-115.1875
0
LINE
8
0
10
291.9375
20
-115.1875
11
286.9375
21
-115.1875
0
LINE
8
0
10
310.75
20
-115.1875
11
310.75
21
-101.1875
0
LINE
8
0
10
310.75
20
-101.1875
11
315.75
21
-101.1875
0
LINE
8
0
10
315.75
20
-101.1875
11
315.75
21
-101.4875
0
LINE
8
0
10
315.75
20
-101.4875
11
319.75
21
-101.4875
0
LINE
8
0
10
319.75
20
-101.4875
11
319.75
21
-101.1875
0
LINE
8
0
10
319.75
20
-101.1875
11
324.75
21
-101.1875
0
LINE
8
0
10
324.75
20
-101.1875
11
324.75
21
-115.1875
0
LINE
8
0
10
324.75
20
-115.1875
11
319.75
21
-115.1875
0
LINE
8
0
10
319.75
20
-115.1875
11
319.75
21
-114.8875
0
LINE
8
0
10
319.75
20
-114.8875
11
315.75
21
-114.8875
0
LINE
8
0
10
315.75
20
-114.8875
11
315.75
21
-115.1875
0
LINE
8
0
10
315.75
20
-115.1875
11
310.75
21
-115.1875
0
LINE
8
0
10
329.8
20
-115.1875
11
329.8
21
-101.1875
0
LINE
8
0
10
329.8
20
-101.1875
11
334.8
21
-101.1875
0
LINE
8
0
10
334.8
20
-101.1875
11
334.8
21
-101.4875
0
LINE
8
0
10
334.8
20
-101.4875
11
338.8
21
-101.4875
0
LINE
8
0
10
338.8
20
-101.4875
11
338.8
21
-101.1875
0
LINE
8
0
10
338.8
20
-101.1875
11
343.8
21
-101.1875
0
LINE
8
0
10
343.8
20
-101.1875
11
343.8
21
-115.1875
0
LINE
8
0
10
343.8
20
-115.1875
11
338.8
21
-115.1875
0
LINE
8
0
10
338.8
20
-115.1875
11
338.8
21
-114.8875
0
LINE
8
0
10
338.8
20
-114.8875
11
334.8
21
-114.8875
0
LINE
8
0
10
334.8
20
-114.8875
11
334.8
21
-115.1875
0
LINE
8
0
10
334.8
20
-115.1875
11
329.8
21
-115.1875
0
LINE
8
0
10
348.85
20
-115.1875
11
348.85
21
-101.1875
0
LINE
8
0
10
348.85
20
-101.1875
11
353.85
21
-101.1875
0
LINE
8
0
10
353.85
20
-101.1875
11
353.85
21
-101.4875
0
LINE
8
0
10
353.85
20
-101.4875
11
357.85
21
-101.4875
0
LINE
8
0
10
357.85
20
-101.4875
11
357.85
21
-101.1875
0
LINE
8
0
10
357.85
20
-101.1875
11
362.85
21
-101.1875
0
LINE
8
0
10
362.85
20
-101.1875
11
362.85
21
-115.1875
0
LINE
8
0
10
362.85
20
-115.1875
11
357.85
21
-115.1875
0
LINE
8
0
10
357.85
20
-115.1875
11
357.85
21
-114.8875
0
LINE
8
0
10
357.85
20
-114.8875
11
353.85
21
-114.8875
0
LINE
8
0
10
353.85
20
-114.8875
11
353.85
21
-115.1875
0
LINE
8
0
10
353.85
20
-115.1875
11
348.85
21
-115.1875
0
LINE
8
0
10
158.35
20
-215.2
11
158.35
21
-201.2
0
LINE
8
0
10
158.35
20
-201.2
11
163.35
21
-201.2
0
LINE
8
0
10
163.35
20
-201.2
11
163.35
21
-201.5
0
LINE
8
0
10
163.35
20
-201.5
11
167.35
21
-201.5
0
LINE
8
0
10
167.35
20
-201.5
11
167.35
21
-201.2
0
LINE
8
0
10
167.35
20
-201.2
11
172.35
21
-201.2
0
LINE
8
0
10
172.35
20
-201.2
11
172.35
21
-215.2
0
LINE
8
0
10
172.35
20
-215.2
11
167.35
21
-215.2
0
LINE
8
0
10
167.35
20
-215.2
11
167.35
21
-214.9
0
LINE
8
0
10
167.35
20
-214.9
11
163.35
21
-214.9
0
LINE
8
0
10
163.35
20
-214.9
11
163.35
21
-215.2
0
LINE
8
0
10
163.35
20
-215.2
11
158.35
21
-215.2
0
LINE
8
0
10
213.11875
20
-215.2
11
213.11875
21
-201.2
0
LINE
8
0
10
213.11875
20
-201.2
11
218.11875
21
-201.2
0
LINE
8
0
10
218.11875
20
-201.2
11
218.11875
21
-201.5
0
LINE
8
0
10
218.11875
20
-201.5
11
222.11875
21
-201.5
0
LINE
8
0
10
222.11875
20
-201.5
11
222.11875
21
-201.2
0
LINE
8
0
10
222.11875
20
-201.2
11
227.11875
21
-201.2
0
LINE
8
0
10
227.11875
20
-201.2
11
227.11875
21
-215.2
0
LINE
8
0
10
227.11875
20
-215.2
11
222.11875
21
-215.2
0
LINE
8
0
10
222.11875
20
-215.2
11
222.11875
21
-214.9
0
LINE
8
0
10
222.11875
20
-214.9
11
218.11875
21
-214.9
0
LINE
8
0
10
218.11875
20
-214.9
11
218.11875
21
-215.2
0
LINE
8
0
10
218.11875
20
-215.2
11
213.11875
21
-215.2
0
LINE
8
0
10
236.93125
20
-215.2
11
236.93125
21
-201.2
0
LINE
8
0
10
236.93125
20
-201.2
11
241.93125
21
-201.2
0
LINE
8
0
10
241.93125
20
-201.2
11
241.93125
21
-201.5
0
LINE
8
0
10
241.93125
20
-201.5
11
245.93125
21
-201.5
0
LINE
8
0
10
245.93125
20
-201.5
11
245.93125
21
-201.2
0
LINE
8
0
10
245.93125
20
-201.2
11
250.93125
21
-201.2
0
LINE
8
0
10
250.93125
20
-201.2
11
250.93125
21
-215.2
0
LINE
8
0
10
250.93125
20
-215.2
11
245.93125
21
-215.2
0
LINE
8
0
10
245.93125
20
-215.2
11
245.93125
21
-214.9
0
LINE
8
0
10
245.93125
20
-214.9
11
241.93125
21
-214.9
0
LINE
8
0
10
241.93125
20
-214.9
11
241.93125
21
-215.2
0
LINE
8
0
10
241.93125
20
-215.2
11
236.93125
21
-215.2
0
LINE
8
0
10
260.74375
20
-215.2
11
260.74375
21
-201.2
0
LINE
8
0
10
260.74375
20
-201.2
11
265.74375
21
-201.2
0
LINE
8
0
10
265.74375
20
-201.2
11
265.74375
21
-201.5
0
LINE
8
0
10
265.74375
20
-201.5
11
269.74375
21
-201.5
0
LINE
8
0
10
269.74375
20
-201.5
11
269.74375
21
-201.2
0
LINE
8
0
10
269.74375
20
-201.2
11
274.74375
21
-201.2
0
LINE
8
0
10
274.74375
20
-201.2
11
274.74375
21
-215.2
0
LINE
8
0
10
274.74375
20
-215.2
11
269.74375
21
-215.2
0
LINE
8
0
10
269.74375
20
-215.2
11
269.74375
21
-214.9
0
LINE
8
0
10
269.74375
20
-214.9
11
265.74375
21
-214.9
0
LINE
8
0
10
265.74375
20
-214.9
11
265.74375
21
-215.2
0
LINE
8
0
10
265.74375
20
-215.2
11
260.74375
21
-215.2
0
LINE
8
0
10
284.55625
20
-215.2
11
284.55625
21
-201.2
0
LINE
8
0
10
284.55625
20
-201.2
11
289.55625
21
-201.2
0
LINE
8
0
10
289.55625
20
-201.2
11
289.55625
21
-201.5
0
LINE
8
0
10
289.55625
20
-201.5
11
293.55625
21
-201.5
0
LINE
8
0
10
293.55625
20
-201.5
11
293.55625
21
-201.2
0
LINE
8
0
10
293.55625
20
-201.2
11
298.55625
21
-201.2
0
LINE
8
0
10
298.55625
20
-201.2
11
298.55625
21
-215.2
0
LINE
8
0
10
298.55625
20
-215.2
11
293.55625
21
-215.2
0
LINE
8
0
10
293.55625
20
-215.2
11
293.55625
21
-214.9
0
LINE
8
0
10
293.55625
20
-214.9
11
289.55625
21
-214.9
0
LINE
8
0
10
289.55625
20
-214.9
11
289.55625
21
-215.2
0
LINE
8
0
10
289.55625
20
-215.2
11
284.55625
21
-215.2
0
LINE
8
0
10
310.75
20
-215.2
11
310.75
21
-201.2
0
LINE
8
0
10
310.75
20
-201.2
11
315.75
21
-201.2
0
LINE
8
0
10
315.75
20
-201.2
11
315.75
21
-201.5
0
LINE
8
0
10
315.75
20
-201.5
11
319.75
21
-201.5
0
LINE
8
0
10
319.75
20
-201.5
11
319.75
21
-201.2
0
LINE
8
0
10
319.75
20
-201.2
11
324.75
21
-201.2
0
LINE
8
0
10
324.75
20
-201.2
11
324.75
21
-215.2
0
LINE
8
0
10
324.75
20
-215.2
11
319.75
21
-215.2
0
LINE
8
0
10
319.75
20
-215.2
11
319.75
21
-214.9
0
LINE
8
0
10
319.75
20
-214.9
11
315.75
21
-214.9
0
LINE
8
0
10
315.75
20
-214.9
11
315.75
21
-215.2
0
LINE
8
0
10
315.75
20
-215.2
11
310.75
21
-215.2
0
LINE
8
0
10
310.75
20
-158.05
11
310.75
21
-144.05
0
LINE
8
0
10
310.75
20
-144.05
11
315.75
21
-144.05
0
LINE
8
0
10
315.75
20
-144.05
11
315.75
21
-144.35
0
LINE
8
0
10
315.75
20
-144.35
11
319.75
21
-144.35
0
LINE
8
0
10
319.75
20
-144.35
11
319.75
21
-144.05
0
LINE
8
0
10
319.75
20
-144.05
11
324.75
21
-144.05
0
LINE
8
0
10
324.75
20
-144.05
11
324.75
21
-158.05
0
LINE
8
0
10
324.75
20
-158.05
11
319.75
21
-158.05
0
LINE
8
0
10
319.75
20
-158.05
11
319.75
21
-157.75
0
LINE
8
0
10
319.75
20
-157.75
11
315.75
21
-157.75
0
LINE
8
0
10
315.75
20
-157.75
11
315.75
21
-158.05
0
LINE
8
0
10
315.75
20
-158.05
11
310.75
21
-158.05
0
LINE
8
0
10
310.75
20
-139
11
310.75
21
-125
0
LINE
8
0
10
310.75
20
-125
11
315.75
21
-125
0
LINE
8
0
10
315.75
20
-125
11
315.75
21
-125.3
0
LINE
8
0
10
315.75
20
-125.3
11
319.75
21
-125.3
0
LINE
8
0
10
319.75
20
-125.3
11
319.75
21
-125
0
LINE
8
0
10
319.75
20
-125
11
324.75
21
-125
0
LINE
8
0
10
324.75
20
-125
11
324.75
21
-139
0
LINE
8
0
10
324.75
20
-139
11
319.75
21
-139
0
LINE
8
0
10
319.75
20
-139
11
319.75
21
-138.7
0
LINE
8
0
10
319.75
20
-138.7
11
315.75
21
-138.7
0
LINE
8
0
10
315.75
20
-138.7
11
315.75
21
-139
0
LINE
8
0
10
315.75
20
-139
11
310.75
21
-139
0
LINE
8
0
10
329.8
20
-215.2
11
329.8
21
-201.2
0
LINE
8
0
10
329.8
20
-201.2
11
334.8
21
-201.2
0
LINE
8
0
10
334.8
20
-201.2
11
334.8
21
-201.5
0
LINE
8
0
10
334.8
20
-201.5
11
338.8
21
-201.5
0
LINE
8
0
10
338.8
20
-201.5
11
338.8
21
-201.2
0
LINE
8
0
10
338.8
20
-201.2
11
343.8
21
-201.2
0
LINE
8
0
10
343.8
20
-201.2
11
343.8
21
-215.2
0
LINE
8
0
10
343.8
20
-215.2
11
338.8
21
-215.2
0
LINE
8
0
10
338.8
20
-215.2
11
338.8
21
-214.9
0
LINE
8
0
10
338.8
20
-214.9
11
334.8
21
-214.9
0
LINE
8
0
10
334.8
20
-214.9
11
334.8
21
-215.2
0
LINE
8
0
10
334.8
20
-215.2
11
329.8
21
-215.2
0
LINE
8
0
10
329.8
20
-196.15
11
329.8
21
-182.15
0
LINE
8
0
10
329.8
20
-182.15
11
334.8
21
-182.15
0
LINE
8
0
10
334.8
20
-182.15
11
334.8
21
-182.45
0
LINE
8
0
10
334.8
20
-182.45
11
338.8
21
-182.45
0
LINE
8
0
10
338.8
20
-182.45
11
338.8
21
-182.15
0
LINE
8
0
10
338.8
20
-182.15
11
343.8
21
-182.15
0
LINE
8
0
10
343.8
20
-182.15
11
343.8
21
-196.15
0
LINE
8
0
10
343.8
20
-196.15
11
338.8
21
-196.15
0
LINE
8
0
10
338.8
20
-196.15
11
338.8
21
-195.85
0
LINE
8
0
10
338.8
20
-195.85
11
334.8
21
-195.85
0
LINE
8
0
10
334.8
20
-195.85
11
334.8
21
-196.15
0
LINE
8
0
10
334.8
20
-196.15
11
329.8
21
-196.15
0
LINE
8
0
10
329.8
20
-158.05
11
329.8
21
-144.05
0
LINE
8
0
10
329.8
20
-144.05
11
334.8
21
-144.05
0
LINE
8
0
10
334.8
20
-144.05
11
334.8
21
-144.35
0
LINE
8
0
10
334.8
20
-144.35
11
338.8
21
-144.35
0
LINE
8
0
10
338.8
20
-144.35
11
338.8
21
-144.05
0
LINE
8
0
10
338.8
20
-144.05
11
343.8
21
-144.05
0
LINE
8
0
10
343.8
20
-144.05
11
343.8
21
-158.05
0
LINE
8
0
10
343.8
20
-158.05
11
338.8
21
-158.05
0
LINE
8
0
10
338.8
20
-158.05
11
338.8
21
-157.75
0
LINE
8
0
10
338.8
20
-157.75
11
334.8
21
-157.75
0
LINE
8
0
10
334.8
20
-157.75
11
334.8
21
-158.05
0
LINE
8
0
10
334.8
20
-158.05
11
329.8
21
-158.05
0
LINE
8
0
10
329.8
20
-139
11
329.8
21
-125
0
LINE
8
0
10
329.8
20
-125
11
334.8
21
-125
0
LINE
8
0
10
334.8
20
-125
11
334.8
21
-125.3
0
LINE
8
0
10
334.8
20
-125.3
11
338.8
21
-125.3
0
LINE
8
0
10
338.8
20
-125.3
11
338.8
21
-125
0
LINE
8
0
10
338.8
20
-125
11
343.8
21
-125
0
LINE
8
0
10
343.8
20
-125
11
343.8
21
-139
0
LINE
8
0
10
343.8
20
-139
11
338.8
21
-139
0
LINE
8
0
10
338.8
20
-139
11
338.8
21
-138.7
0
LINE
8
0
10
338.8
20
-138.7
11
334.8
21
-138.7
0
LINE
8
0
10
334.8
20
-138.7
11
334.8
21
-139
0
LINE
8
0
10
334.8
20
-139
11
329.8
21
-139
0
LINE
8
0
10
348.85
20
-215.2
11
348.85
21
-201.2
0
LINE
8
0
10
348.85
20
-201.2
11
353.85
21
-201.2
0
LINE
8
0
10
353.85
20
-201.2
11
353.85
21
-201.5
0
LINE
8
0
10
353.85
20
-201.5
11
357.85
21
-201.5
0
LINE
8
0
10
357.85
20
-201.5
11
357.85
21
-201.2
0
LINE
8
0
10
357.85
20
-201.2
11
362.85
21
-201.2
0
LINE
8
0
10
362.85
20
-201.2
11
362.85
21
-215.2
0
LINE
8
0
10
362.85
20
-215.2
11
357.85
21
-215.2
0
LINE
8
0
10
357.85
20
-215.2
11
357.85
21
-214.9
0
LINE
8
0
10
357.85
20
-214.9
11
353.85
21
-214.9
0
LINE
8
0
10
353.85
20
-214.9
11
353.85
21
-215.2
0
LINE
8
0
10
353.85
20
-215.2
11
348.85
21
-215.2
0
LINE
8
0
10
348.85
20
-158.05
11
348.85
21
-144.05
0
LINE
8
0
10
348.85
20
-144.05
11
353.85
21
-144.05
0
LINE
8
0
10
353.85
20
-144.05
11
353.85
21
-144.35
0
LINE
8
0
10
353.85
20
-144.35
11
357.85
21
-144.35
0
LINE
8
0
10
357.85
20
-144.35
11
357.85
21
-144.05
0
LINE
8
0
10
357.85
20
-144.05
11
362.85
21
-144.05
0
LINE
8
0
10
362.85
20
-144.05
11
362.85
21
-158.05
0
LINE
8
0
10
362.85
20
-158.05
11
357.85
21
-158.05
0
LINE
8
0
10
357.85
20
-158.05
11
357.85
21
-157.75
0
LINE
8
0
10
357.85
20
-157.75
11
353.85
21
-157.75
0
LINE
8
0
10
353.85
20
-157.75
11
353.85
21
-158.05
0
LINE
8
0
10
353.85
20
-158.05
11
348.85
21
-158.05
0
LINE
8
0
10
348.85
20
-139
11
348.85
21
-125
0
LINE
8
0
10
348.85
20
-125
11
353.85
21
-125
0
LINE
8
0
10
353.85
20
-125
11
353.85
21
-125.3
0
LINE
8
0
10
353.85
20
-125.3
11
357.85
21
-125.3
0
LINE
8
0
10
357.85
20
-125.3
11
357.85
21
-125
0
LINE
8
0
10
357.85
20
-125
11
362.85
21
-125
0
LINE
8
0
10
362.85
20
-125
11
362.85
21
-139
0
LINE
8
0
10
362.85
20
-139
11
357.85
21
-139
0
LINE
8
0
10
357.85
20
-139
11
357.85
21
-138.7
0
LINE
8
0
10
357.85
20
-138.7
11
353.85
21
-138.7
0
LINE
8
0
10
353.85
20
-138.7
11
353.85
21
-139
0
LINE
8
0
10
353.85
20
-139
11
348.85
21
-139
0
ENDSEC
0
EOF