0
SECTION
2
HEADER
9
$INSUNITS
70
4
0
ENDSEC
0
SECTION
2
TABLES
0
TABLE
2
LTYPE
0
LTYPE
72
65
70
64
2
CONTINUOUS
3
______
73
0
40
0
0
ENDTAB
0
TABLE
2
LAYER
0
ENDTAB
0
ENDSEC
0
SECTION
2
ENTITIES
0
LINE
8
0
10
141.825
20
-108.1875
11
155.825
21
-108.1875
0
LINE
8
0
10
155.825
20
-108.1875
11
155.825
21
-94.1875
0
LINE
8
0
10
155.825
20
-94.1875
11
141.825
21
-94.1875
0
LINE
8
0
10
141.825
20
-94.1875
11
141.825
21
-108.1875
0
LINE
8
0
10
160.875
20
-108.1875
11
174.875
21
-108.1875
0
LINE
8
0
10
174.875
20
-108.1875
11
174.875
21
-94.1875
0
LINE
8
0
10
174.875
20
-94.1875
11
160.875
21
-94.1875
0
LINE
8
0
10
160.875
20
-94.1875
11
160.875
21
-108.1875
0
LINE
8
0
10
179.925
20
-108.1875
11
193.925
21
-108.1875
0
LINE
8
0
10
193.925
20
-108.1875
11
193.925
21
-94.1875
0
LINE
8
0
10
193.925
20
-94.1875
11
179.925
21
-94.1875
0
LINE
8
0
10
179.925
20
-94.1875
11
179.925
21
-108.1875
0
LINE
8
0
10
198.975
20
-108.1875
11
212.975
21
-108.1875
0
LINE
8
0
10
212.975
20
-108.1875
11
212.975
21
-94.1875
0
LINE
8
0
10
212.975
20
-94.1875
11
198.975
21
-94.1875
0
LINE
8
0
10
198.975
20
-94.1875
11
198.975
21
-108.1875
0
LINE
8
0
10
222.7875
20
-108.1875
11
236.7875
21
-108.1875
0
LINE
8
0
10
236.7875
20
-108.1875
11
236.7875
21
-94.1875
0
LINE
8
0
10
236.7875
20
-94.1875
11
222.7875
21
-94.1875
0
LINE
8
0
10
222.7875
20
-94.1875
11
222.7875
21
-108.1875
0
LINE
8
0
10
241.8375
20
-108.1875
11
255.8375
21
-108.1875
0
LINE
8
0
10
255.8375
20
-108.1875
11
255.8375
21
-94.1875
0
LINE
8
0
10
255.8375
20
-94.1875
11
241.8375
21
-94.1875
0
LINE
8
0
10
241.8375
20
-94.1875
11
241.8375
21
-108.1875
0
LINE
8
0
10
260.8875
20
-108.1875
11
274.8875
21
-108.1875
0
LINE
8
0
10
274.8875
20
-108.1875
11
274.8875
21
-94.1875
0
LINE
8
0
10
274.8875
20
-94.1875
11
260.8875
21
-94.1875
0
LINE
8
0
10
260.8875
20
-94.1875
11
260.8875
21
-108.1875
0
LINE
8
0
10
279.9375
20
-108.1875
11
293.9375
21
-108.1875
0
LINE
8
0
10
293.9375
20
-108.1875
11
293.9375
21
-94.1875
0
LINE
8
0
10
293.9375
20
-94.1875
11
279.9375
21
-94.1875
0
LINE
8
0
10
279.9375
20
-94.1875
11
279.9375
21
-108.1875
0
LINE
8
0
10
303.75
20
-108.1875
11
317.75
21
-108.1875
0
LINE
8
0
10
317.75
20
-108.1875
11
317.75
21
-94.1875
0
LINE
8
0
10
317.75
20
-94.1875
11
303.75
21
-94.1875
0
LINE
8
0
10
303.75
20
-94.1875
11
303.75
21
-108.1875
0
LINE
8
0
10
322.8
20
-108.1875
11
336.8
21
-108.1875
0
LINE
8
0
10
336.8
20
-108.1875
11
336.8
21
-94.1875
0
LINE
8
0
10
336.8
20
-94.1875
11
322.8
21
-94.1875
0
LINE
8
0
10
322.8
20
-94.1875
11
322.8
21
-108.1875
0
LINE
8
0
10
341.85
20
-108.1875
11
355.85
21
-108.1875
0
LINE
8
0
10
355.85
20
-108.1875
11
355.85
21
-94.1875
0
LINE
8
0
10
355.85
20
-94.1875
11
341.85
21
-94.1875
0
LINE
8
0
10
341.85
20
-94.1875
11
341.85
21
-108.1875
0
LINE
8
0
10
127.5375
20
-118
11
127.5375
21
-132
0
LINE
8
0
10
127.5375
20
-132
11
141.5375
21
-132
0
LINE
8
0
10
141.5375
20
-132
11
141.5375
21
-118
0
LINE
8
0
10
141.5375
20
-118
11
127.5375
21
-118
0
LINE
8
0
10
146.5875
20
-118
11
146.5875
21
-132
0
LINE
8
0
10
146.5875
20
-132
11
160.5875
21
-132
0
LINE
8
0
10
160.5875
20
-132
11
160.5875
21
-118
0
LINE
8
0
10
160.5875
20
-118
11
146.5875
21
-118
0
LINE
8
0
10
165.6375
20
-118
11
165.6375
21
-132
0
LINE
8
0
10
165.6375
20
-132
11
179.6375
21
-132
0
LINE
8
0
10
179.6375
20
-132
11
179.6375
21
-118
0
LINE
8
0
10
179.6375
20
-118
11
165.6375
21
-118
0
LINE
8
0
10
184.6875
20
-118
11
184.6875
21
-132
0
LINE
8
0
10
184.6875
20
-132
11
198.6875
21
-132
0
LINE
8
0
10
198.6875
20
-132
11
198.6875
21
-118
0
LINE
8
0
10
198.6875
20
-118
11
184.6875
21
-118
0
LINE
8
0
10
203.7375
20
-118
11
203.7375
21
-132
0
LINE
8
0
10
203.7375
20
-132
11
217.7375
21
-132
0
LINE
8
0
10
217.7375
20
-132
11
217.7375
21
-118
0
LINE
8
0
10
217.7375
20
-118
11
203.7375
21
-118
0
LINE
8
0
10
222.7875
20
-118
11
222.7875
21
-132
0
LINE
8
0
10
222.7875
20
-132
11
236.7875
21
-132
0
LINE
8
0
10
236.7875
20
-132
11
236.7875
21
-118
0
LINE
8
0
10
236.7875
20
-118
11
222.7875
21
-118
0
LINE
8
0
10
241.8375
20
-118
11
241.8375
21
-132
0
LINE
8
0
10
241.8375
20
-132
11
255.8375
21
-132
0
LINE
8
0
10
255.8375
20
-132
11
255.8375
21
-118
0
LINE
8
0
10
255.8375
20
-118
11
241.8375
21
-118
0
LINE
8
0
10
270.4125
20
-118
11
270.4125
21
-132
0
LINE
8
0
10
270.4125
20
-132
11
284.4125
21
-132
0
LINE
8
0
10
284.4125
20
-132
11
284.4125
21
-118
0
LINE
8
0
10
284.4125
20
-118
11
270.4125
21
-118
0
LINE
8
0
10
137.0625
20
-137.05
11
137.0625
21
-151.05
0
LINE
8
0
10
137.0625
20
-151.05
11
151.0625
21
-151.05
0
LINE
8
0
10
151.0625
20
-151.05
11
151.0625
21
-137.05
0
LINE
8
0
10
151.0625
20
-137.05
11
137.0625
21
-137.05
0
LINE
8
0
10
156.1125
20
-137.05
11
156.1125
21
-151.05
0
LINE
8
0
10
156.1125
20
-151.05
11
170.1125
21
-151.05
0
LINE
8
0
10
170.1125
20
-151.05
11
170.1125
21
-137.05
0
LINE
8
0
10
170.1125
20
-137.05
11
156.1125
21
-137.05
0
LINE
8
0
10
175.1625
20
-137.05
11
175.1625
21
-151.05
0
LINE
8
0
10
175.1625
20
-151.05
11
189.1625
21
-151.05
0
LINE
8
0
10
189.1625
20
-151.05
11
189.1625
21
-137.05
0
LINE
8
0
10
189.1625
20
-137.05
11
175.1625
21
-137.05
0
LINE
8
0
10
194.2125
20
-137.05
11
194.2125
21
-151.05
0
LINE
8
0
10
194.2125
20
-151.05
11
208.2125
21
-151.05
0
LINE
8
0
10
208.2125
20
-151.05
11
208.2125
21
-137.05
0
LINE
8
0
10
208.2125
20
-137.05
11
194.2125
21
-137.05
0
LINE
8
0
10
213.2625
20
-137.05
11
213.2625
21
-151.05
0
LINE
8
0
10
213.2625
20
-151.05
11
227.2625
21
-151.05
0
LINE
8
0
10
227.2625
20
-151.05
11
227.2625
21
-137.05
0
LINE
8
0
10
227.2625
20
-137.05
11
213.2625
21
-137.05
0
LINE
8
0
10
232.3125
20
-137.05
11
232.3125
21
-151.05
0
LINE
8
0
10
232.3125
20
-151.05
11
246.3125
21
-151.05
0
LINE
8
0
10
246.3125
20
-151.05
11
246.3125
21
-137.05
0
LINE
8
0
10
246.3125
20
-137.05
11
232.3125
21
-137.05
0
LINE
8
0
10
251.3625
20
-137.05
11
251.3625
21
-151.05
0
LINE
8
0
10
251.3625
20
-151.05
11
265.3625
21
-151.05
0
LINE
8
0
10
265.3625
20
-151.05
11
265.3625
21
-137.05
0
LINE
8
0
10
265.3625
20
-137.05
11
251.3625
21
-137.05
0
LINE
8
0
10
122.775
20
-156.1
11
122.775
21
-170.1
0
LINE
8
0
10
122.775
20
-170.1
11
136.775
21
-170.1
0
LINE
8
0
10
136.775
20
-170.1
11
136.775
21
-156.1
0
LINE
8
0
10
136.775
20
-156.1
11
122.775
21
-156.1
0
LINE
8
0
10
141.825
20
-156.1
11
141.825
21
-170.1
0
LINE
8
0
10
141.825
20
-170.1
11
155.825
21
-170.1
0
LINE
8
0
10
155.825
20
-170.1
11
155.825
21
-156.1
0
LINE
8
0
10
155.825
20
-156.1
11
141.825
21
-156.1
0
LINE
8
0
10
160.875
20
-156.1
11
160.875
21
-170.1
0
LINE
8
0
10
160.875
20
-170.1
11
174.875
21
-170.1
0
LINE
8
0
10
174.875
20
-170.1
11
174.875
21
-156.1
0
LINE
8
0
10
174.875
20
-156.1
11
160.875
21
-156.1
0
LINE
8
0
10
179.925
20
-156.1
11
179.925
21
-170.1
0
LINE
8
0
10
179.925
20
-170.1
11
193.925
21
-170.1
0
LINE
8
0
10
193.925
20
-170.1
11
193.925
21
-156.1
0
LINE
8
0
10
193.925
20
-156.1
11
179.925
21
-156.1
0
LINE
8
0
10
198.975
20
-156.1
11
198.975
21
-170.1
0
LINE
8
0
10
198.975
20
-170.1
11
212.975
21
-170.1
0
LINE
8
0
10
212.975
20
-170.1
11
212.975
21
-156.1
0
LINE
8
0
10
212.975
20
-156.1
11
198.975
21
-156.1
0
LINE
8
0
10
218.025
20
-156.1
11
218.025
21
-170.1
0
LINE
8
0
10
218.025
20
-170.1
11
232.025
21
-170.1
0
LINE
8
0
10
232.025
20
-170.1
11
232.025
21
-156.1
0
LINE
8
0
10
232.025
20
-156.1
11
218.025
21
-156.1
0
LINE
8
0
10
237.075
20
-156.1
11
237.075
21
-170.1
0
LINE
8
0
10
237.075
20
-170.1
11
251.075
21
-170.1
0
LINE
8
0
10
251.075
20
-170.1
11
251.075
21
-156.1
0
LINE
8
0
10
251.075
20
-156.1
11
237.075
21
-156.1
0
LINE
8
0
10
256.125
20
-156.1
11
256.125
21
-170.1
0
LINE
8
0
10
256.125
20
-170.1
11
270.125
21
-170.1
0
LINE
8
0
10
270.125
20
-170.1
11
270.125
21
-156.1
0
LINE
8
0
10
270.125
20
-156.1
11
256.125
21
-156.1
0
LINE
8
0
10
132.3
20
-175.15
11
132.3
21
-189.15
0
LINE
8
0
10
132.3
20
-189.15
11
146.3
21
-189.15
0
LINE
8
0
10
146.3
20
-189.15
11
146.3
21
-175.15
0
LINE
8
0
10
146.3
20
-175.15
11
132.3
21
-175.15
0
LINE
8
0
10
151.35
20
-175.15
11
151.35
21
-189.15
0
LINE
8
0
10
151.35
20
-189.15
11
165.35
21
-189.15
0
LINE
8
0
10
165.35
20
-189.15
11
165.35
21
-175.15
0
LINE
8
0
10
165.35
20
-175.15
11
151.35
21
-175.15
0
LINE
8
0
10
170.4
20
-175.15
11
170.4
21
-189.15
0
LINE
8
0
10
170.4
20
-189.15
11
184.4
21
-189.15
0
LINE
8
0
10
184.4
20
-189.15
11
184.4
21
-175.15
0
LINE
8
0
10
184.4
20
-175.15
11
170.4
21
-175.15
0
LINE
8
0
10
189.45
20
-175.15
11
189.45
21
-189.15
0
LINE
8
0
10
189.45
20
-189.15
11
203.45
21
-189.15
0
LINE
8
0
10
203.45
20
-189.15
11
203.45
21
-175.15
0
LINE
8
0
10
203.45
20
-175.15
11
189.45
21
-175.15
0
LINE
8
0
10
208.5
20
-175.15
11
208.5
21
-189.15
0
LINE
8
0
10
208.5
20
-189.15
11
222.5
21
-189.15
0
LINE
8
0
10
222.5
20
-189.15
11
222.5
21
-175.15
0
LINE
8
0
10
222.5
20
-175.15
11
208.5
21
-175.15
0
LINE
8
0
10
227.55
20
-175.15
11
227.55
21
-189.15
0
LINE
8
0
10
227.55
20
-189.15
11
241.55
21
-189.15
0
LINE
8
0
10
241.55
20
-189.15
11
241.55
21
-175.15
0
LINE
8
0
10
241.55
20
-175.15
11
227.55
21
-175.15
0
LINE
8
0
10
263.364
20
-175.15
11
263.364
21
-189.15
0
LINE
8
0
10
263.364
20
-189.15
11
277.364
21
-189.15
0
LINE
8
0
10
277.364
20
-189.15
11
277.364
21
-175.15
0
LINE
8
0
10
277.364
20
-175.15
11
263.364
21
-175.15
0
LINE
8
0
10
151.35
20
-208.2
11
165.35
21
-208.2
0
LINE
8
0
10
165.35
20
-208.2
11
165.35
21
-194.2
0
LINE
8
0
10
165.35
20
-194.2
11
151.35
21
-194.2
0
LINE
8
0
10
151.35
20
-194.2
11
151.35
21
-208.2
0
LINE
8
0
10
206.11875
20
-208.2
11
220.11875
21
-208.2
0
LINE
8
0
10
220.11875
20
-208.2
11
220.11875
21
-194.2
0
LINE
8
0
10
220.11875
20
-194.2
11
206.11875
21
-194.2
0
LINE
8
0
10
206.11875
20
-194.2
11
206.11875
21
-208.2
0
LINE
8
0
10
229.93125
20
-208.2
11
243.93125
21
-208.2
0
LINE
8
0
10
243.93125
20
-208.2
11
243.93125
21
-194.2
0
LINE
8
0
10
243.93125
20
-194.2
11
229.93125
21
-194.2
0
LINE
8
0
10
229.93125
20
-194.2
11
229.93125
21
-208.2
0
LINE
8
0
10
253.74375
20
-208.2
11
267.74375
21
-208.2
0
LINE
8
0
10
267.74375
20
-208.2
11
267.74375
21
-194.2
0
LINE
8
0
10
267.74375
20
-194.2
11
253.74375
21
-194.2
0
LINE
8
0
10
253.74375
20
-194.2
11
253.74375
21
-208.2
0
LINE
8
0
10
277.55625
20
-208.2
11
291.55625
21
-208.2
0
LINE
8
0
10
291.55625
20
-208.2
11
291.55625
21
-194.2
0
LINE
8
0
10
291.55625
20
-194.2
11
277.55625
21
-194.2
0
LINE
8
0
10
277.55625
20
-194.2
11
277.55625
21
-208.2
0
LINE
8
0
10
278.985
20
-160.575
11
292.985
21
-160.575
0
LINE
8
0
10
292.985
20
-160.575
11
292.985
21
-146.575
0
LINE
8
0
10
292.985
20
-146.575
11
278.985
21
-146.575
0
LINE
8
0
10
278.985
20
-146.575
11
278.985
21
-160.575
0
LINE
8
0
10
303.75
20
-208.2
11
317.75
21
-208.2
0
LINE
8
0
10
317.75
20
-208.2
11
317.75
21
-194.2
0
LINE
8
0
10
317.75
20
-194.2
11
303.75
21
-194.2
0
LINE
8
0
10
303.75
20
-194.2
11
303.75
21
-208.2
0
LINE
8
0
10
303.75
20
-151.05
11
317.75
21
-151.05
0
LINE
8
0
10
317.75
20
-151.05
11
317.75
21
-137.05
0
LINE
8
0
10
317.75
20
-137.05
11
303.75
21
-137.05
0
LINE
8
0
10
303.75
20
-137.05
11
303.75
21
-151.05
0
LINE
8
0
10
303.75
20
-132
11
317.75
21
-132
0
LINE
8
0
10
317.75
20
-132
11
317.75
21
-118
0
LINE
8
0
10
317.75
20
-118
11
303.75
21
-118
0
LINE
8
0
10
303.75
20
-118
11
303.75
21
-132
0
LINE
8
0
10
322.8
20
-208.2
11
336.8
21
-208.2
0
LINE
8
0
10
336.8
20
-208.2
11
336.8
21
-194.2
0
LINE
8
0
10
336.8
20
-194.2
11
322.8
21
-194.2
0
LINE
8
0
10
322.8
20
-194.2
11
322.8
21
-208.2
0
LINE
8
0
10
322.8
20
-189.15
11
336.8
21
-189.15
0
LINE
8
0
10
336.8
20
-189.15
11
336.8
21
-175.15
0
LINE
8
0
10
336.8
20
-175.15
11
322.8
21
-175.15
0
LINE
8
0
10
322.8
20
-175.15
11
322.8
21
-189.15
0
LINE
8
0
10
322.8
20
-151.05
11
336.8
21
-151.05
0
LINE
8
0
10
336.8
20
-151.05
11
336.8
21
-137.05
0
LINE
8
0
10
336.8
20
-137.05
11
322.8
21
-137.05
0
LINE
8
0
10
322.8
20
-137.05
11
322.8
21
-151.05
0
LINE
8
0
10
322.8
20
-132
11
336.8
21
-132
0
LINE
8
0
10
336.8
20
-132
11
336.8
21
-118
0
LINE
8
0
10
336.8
20
-118
11
322.8
21
-118
0
LINE
8
0
10
322.8
20
-118
11
322.8
21
-132
0
LINE
8
0
10
341.85
20
-208.2
11
355.85
21
-208.2
0
LINE
8
0
10
355.85
20
-208.2
11
355.85
21
-194.2
0
LINE
8
0
10
355.85
20
-194.2
11
341.85
21
-194.2
0
LINE
8
0
10
341.85
20
-194.2
11
341.85
21
-208.2
0
LINE
8
0
10
341.85
20
-151.05
11
355.85
21
-151.05
0
LINE
8
0
10
355.85
20
-151.05
11
355.85
21
-137.05
0
LINE
8
0
10
355.85
20
-137.05
11
341.85
21
-137.05
0
LINE
8
0
10
341.85
20
-137.05
11
341.85
21
-151.05
0
LINE
8
0
10
341.85
20
-132
11
355.85
21
-132
0
LINE
8
0
10
355.85
20
-132
11
355.85
21
-118
0
LINE
8
0
10
355.85
20
-118
11
341.85
21
-118
0
LINE
8
0
10
341.85
20
-118
11
341.85
21
-132
0
ENDSEC
0
EOF