0
SECTION
2
HEADER
9
$INSUNITS
70
4
0
ENDSEC
0
SECTION
2
TABLES
0
TABLE
2
LTYPE
0
LTYPE
72
65
70
64
2
CONTINUOUS
3
______
73
0
40
0
0
ENDTAB
0
TABLE
2
LAYER
0
ENDTAB
0
ENDSEC
0
SECTION
2
ENTITIES
0
LINE
8
0
10
87.9816965
20
-185.1995536
11
87.9998261
21
-63.3563057
0
LINE
8
0
10
88.7908435
20
-61.3268762
11
104.1085347
21
-44.6576241
0
LINE
8
0
10
106.3175172
20
-43.6875
11
212.274061
21
-43.6875
0
LINE
8
0
10
215.2603472
20
-46.4009778
11
216.7366016
21
-61.787291
0
LINE
8
0
10
216.9174194
20
-62.5634765
11
241.7235788
21
-128.0498632
0
LINE
8
0
10
241.9180148
20
-129.1365325
11
241.4700209
21
-185.2239616
0
LINE
8
0
10
238.4701166
20
-188.2
11
90.9816965
21
-188.2
0
ARC
8
0
10
90.9998261
20
-63.3567521
40
3
50
137.419508
51
179.9914744
0
ARC
8
0
10
106.3175172
20
-46.6875
40
3
50
90
51
137.419508
0
ARC
8
0
10
212.274061
20
-46.6875
40
3
50
5.4805246
51
90
0
ARC
8
0
10
219.7228878
20
-61.5007688
40
3
50
185.4805246
51
200.7466217
0
ARC
8
0
10
238.9181105
20
-129.1125709
40
3
50
359.5423623
51
20.7466217
0
ARC
8
0
10
238.4701166
20
-185.2
40
3
50
270
51
359.5423623
0
ARC
8
0
10
90.9816965
20
-185.2
40
3
50
179.9914744
51
270
0
LINE
8
0
10
93
20
-107
11
93
21
-93
0
LINE
8
0
10
93
20
-93
11
98
21
-93
0
LINE
8
0
10
98
20
-93
11
98
21
-93.25
0
LINE
8
0
10
98
20
-93.25
11
102
21
-93.25
0
LINE
8
0
10
102
20
-93.25
11
102
21
-93
0
LINE
8
0
10
102
20
-93
11
107
21
-93
0
LINE
8
0
10
107
20
-93
11
107
21
-107
0
LINE
8
0
10
107
20
-107
11
102
21
-107
0
LINE
8
0
10
102
20
-107
11
102
21
-106.75
0
LINE
8
0
10
102
20
-106.75
11
98
21
-106.75
0
LINE
8
0
10
98
20
-106.75
11
98
21
-107
0
LINE
8
0
10
98
20
-107
11
93
21
-107
0
LINE
8
0
10
112.05
20
-107
11
112.05
21
-93
0
LINE
8
0
10
112.05
20
-93
11
117.05
21
-93
0
LINE
8
0
10
117.05
20
-93
11
117.05
21
-93.25
0
LINE
8
0
10
117.05
20
-93.25
11
121.05
21
-93.25
0
LINE
8
0
10
121.05
20
-93.25
11
121.05
21
-93
0
LINE
8
0
10
121.05
20
-93
11
126.05
21
-93
0
LINE
8
0
10
126.05
20
-93
11
126.05
21
-107
0
LINE
8
0
10
126.05
20
-107
11
121.05
21
-107
0
LINE
8
0
10
121.05
20
-107
11
121.05
21
-106.75
0
LINE
8
0
10
121.05
20
-106.75
11
117.05
21
-106.75
0
LINE
8
0
10
117.05
20
-106.75
11
117.05
21
-107
0
LINE
8
0
10
117.05
20
-107
11
112.05
21
-107
0
LINE
8
0
10
131.1
20
-107
11
131.1
21
-93
0
LINE
8
0
10
131.1
20
-93
11
136.1
21
-93
0
LINE
8
0
10
136.1
20
-93
11
136.1
21
-93.25
0
LINE
8
0
10
136.1
20
-93.25
11
140.1
21
-93.25
0
LINE
8
0
10
140.1
20
-93.25
11
140.1
21
-93
0
LINE
8
0
10
140.1
20
-93
11
145.1
21
-93
0
LINE
8
0
10
145.1
20
-93
11
145.1
21
-107
0
LINE
8
0
10
145.1
20
-107
11
140.1
21
-107
0
LINE
8
0
10
140.1
20
-107
11
140.1
21
-106.75
0
LINE
8
0
10
140.1
20
-106.75
11
136.1
21
-106.75
0
LINE
8
0
10
136.1
20
-106.75
11
136.1
21
-107
0
LINE
8
0
10
136.1
20
-107
11
131.1
21
-107
0
LINE
8
0
10
150.15
20
-107
11
150.15
21
-93
0
LINE
8
0
10
150.15
20
-93
11
155.15
21
-93
0
LINE
8
0
10
155.15
20
-93
11
155.15
21
-93.25
0
LINE
8
0
10
155.15
20
-93.25
11
159.15
21
-93.25
0
LINE
8
0
10
159.15
20
-93.25
11
159.15
21
-93
0
LINE
8
0
10
159.15
20
-93
11
164.15
21
-93
0
LINE
8
0
10
164.15
20
-93
11
164.15
21
-107
0
LINE
8
0
10
164.15
20
-107
11
159.15
21
-107
0
LINE
8
0
10
159.15
20
-107
11
159.15
21
-106.75
0
LINE
8
0
10
159.15
20
-106.75
11
155.15
21
-106.75
0
LINE
8
0
10
155.15
20
-106.75
11
155.15
21
-107
0
LINE
8
0
10
155.15
20
-107
11
150.15
21
-107
0
LINE
8
0
10
169.2
20
-107
11
169.2
21
-93
0
LINE
8
0
10
169.2
20
-93
11
174.2
21
-93
0
LINE
8
0
10
174.2
20
-93
11
174.2
21
-93.25
0
LINE
8
0
10
174.2
20
-93.25
11
178.2
21
-93.25
0
LINE
8
0
10
178.2
20
-93.25
11
178.2
21
-93
0
LINE
8
0
10
178.2
20
-93
11
183.2
21
-93
0
LINE
8
0
10
183.2
20
-93
11
183.2
21
-107
0
LINE
8
0
10
183.2
20
-107
11
178.2
21
-107
0
LINE
8
0
10
178.2
20
-107
11
178.2
21
-106.75
0
LINE
8
0
10
178.2
20
-106.75
11
174.2
21
-106.75
0
LINE
8
0
10
174.2
20
-106.75
11
174.2
21
-107
0
LINE
8
0
10
174.2
20
-107
11
169.2
21
-107
0
LINE
8
0
10
188.25
20
-107
11
188.25
21
-93
0
LINE
8
0
10
188.25
20
-93
11
193.25
21
-93
0
LINE
8
0
10
193.25
20
-93
11
193.25
21
-93.25
0
LINE
8
0
10
193.25
20
-93.25
11
197.25
21
-93.25
0
LINE
8
0
10
197.25
20
-93.25
11
197.25
21
-93
0
LINE
8
0
10
197.25
20
-93
11
202.25
21
-93
0
LINE
8
0
10
202.25
20
-93
11
202.25
21
-107
0
LINE
8
0
10
202.25
20
-107
11
197.25
21
-107
0
LINE
8
0
10
197.25
20
-107
11
197.25
21
-106.75
0
LINE
8
0
10
197.25
20
-106.75
11
193.25
21
-106.75
0
LINE
8
0
10
193.25
20
-106.75
11
193.25
21
-107
0
LINE
8
0
10
193.25
20
-107
11
188.25
21
-107
0
LINE
8
0
10
207.3
20
-107
11
207.3
21
-93
0
LINE
8
0
10
207.3
20
-93
11
212.3
21
-93
0
LINE
8
0
10
212.3
20
-93
11
212.3
21
-93.25
0
LINE
8
0
10
212.3
20
-93.25
11
216.3
21
-93.25
0
LINE
8
0
10
216.3
20
-93.25
11
216.3
21
-93
0
LINE
8
0
10
216.3
20
-93
11
221.3
21
-93
0
LINE
8
0
10
221.3
20
-93
11
221.3
21
-107
0
LINE
8
0
10
221.3
20
-107
11
216.3
21
-107
0
LINE
8
0
10
216.3
20
-107
11
216.3
21
-106.75
0
LINE
8
0
10
216.3
20
-106.75
11
212.3
21
-106.75
0
LINE
8
0
10
212.3
20
-106.75
11
212.3
21
-107
0
LINE
8
0
10
212.3
20
-107
11
207.3
21
-107
0
LINE
8
0
10
97.7625
20
-126.05
11
97.7625
21
-112.05
0
LINE
8
0
10
97.7625
20
-112.05
11
102.7625
21
-112.05
0
LINE
8
0
10
102.7625
20
-112.05
11
102.7625
21
-112.3
0
LINE
8
0
10
102.7625
20
-112.3
11
106.7625
21
-112.3
0
LINE
8
0
10
106.7625
20
-112.3
11
106.7625
21
-112.05
0
LINE
8
0
10
106.7625
20
-112.05
11
111.7625
21
-112.05
0
LINE
8
0
10
111.7625
20
-112.05
11
111.7625
21
-126.05
0
LINE
8
0
10
111.7625
20
-126.05
11
106.7625
21
-126.05
0
LINE
8
0
10
106.7625
20
-126.05
11
106.7625
21
-125.8
0
LINE
8
0
10
106.7625
20
-125.8
11
102.7625
21
-125.8
0
LINE
8
0
10
102.7625
20
-125.8
11
102.7625
21
-126.05
0
LINE
8
0
10
102.7625
20
-126.05
11
97.7625
21
-126.05
0
LINE
8
0
10
121.575
20
-126.05
11
121.575
21
-112.05
0
LINE
8
0
10
121.575
20
-112.05
11
126.575
21
-112.05
0
LINE
8
0
10
126.575
20
-112.05
11
126.575
21
-112.3
0
LINE
8
0
10
126.575
20
-112.3
11
130.575
21
-112.3
0
LINE
8
0
10
130.575
20
-112.3
11
130.575
21
-112.05
0
LINE
8
0
10
130.575
20
-112.05
11
135.575
21
-112.05
0
LINE
8
0
10
135.575
20
-112.05
11
135.575
21
-126.05
0
LINE
8
0
10
135.575
20
-126.05
11
130.575
21
-126.05
0
LINE
8
0
10
130.575
20
-126.05
11
130.575
21
-125.8
0
LINE
8
0
10
130.575
20
-125.8
11
126.575
21
-125.8
0
LINE
8
0
10
126.575
20
-125.8
11
126.575
21
-126.05
0
LINE
8
0
10
126.575
20
-126.05
11
121.575
21
-126.05
0
LINE
8
0
10
140.625
20
-126.05
11
140.625
21
-112.05
0
LINE
8
0
10
140.625
20
-112.05
11
145.625
21
-112.05
0
LINE
8
0
10
145.625
20
-112.05
11
145.625
21
-112.3
0
LINE
8
0
10
145.625
20
-112.3
11
149.625
21
-112.3
0
LINE
8
0
10
149.625
20
-112.3
11
149.625
21
-112.05
0
LINE
8
0
10
149.625
20
-112.05
11
154.625
21
-112.05
0
LINE
8
0
10
154.625
20
-112.05
11
154.625
21
-126.05
0
LINE
8
0
10
154.625
20
-126.05
11
149.625
21
-126.05
0
LINE
8
0
10
149.625
20
-126.05
11
149.625
21
-125.8
0
LINE
8
0
10
149.625
20
-125.8
11
145.625
21
-125.8
0
LINE
8
0
10
145.625
20
-125.8
11
145.625
21
-126.05
0
LINE
8
0
10
145.625
20
-126.05
11
140.625
21
-126.05
0
LINE
8
0
10
159.675
20
-126.05
11
159.675
21
-112.05
0
LINE
8
0
10
159.675
20
-112.05
11
164.675
21
-112.05
0
LINE
8
0
10
164.675
20
-112.05
11
164.675
21
-112.3
0
LINE
8
0
10
164.675
20
-112.3
11
168.675
21
-112.3
0
LINE
8
0
10
168.675
20
-112.3
11
168.675
21
-112.05
0
LINE
8
0
10
168.675
20
-112.05
11
173.675
21
-112.05
0
LINE
8
0
10
173.675
20
-112.05
11
173.675
21
-126.05
0
LINE
8
0
10
173.675
20
-126.05
11
168.675
21
-126.05
0
LINE
8
0
10
168.675
20
-126.05
11
168.675
21
-125.8
0
LINE
8
0
10
168.675
20
-125.8
11
164.675
21
-125.8
0
LINE
8
0
10
164.675
20
-125.8
11
164.675
21
-126.05
0
LINE
8
0
10
164.675
20
-126.05
11
159.675
21
-126.05
0
LINE
8
0
10
178.725
20
-126.05
11
178.725
21
-112.05
0
LINE
8
0
10
178.725
20
-112.05
11
183.725
21
-112.05
0
LINE
8
0
10
183.725
20
-112.05
11
183.725
21
-112.3
0
LINE
8
0
10
183.725
20
-112.3
11
187.725
21
-112.3
0
LINE
8
0
10
187.725
20
-112.3
11
187.725
21
-112.05
0
LINE
8
0
10
187.725
20
-112.05
11
192.725
21
-112.05
0
LINE
8
0
10
192.725
20
-112.05
11
192.725
21
-126.05
0
LINE
8
0
10
192.725
20
-126.05
11
187.725
21
-126.05
0
LINE
8
0
10
187.725
20
-126.05
11
187.725
21
-125.8
0
LINE
8
0
10
187.725
20
-125.8
11
183.725
21
-125.8
0
LINE
8
0
10
183.725
20
-125.8
11
183.725
21
-126.05
0
LINE
8
0
10
183.725
20
-126.05
11
178.725
21
-126.05
0
LINE
8
0
10
197.775
20
-126.05
11
197.775
21
-112.05
0
LINE
8
0
10
197.775
20
-112.05
11
202.775
21
-112.05
0
LINE
8
0
10
202.775
20
-112.05
11
202.775
21
-112.3
0
LINE
8
0
10
202.775
20
-112.3
11
206.775
21
-112.3
0
LINE
8
0
10
206.775
20
-112.3
11
206.775
21
-112.05
0
LINE
8
0
10
206.775
20
-112.05
11
211.775
21
-112.05
0
LINE
8
0
10
211.775
20
-112.05
11
211.775
21
-126.05
0
LINE
8
0
10
211.775
20
-126.05
11
206.775
21
-126.05
0
LINE
8
0
10
206.775
20
-126.05
11
206.775
21
-125.8
0
LINE
8
0
10
206.775
20
-125.8
11
202.775
21
-125.8
0
LINE
8
0
10
202.775
20
-125.8
11
202.775
21
-126.05
0
LINE
8
0
10
202.775
20
-126.05
11
197.775
21
-126.05
0
LINE
8
0
10
216.825
20
-126.05
11
216.825
21
-112.05
0
LINE
8
0
10
216.825
20
-112.05
11
221.825
21
-112.05
0
LINE
8
0
10
221.825
20
-112.05
11
221.825
21
-112.3
0
LINE
8
0
10
221.825
20
-112.3
11
225.825
21
-112.3
0
LINE
8
0
10
225.825
20
-112.3
11
225.825
21
-112.05
0
LINE
8
0
10
225.825
20
-112.05
11
230.825
21
-112.05
0
LINE
8
0
10
230.825
20
-112.05
11
230.825
21
-126.05
0
LINE
8
0
10
230.825
20
-126.05
11
225.825
21
-126.05
0
LINE
8
0
10
225.825
20
-126.05
11
225.825
21
-125.8
0
LINE
8
0
10
225.825
20
-125.8
11
221.825
21
-125.8
0
LINE
8
0
10
221.825
20
-125.8
11
221.825
21
-126.05
0
LINE
8
0
10
221.825
20
-126.05
11
216.825
21
-126.05
0
LINE
8
0
10
126.3375
20
-145.1
11
126.3375
21
-131.1
0
LINE
8
0
10
126.3375
20
-131.1
11
131.3375
21
-131.1
0
LINE
8
0
10
131.3375
20
-131.1
11
131.3375
21
-131.35
0
LINE
8
0
10
131.3375
20
-131.35
11
135.3375
21
-131.35
0
LINE
8
0
10
135.3375
20
-131.35
11
135.3375
21
-131.1
0
LINE
8
0
10
135.3375
20
-131.1
11
140.3375
21
-131.1
0
LINE
8
0
10
140.3375
20
-131.1
11
140.3375
21
-145.1
0
LINE
8
0
10
140.3375
20
-145.1
11
135.3375
21
-145.1
0
LINE
8
0
10
135.3375
20
-145.1
11
135.3375
21
-144.85
0
LINE
8
0
10
135.3375
20
-144.85
11
131.3375
21
-144.85
0
LINE
8
0
10
131.3375
20
-144.85
11
131.3375
21
-145.1
0
LINE
8
0
10
131.3375
20
-145.1
11
126.3375
21
-145.1
0
LINE
8
0
10
145.3875
20
-145.1
11
145.3875
21
-131.1
0
LINE
8
0
10
145.3875
20
-131.1
11
150.3875
21
-131.1
0
LINE
8
0
10
150.3875
20
-131.1
11
150.3875
21
-131.35
0
LINE
8
0
10
150.3875
20
-131.35
11
154.3875
21
-131.35
0
LINE
8
0
10
154.3875
20
-131.35
11
154.3875
21
-131.1
0
LINE
8
0
10
154.3875
20
-131.1
11
159.3875
21
-131.1
0
LINE
8
0
10
159.3875
20
-131.1
11
159.3875
21
-145.1
0
LINE
8
0
10
159.3875
20
-145.1
11
154.3875
21
-145.1
0
LINE
8
0
10
154.3875
20
-145.1
11
154.3875
21
-144.85
0
LINE
8
0
10
154.3875
20
-144.85
11
150.3875
21
-144.85
0
LINE
8
0
10
150.3875
20
-144.85
11
150.3875
21
-145.1
0
LINE
8
0
10
150.3875
20
-145.1
11
145.3875
21
-145.1
0
LINE
8
0
10
164.4375
20
-145.1
11
164.4375
21
-131.1
0
LINE
8
0
10
164.4375
20
-131.1
11
169.4375
21
-131.1
0
LINE
8
0
10
169.4375
20
-131.1
11
169.4375
21
-131.35
0
LINE
8
0
10
169.4375
20
-131.35
11
173.4375
21
-131.35
0
LINE
8
0
10
173.4375
20
-131.35
11
173.4375
21
-131.1
0
LINE
8
0
10
173.4375
20
-131.1
11
178.4375
21
-131.1
0
LINE
8
0
10
178.4375
20
-131.1
11
178.4375
21
-145.1
0
LINE
8
0
10
178.4375
20
-145.1
11
173.4375
21
-145.1
0
LINE
8
0
10
173.4375
20
-145.1
11
173.4375
21
-144.85
0
LINE
8
0
10
173.4375
20
-144.85
11
169.4375
21
-144.85
0
LINE
8
0
10
169.4375
20
-144.85
11
169.4375
21
-145.1
0
LINE
8
0
10
169.4375
20
-145.1
11
164.4375
21
-145.1
0
LINE
8
0
10
183.4875
20
-145.1
11
183.4875
21
-131.1
0
LINE
8
0
10
183.4875
20
-131.1
11
188.4875
21
-131.1
0
LINE
8
0
10
188.4875
20
-131.1
11
188.4875
21
-131.35
0
LINE
8
0
10
188.4875
20
-131.35
11
192.4875
21
-131.35
0
LINE
8
0
10
192.4875
20
-131.35
11
192.4875
21
-131.1
0
LINE
8
0
10
192.4875
20
-131.1
11
197.4875
21
-131.1
0
LINE
8
0
10
197.4875
20
-131.1
11
197.4875
21
-145.1
0
LINE
8
0
10
197.4875
20
-145.1
11
192.4875
21
-145.1
0
LINE
8
0
10
192.4875
20
-145.1
11
192.4875
21
-144.85
0
LINE
8
0
10
192.4875
20
-144.85
11
188.4875
21
-144.85
0
LINE
8
0
10
188.4875
20
-144.85
11
188.4875
21
-145.1
0
LINE
8
0
10
188.4875
20
-145.1
11
183.4875
21
-145.1
0
LINE
8
0
10
202.5375
20
-145.1
11
202.5375
21
-131.1
0
LINE
8
0
10
202.5375
20
-131.1
11
207.5375
21
-131.1
0
LINE
8
0
10
207.5375
20
-131.1
11
207.5375
21
-131.35
0
LINE
8
0
10
207.5375
20
-131.35
11
211.5375
21
-131.35
0
LINE
8
0
10
211.5375
20
-131.35
11
211.5375
21
-131.1
0
LINE
8
0
10
211.5375
20
-131.1
11
216.5375
21
-131.1
0
LINE
8
0
10
216.5375
20
-131.1
11
216.5375
21
-145.1
0
LINE
8
0
10
216.5375
20
-145.1
11
211.5375
21
-145.1
0
LINE
8
0
10
211.5375
20
-145.1
11
211.5375
21
-144.85
0
LINE
8
0
10
211.5375
20
-144.85
11
207.5375
21
-144.85
0
LINE
8
0
10
207.5375
20
-144.85
11
207.5375
21
-145.1
0
LINE
8
0
10
207.5375
20
-145.1
11
202.5375
21
-145.1
0
LINE
8
0
10
221.5875
20
-145.1
11
221.5875
21
-131.1
0
LINE
8
0
10
221.5875
20
-131.1
11
226.5875
21
-131.1
0
LINE
8
0
10
226.5875
20
-131.1
11
226.5875
21
-131.35
0
LINE
8
0
10
226.5875
20
-131.35
11
230.5875
21
-131.35
0
LINE
8
0
10
230.5875
20
-131.35
11
230.5875
21
-131.1
0
LINE
8
0
10
230.5875
20
-131.1
11
235.5875
21
-131.1
0
LINE
8
0
10
235.5875
20
-131.1
11
235.5875
21
-145.1
0
LINE
8
0
10
235.5875
20
-145.1
11
230.5875
21
-145.1
0
LINE
8
0
10
230.5875
20
-145.1
11
230.5875
21
-144.85
0
LINE
8
0
10
230.5875
20
-144.85
11
226.5875
21
-144.85
0
LINE
8
0
10
226.5875
20
-144.85
11
226.5875
21
-145.1
0
LINE
8
0
10
226.5875
20
-145.1
11
221.5875
21
-145.1
0
LINE
8
0
10
95.38125
20
-164.15
11
95.38125
21
-150.15
0
LINE
8
0
10
95.38125
20
-150.15
11
100.38125
21
-150.15
0
LINE
8
0
10
100.38125
20
-150.15
11
100.38125
21
-150.4
0
LINE
8
0
10
100.38125
20
-150.4
11
104.38125
21
-150.4
0
LINE
8
0
10
104.38125
20
-150.4
11
104.38125
21
-150.15
0
LINE
8
0
10
104.38125
20
-150.15
11
109.38125
21
-150.15
0
LINE
8
0
10
109.38125
20
-150.15
11
109.38125
21
-164.15
0
LINE
8
0
10
109.38125
20
-164.15
11
104.38125
21
-164.15
0
LINE
8
0
10
104.38125
20
-164.15
11
104.38125
21
-163.9
0
LINE
8
0
10
104.38125
20
-163.9
11
100.38125
21
-163.9
0
LINE
8
0
10
100.38125
20
-163.9
11
100.38125
21
-164.15
0
LINE
8
0
10
100.38125
20
-164.15
11
95.38125
21
-164.15
0
LINE
8
0
10
116.8125
20
-164.15
11
116.8125
21
-150.15
0
LINE
8
0
10
116.8125
20
-150.15
11
121.8125
21
-150.15
0
LINE
8
0
10
121.8125
20
-150.15
11
121.8125
21
-150.4
0
LINE
8
0
10
121.8125
20
-150.4
11
125.8125
21
-150.4
0
LINE
8
0
10
125.8125
20
-150.4
11
125.8125
21
-150.15
0
LINE
8
0
10
125.8125
20
-150.15
11
130.8125
21
-150.15
0
LINE
8
0
10
130.8125
20
-150.15
11
130.8125
21
-164.15
0
LINE
8
0
10
130.8125
20
-164.15
11
125.8125
21
-164.15
0
LINE
8
0
10
125.8125
20
-164.15
11
125.8125
21
-163.9
0
LINE
8
0
10
125.8125
20
-163.9
11
121.8125
21
-163.9
0
LINE
8
0
10
121.8125
20
-163.9
11
121.8125
21
-164.15
0
LINE
8
0
10
121.8125
20
-164.15
11
116.8125
21
-164.15
0
LINE
8
0
10
135.8625
20
-164.15
11
135.8625
21
-150.15
0
LINE
8
0
10
135.8625
20
-150.15
11
140.8625
21
-150.15
0
LINE
8
0
10
140.8625
20
-150.15
11
140.8625
21
-150.4
0
LINE
8
0
10
140.8625
20
-150.4
11
144.8625
21
-150.4
0
LINE
8
0
10
144.8625
20
-150.4
11
144.8625
21
-150.15
0
LINE
8
0
10
144.8625
20
-150.15
11
149.8625
21
-150.15
0
LINE
8
0
10
149.8625
20
-150.15
11
149.8625
21
-164.15
0
LINE
8
0
10
149.8625
20
-164.15
11
144.8625
21
-164.15
0
LINE
8
0
10
144.8625
20
-164.15
11
144.8625
21
-163.9
0
LINE
8
0
10
144.8625
20
-163.9
11
140.8625
21
-163.9
0
LINE
8
0
10
140.8625
20
-163.9
11
140.8625
21
-164.15
0
LINE
8
0
10
140.8625
20
-164.15
11
135.8625
21
-164.15
0
LINE
8
0
10
154.9125
20
-164.15
11
154.9125
21
-150.15
0
LINE
8
0
10
154.9125
20
-150.15
11
159.9125
21
-150.15
0
LINE
8
0
10
159.9125
20
-150.15
11
159.9125
21
-150.4
0
LINE
8
0
10
159.9125
20
-150.4
11
163.9125
21
-150.4
0
LINE
8
0
10
163.9125
20
-150.4
11
163.9125
21
-150.15
0
LINE
8
0
10
163.9125
20
-150.15
11
168.9125
21
-150.15
0
LINE
8
0
10
168.9125
20
-150.15
11
168.9125
21
-164.15
0
LINE
8
0
10
168.9125
20
-164.15
11
163.9125
21
-164.15
0
LINE
8
0
10
163.9125
20
-164.15
11
163.9125
21
-163.9
0
LINE
8
0
10
163.9125
20
-163.9
11
159.9125
21
-163.9
0
LINE
8
0
10
159.9125
20
-163.9
11
159.9125
21
-164.15
0
LINE
8
0
10
159.9125
20
-164.15
11
154.9125
21
-164.15
0
LINE
8
0
10
173.9625
20
-164.15
11
173.9625
21
-150.15
0
LINE
8
0
10
173.9625
20
-150.15
11
178.9625
21
-150.15
0
LINE
8
0
10
178.9625
20
-150.15
11
178.9625
21
-150.4
0
LINE
8
0
10
178.9625
20
-150.4
11
182.9625
21
-150.4
0
LINE
8
0
10
182.9625
20
-150.4
11
182.9625
21
-150.15
0
LINE
8
0
10
182.9625
20
-150.15
11
187.9625
21
-150.15
0
LINE
8
0
10
187.9625
20
-150.15
11
187.9625
21
-164.15
0
LINE
8
0
10
187.9625
20
-164.15
11
182.9625
21
-164.15
0
LINE
8
0
10
182.9625
20
-164.15
11
182.9625
21
-163.9
0
LINE
8
0
10
182.9625
20
-163.9
11
178.9625
21
-163.9
0
LINE
8
0
10
178.9625
20
-163.9
11
178.9625
21
-164.15
0
LINE
8
0
10
178.9625
20
-164.15
11
173.9625
21
-164.15
0
LINE
8
0
10
193.0125
20
-164.15
11
193.0125
21
-150.15
0
LINE
8
0
10
193.0125
20
-150.15
11
198.0125
21
-150.15
0
LINE
8
0
10
198.0125
20
-150.15
11
198.0125
21
-150.4
0
LINE
8
0
10
198.0125
20
-150.4
11
202.0125
21
-150.4
0
LINE
8
0
10
202.0125
20
-150.4
11
202.0125
21
-150.15
0
LINE
8
0
10
202.0125
20
-150.15
11
207.0125
21
-150.15
0
LINE
8
0
10
207.0125
20
-150.15
11
207.0125
21
-164.15
0
LINE
8
0
10
207.0125
20
-164.15
11
202.0125
21
-164.15
0
LINE
8
0
10
202.0125
20
-164.15
11
202.0125
21
-163.9
0
LINE
8
0
10
202.0125
20
-163.9
11
198.0125
21
-163.9
0
LINE
8
0
10
198.0125
20
-163.9
11
198.0125
21
-164.15
0
LINE
8
0
10
198.0125
20
-164.15
11
193.0125
21
-164.15
0
LINE
8
0
10
212.0625
20
-164.15
11
212.0625
21
-150.15
0
LINE
8
0
10
212.0625
20
-150.15
11
217.0625
21
-150.15
0
LINE
8
0
10
217.0625
20
-150.15
11
217.0625
21
-150.4
0
LINE
8
0
10
217.0625
20
-150.4
11
221.0625
21
-150.4
0
LINE
8
0
10
221.0625
20
-150.4
11
221.0625
21
-150.15
0
LINE
8
0
10
221.0625
20
-150.15
11
226.0625
21
-150.15
0
LINE
8
0
10
226.0625
20
-150.15
11
226.0625
21
-164.15
0
LINE
8
0
10
226.0625
20
-164.15
11
221.0625
21
-164.15
0
LINE
8
0
10
221.0625
20
-164.15
11
221.0625
21
-163.9
0
LINE
8
0
10
221.0625
20
-163.9
11
217.0625
21
-163.9
0
LINE
8
0
10
217.0625
20
-163.9
11
217.0625
21
-164.15
0
LINE
8
0
10
217.0625
20
-164.15
11
212.0625
21
-164.15
0
LINE
8
0
10
93
20
-83.1875
11
93
21
-69.1875
0
LINE
8
0
10
93
20
-69.1875
11
98
21
-69.1875
0
LINE
8
0
10
98
20
-69.1875
11
98
21
-69.4375
0
LINE
8
0
10
98
20
-69.4375
11
102
21
-69.4375
0
LINE
8
0
10
102
20
-69.4375
11
102
21
-69.1875
0
LINE
8
0
10
102
20
-69.1875
11
107
21
-69.1875
0
LINE
8
0
10
107
20
-69.1875
11
107
21
-83.1875
0
LINE
8
0
10
107
20
-83.1875
11
102
21
-83.1875
0
LINE
8
0
10
102
20
-83.1875
11
102
21
-82.9375
0
LINE
8
0
10
102
20
-82.9375
11
98
21
-82.9375
0
LINE
8
0
10
98
20
-82.9375
11
98
21
-83.1875
0
LINE
8
0
10
98
20
-83.1875
11
93
21
-83.1875
0
LINE
8
0
10
116.8125
20
-83.1875
11
116.8125
21
-69.1875
0
LINE
8
0
10
116.8125
20
-69.1875
11
121.8125
21
-69.1875
0
LINE
8
0
10
121.8125
20
-69.1875
11
121.8125
21
-69.4375
0
LINE
8
0
10
121.8125
20
-69.4375
11
125.8125
21
-69.4375
0
LINE
8
0
10
125.8125
20
-69.4375
11
125.8125
21
-69.1875
0
LINE
8
0
10
125.8125
20
-69.1875
11
130.8125
21
-69.1875
0
LINE
8
0
10
130.8125
20
-69.1875
11
130.8125
21
-83.1875
0
LINE
8
0
10
130.8125
20
-83.1875
11
125.8125
21
-83.1875
0
LINE
8
0
10
125.8125
20
-83.1875
11
125.8125
21
-82.9375
0
LINE
8
0
10
125.8125
20
-82.9375
11
121.8125
21
-82.9375
0
LINE
8
0
10
121.8125
20
-82.9375
11
121.8125
21
-83.1875
0
LINE
8
0
10
121.8125
20
-83.1875
11
116.8125
21
-83.1875
0
LINE
8
0
10
135.8625
20
-83.1875
11
135.8625
21
-69.1875
0
LINE
8
0
10
135.8625
20
-69.1875
11
140.8625
21
-69.1875
0
LINE
8
0
10
140.8625
20
-69.1875
11
140.8625
21
-69.4375
0
LINE
8
0
10
140.8625
20
-69.4375
11
144.8625
21
-69.4375
0
LINE
8
0
10
144.8625
20
-69.4375
11
144.8625
21
-69.1875
0
LINE
8
0
10
144.8625
20
-69.1875
11
149.8625
21
-69.1875
0
LINE
8
0
10
149.8625
20
-69.1875
11
149.8625
21
-83.1875
0
LINE
8
0
10
149.8625
20
-83.1875
11
144.8625
21
-83.1875
0
LINE
8
0
10
144.8625
20
-83.1875
11
144.8625
21
-82.9375
0
LINE
8
0
10
144.8625
20
-82.9375
11
140.8625
21
-82.9375
0
LINE
8
0
10
140.8625
20
-82.9375
11
140.8625
21
-83.1875
0
LINE
8
0
10
140.8625
20
-83.1875
11
135.8625
21
-83.1875
0
LINE
8
0
10
154.9125
20
-83.1875
11
154.9125
21
-69.1875
0
LINE
8
0
10
154.9125
20
-69.1875
11
159.9125
21
-69.1875
0
LINE
8
0
10
159.9125
20
-69.1875
11
159.9125
21
-69.4375
0
LINE
8
0
10
159.9125
20
-69.4375
11
163.9125
21
-69.4375
0
LINE
8
0
10
163.9125
20
-69.4375
11
163.9125
21
-69.1875
0
LINE
8
0
10
163.9125
20
-69.1875
11
168.9125
21
-69.1875
0
LINE
8
0
10
168.9125
20
-69.1875
11
168.9125
21
-83.1875
0
LINE
8
0
10
168.9125
20
-83.1875
11
163.9125
21
-83.1875
0
LINE
8
0
10
163.9125
20
-83.1875
11
163.9125
21
-82.9375
0
LINE
8
0
10
163.9125
20
-82.9375
11
159.9125
21
-82.9375
0
LINE
8
0
10
159.9125
20
-82.9375
11
159.9125
21
-83.1875
0
LINE
8
0
10
159.9125
20
-83.1875
11
154.9125
21
-83.1875
0
LINE
8
0
10
173.9625
20
-83.1875
11
173.9625
21
-69.1875
0
LINE
8
0
10
173.9625
20
-69.1875
11
178.9625
21
-69.1875
0
LINE
8
0
10
178.9625
20
-69.1875
11
178.9625
21
-69.4375
0
LINE
8
0
10
178.9625
20
-69.4375
11
182.9625
21
-69.4375
0
LINE
8
0
10
182.9625
20
-69.4375
11
182.9625
21
-69.1875
0
LINE
8
0
10
182.9625
20
-69.1875
11
187.9625
21
-69.1875
0
LINE
8
0
10
187.9625
20
-69.1875
11
187.9625
21
-83.1875
0
LINE
8
0
10
187.9625
20
-83.1875
11
182.9625
21
-83.1875
0
LINE
8
0
10
182.9625
20
-83.1875
11
182.9625
21
-82.9375
0
LINE
8
0
10
182.9625
20
-82.9375
11
178.9625
21
-82.9375
0
LINE
8
0
10
178.9625
20
-82.9375
11
178.9625
21
-83.1875
0
LINE
8
0
10
178.9625
20
-83.1875
11
173.9625
21
-83.1875
0
LINE
8
0
10
197.775
20
-83.1875
11
197.775
21
-69.1875
0
LINE
8
0
10
197.775
20
-69.1875
11
202.775
21
-69.1875
0
LINE
8
0
10
202.775
20
-69.1875
11
202.775
21
-69.4375
0
LINE
8
0
10
202.775
20
-69.4375
11
206.775
21
-69.4375
0
LINE
8
0
10
206.775
20
-69.4375
11
206.775
21
-69.1875
0
LINE
8
0
10
206.775
20
-69.1875
11
211.775
21
-69.1875
0
LINE
8
0
10
211.775
20
-69.1875
11
211.775
21
-83.1875
0
LINE
8
0
10
211.775
20
-83.1875
11
206.775
21
-83.1875
0
LINE
8
0
10
206.775
20
-83.1875
11
206.775
21
-82.9375
0
LINE
8
0
10
206.775
20
-82.9375
11
202.775
21
-82.9375
0
LINE
8
0
10
202.775
20
-82.9375
11
202.775
21
-83.1875
0
LINE
8
0
10
202.775
20
-83.1875
11
197.775
21
-83.1875
0
LINE
8
0
10
95.38125
20
-183.2
11
95.38125
21
-169.2
0
LINE
8
0
10
95.38125
20
-169.2
11
100.38125
21
-169.2
0
LINE
8
0
10
100.38125
20
-169.2
11
100.38125
21
-169.45
0
LINE
8
0
10
100.38125
20
-169.45
11
104.38125
21
-169.45
0
LINE
8
0
10
104.38125
20
-169.45
11
104.38125
21
-169.2
0
LINE
8
0
10
104.38125
20
-169.2
11
109.38125
21
-169.2
0
LINE
8
0
10
109.38125
20
-169.2
11
109.38125
21
-183.2
0
LINE
8
0
10
109.38125
20
-183.2
11
104.38125
21
-183.2
0
LINE
8
0
10
104.38125
20
-183.2
11
104.38125
21
-182.95
0
LINE
8
0
10
104.38125
20
-182.95
11
100.38125
21
-182.95
0
LINE
8
0
10
100.38125
20
-182.95
11
100.38125
21
-183.2
0
LINE
8
0
10
100.38125
20
-183.2
11
95.38125
21
-183.2
0
LINE
8
0
10
119.19375
20
-183.2
11
119.19375
21
-169.2
0
LINE
8
0
10
119.19375
20
-169.2
11
124.19375
21
-169.2
0
LINE
8
0
10
124.19375
20
-169.2
11
124.19375
21
-169.45
0
LINE
8
0
10
124.19375
20
-169.45
11
128.19375
21
-169.45
0
LINE
8
0
10
128.19375
20
-169.45
11
128.19375
21
-169.2
0
LINE
8
0
10
128.19375
20
-169.2
11
133.19375
21
-169.2
0
LINE
8
0
10
133.19375
20
-169.2
11
133.19375
21
-183.2
0
LINE
8
0
10
133.19375
20
-183.2
11
128.19375
21
-183.2
0
LINE
8
0
10
128.19375
20
-183.2
11
128.19375
21
-182.95
0
LINE
8
0
10
128.19375
20
-182.95
11
124.19375
21
-182.95
0
LINE
8
0
10
124.19375
20
-182.95
11
124.19375
21
-183.2
0
LINE
8
0
10
124.19375
20
-183.2
11
119.19375
21
-183.2
0
LINE
8
0
10
152.53125
20
-183.2
11
152.53125
21
-169.2
0
LINE
8
0
10
152.53125
20
-169.2
11
157.53125
21
-169.2
0
LINE
8
0
10
157.53125
20
-169.2
11
157.53125
21
-169.45
0
LINE
8
0
10
157.53125
20
-169.45
11
161.53125
21
-169.45
0
LINE
8
0
10
161.53125
20
-169.45
11
161.53125
21
-169.2
0
LINE
8
0
10
161.53125
20
-169.2
11
166.53125
21
-169.2
0
LINE
8
0
10
166.53125
20
-169.2
11
166.53125
21
-183.2
0
LINE
8
0
10
166.53125
20
-183.2
11
161.53125
21
-183.2
0
LINE
8
0
10
161.53125
20
-183.2
11
161.53125
21
-182.95
0
LINE
8
0
10
161.53125
20
-182.95
11
157.53125
21
-182.95
0
LINE
8
0
10
157.53125
20
-182.95
11
157.53125
21
-183.2
0
LINE
8
0
10
157.53125
20
-183.2
11
152.53125
21
-183.2
0
LINE
8
0
10
200.15625
20
-183.2
11
200.15625
21
-169.2
0
LINE
8
0
10
200.15625
20
-169.2
11
205.15625
21
-169.2
0
LINE
8
0
10
205.15625
20
-169.2
11
205.15625
21
-169.45
0
LINE
8
0
10
205.15625
20
-169.45
11
209.15625
21
-169.45
0
LINE
8
0
10
209.15625
20
-169.45
11
209.15625
21
-169.2
0
LINE
8
0
10
209.15625
20
-169.2
11
214.15625
21
-169.2
0
LINE
8
0
10
214.15625
20
-169.2
11
214.15625
21
-183.2
0
LINE
8
0
10
214.15625
20
-183.2
11
209.15625
21
-183.2
0
LINE
8
0
10
209.15625
20
-183.2
11
209.15625
21
-182.95
0
LINE
8
0
10
209.15625
20
-182.95
11
205.15625
21
-182.95
0
LINE
8
0
10
205.15625
20
-182.95
11
205.15625
21
-183.2
0
LINE
8
0
10
205.15625
20
-183.2
11
200.15625
21
-183.2
0
CIRCLE
8
0
10
112.5
20
-137.6
40
1.1
0
CIRCLE
8
0
10
142.5
20
-170
40
1.1
0
CIRCLE
8
0
10
182.5
20
-170
40
1.1
0
CIRCLE
8
0
10
225
20
-170
40
1.1
0
CIRCLE
8
0
10
100
20
-88.1
40
1.1
0
CIRCLE
8
0
10
157
20
-88.1
40
1.1
0
CIRCLE
8
0
10
214
20
-88.1
40
1.1
0
CIRCLE
8
0
10
98
20
-60
40
1.1
0
CIRCLE
8
0
10
165
20
-47
40
1.1
0
CIRCLE
8
0
10
210
20
-47
40
1.1
0
LINE
8
0
10
105.5
20
-66.25
11
105.5
21
-45.75
0
LINE
8
0
10
105.5
20
-45.75
11
158.5
21
-45.75
0
LINE
8
0
10
158.5
20
-45.75
11
158.5
21
-66.25
0
LINE
8
0
10
158.5
20
-66.25
11
105.5
21
-66.25
0
LINE
8
0
10
170.5
20
-62.5
11
170.5
21
-53.5
0
LINE
8
0
10
170.5
20
-53.5
11
203.5
21
-53.5
0
LINE
8
0
10
203.5
20
-53.5
11
203.5
21
-62.5
0
LINE
8
0
10
203.5
20
-62.5
11
170.5
21
-62.5
0
ENDSEC
0
EOF