0
SECTION
2
HEADER
9
$INSUNITS
70
4
0
ENDSEC
0
SECTION
2
TABLES
0
TABLE
2
LTYPE
0
LTYPE
72
65
70
64
2
CONTINUOUS
3
______
73
0
40
0
0
ENDTAB
0
TABLE
2
LAYER
0
ENDTAB
0
ENDSEC
0
SECTION
2
ENTITIES
0
LINE
8
0
10
0
20
-34
11
0
21
0
0
LINE
8
0
10
0
20
0
11
30
21
0
0
LINE
8
0
10
30
20
0
11
30
21
-34
0
LINE
8
0
10
30
20
-34
11
0
21
-34
0
LINE
8
0
10
8
20
-24
11
8
21
-10
0
LINE
8
0
10
8
20
-10
11
13
21
-10
0
LINE
8
0
10
13
20
-10
11
13
21
-10.25
0
LINE
8
0
10
13
20
-10.25
11
17
21
-10.25
0
LINE
8
0
10
17
20
-10.25
11
17
21
-10
0
LINE
8
0
10
17
20
-10
11
22
21
-10
0
LINE
8
0
10
22
20
-10
11
22
21
-24
0
LINE
8
0
10
22
20
-24
11
17
21
-24
0
LINE
8
0
10
17
20
-24
11
17
21
-23.75
0
LINE
8
0
10
17
20
-23.75
11
13
21
-23.75
0
LINE
8
0
10
13
20
-23.75
11
13
21
-24
0
LINE
8
0
10
13
20
-24
11
8
21
-24
0
ENDSEC
0
EOF