%TF.GenerationSoftware,KiCad,Pcbnew,8.0.9*%
%TF.CreationDate,2025-04-15T00:06:38+01:00*%
%TF.ProjectId,converter,636f6e76-6572-4746-9572-2e6b69636164,v1.0.0*%
%TF.SameCoordinates,Original*%
%TF.FileFunction,Soldermask,Top*%
%TF.FilePolarity,Negative*%
%FSLAX46Y46*%
G04 Gerber Fmt 4.6, Leading zero omitted, Abs format (unit mm)*
G04 Created by KiCad (PCBNEW 8.0.9) date 2025-04-15 00:06:38*
%MOMM*%
%LPD*%
G01*
G04 APERTURE LIST*
%ADD10C,1.852600*%
%ADD11C,2.300000*%
G04 APERTURE END LIST*
D10*
%TO.C,MCU1*%
X8370000Y-11380000D03*
X10910000Y-11380000D03*
X13450000Y-11380000D03*
X15990000Y-11380000D03*
X18530000Y-11380000D03*
X21070000Y-11380000D03*
X23610000Y-11380000D03*
X26150000Y-11380000D03*
X28690000Y-11380000D03*
X31230000Y-11380000D03*
X33770000Y-11380000D03*
X36310000Y-11380000D03*
X38850000Y-11380000D03*
X41390000Y-11380000D03*
X43930000Y-11380000D03*
X46470000Y-11380000D03*
X49010000Y-11380000D03*
X51550000Y-11380000D03*
X54090000Y-11380000D03*
X56630000Y-11380000D03*
X8370000Y-26620000D03*
X10910000Y-26620000D03*
X13450000Y-26620000D03*
X15990000Y-26620000D03*
X18530000Y-26620000D03*
X21070000Y-26620000D03*
X23610000Y-26620000D03*
X26150000Y-26620000D03*
X28690000Y-26620000D03*
X31230000Y-26620000D03*
X33770000Y-26620000D03*
X36310000Y-26620000D03*
X38850000Y-26620000D03*
X41390000Y-26620000D03*
X43930000Y-26620000D03*
X46470000Y-26620000D03*
X49010000Y-26620000D03*
X51550000Y-26620000D03*
X54090000Y-26620000D03*
X56630000Y-26620000D03*
%TD*%
%TO.C,MCU2*%
X8370000Y-3110000D03*
X10910000Y-3110000D03*
X13450000Y-3110000D03*
X15990000Y-3110000D03*
X18530000Y-3110000D03*
X21070000Y-3110000D03*
X23610000Y-3110000D03*
X26150000Y-3110000D03*
X28690000Y-3110000D03*
X31230000Y-3110000D03*
X33770000Y-3110000D03*
X36310000Y-3110000D03*
X38850000Y-3110000D03*
X41390000Y-3110000D03*
X43930000Y-3110000D03*
X46470000Y-3110000D03*
X49010000Y-3110000D03*
X51550000Y-3110000D03*
X54090000Y-3110000D03*
X56630000Y-3110000D03*
X8370000Y-20890000D03*
X10910000Y-20890000D03*
X13450000Y-20890000D03*
X15990000Y-20890000D03*
X18530000Y-20890000D03*
X21070000Y-20890000D03*
X23610000Y-20890000D03*
X26150000Y-20890000D03*
X28690000Y-20890000D03*
X31230000Y-20890000D03*
X33770000Y-20890000D03*
X36310000Y-20890000D03*
X38850000Y-20890000D03*
X41390000Y-20890000D03*
X43930000Y-20890000D03*
X46470000Y-20890000D03*
X49010000Y-20890000D03*
X51550000Y-20890000D03*
X54090000Y-20890000D03*
X56630000Y-20890000D03*
%TD*%
D11*
%TO.C,MH1*%
X2500000Y-2500000D03*
%TD*%
%TO.C,MH2*%
X62500000Y-2500000D03*
%TD*%
%TO.C,MH3*%
X2500000Y-27500000D03*
%TD*%
%TO.C,MH4*%
X62500000Y-27500000D03*
%TD*%
M02*
