%TF.GenerationSoftware,KiCad,Pcbnew,8.0.9*%
%TF.CreationDate,2025-04-15T00:06:38+01:00*%
%TF.ProjectId,converter,636f6e76-6572-4746-9572-2e6b69636164,v1.0.0*%
%TF.SameCoordinates,Original*%
%TF.FileFunction,Copper,L1,Top*%
%TF.FilePolarity,Positive*%
%FSLAX46Y46*%
G04 Gerber Fmt 4.6, Leading zero omitted, Abs format (unit mm)*
G04 Created by KiCad (PCBNEW 8.0.9) date 2025-04-15 00:06:38*
%MOMM*%
%LPD*%
G01*
G04 APERTURE LIST*
%TA.AperFunction,ComponentPad*%
%ADD10C,1.752600*%
%TD*%
%TA.AperFunction,Conductor*%
%ADD11C,0.250000*%
%TD*%
G04 APERTURE END LIST*
D10*
%TO.P,MCU1,t5V*%
%TO.N,t5V*%
X8370000Y-11380000D03*
%TO.P,MCU1,tG*%
%TO.N,tG*%
X10910000Y-11380000D03*
%TO.P,MCU1,t3V3*%
%TO.N,t3V3*%
X13450000Y-11380000D03*
%TO.P,MCU1,B10*%
%TO.N,B10*%
X15990000Y-11380000D03*
%TO.P,MCU1,X2*%
%TO.N,X2*%
X18530000Y-11380000D03*
%TO.P,MCU1,B1*%
%TO.N,B1*%
X21070000Y-11380000D03*
%TO.P,MCU1,B0*%
%TO.N,B0*%
X23610000Y-11380000D03*
%TO.P,MCU1,A7*%
%TO.N,A7*%
X26150000Y-11380000D03*
%TO.P,MCU1,A6*%
%TO.N,A6*%
X28690000Y-11380000D03*
%TO.P,MCU1,A5*%
%TO.N,A5*%
X31230000Y-11380000D03*
%TO.P,MCU1,A4*%
%TO.N,A4*%
X33770000Y-11380000D03*
%TO.P,MCU1,A3*%
%TO.N,A3*%
X36310000Y-11380000D03*
%TO.P,MCU1,A2*%
%TO.N,A2*%
X38850000Y-11380000D03*
%TO.P,MCU1,A1*%
%TO.N,A1*%
X41390000Y-11380000D03*
%TO.P,MCU1,A0*%
%TO.N,A0*%
X43930000Y-11380000D03*
%TO.P,MCU1,X3*%
%TO.N,X3*%
X46470000Y-11380000D03*
%TO.P,MCU1,C15*%
%TO.N,C15*%
X49010000Y-11380000D03*
%TO.P,MCU1,C14*%
%TO.N,C14*%
X51550000Y-11380000D03*
%TO.P,MCU1,C13*%
%TO.N,C13*%
X54090000Y-11380000D03*
%TO.P,MCU1,VBAT*%
%TO.N,VBAT*%
X56630000Y-11380000D03*
%TO.P,MCU1,B12*%
%TO.N,B12*%
X8370000Y-26620000D03*
%TO.P,MCU1,B13*%
%TO.N,B13*%
X10910000Y-26620000D03*
%TO.P,MCU1,B14*%
%TO.N,B14*%
X13450000Y-26620000D03*
%TO.P,MCU1,B15*%
%TO.N,B15*%
X15990000Y-26620000D03*
%TO.P,MCU1,A8*%
%TO.N,A8*%
X18530000Y-26620000D03*
%TO.P,MCU1,A9*%
%TO.N,A9*%
X21070000Y-26620000D03*
%TO.P,MCU1,A10*%
%TO.N,A10*%
X23610000Y-26620000D03*
%TO.P,MCU1,X0*%
%TO.N,X0*%
X26150000Y-26620000D03*
%TO.P,MCU1,X1*%
%TO.N,X1*%
X28690000Y-26620000D03*
%TO.P,MCU1,A15*%
%TO.N,A15*%
X31230000Y-26620000D03*
%TO.P,MCU1,B3*%
%TO.N,B3*%
X33770000Y-26620000D03*
%TO.P,MCU1,B4*%
%TO.N,B4*%
X36310000Y-26620000D03*
%TO.P,MCU1,B5*%
%TO.N,B5*%
X38850000Y-26620000D03*
%TO.P,MCU1,B6*%
%TO.N,B6*%
X41390000Y-26620000D03*
%TO.P,MCU1,B7*%
%TO.N,B7*%
X43930000Y-26620000D03*
%TO.P,MCU1,B8*%
%TO.N,B8*%
X46470000Y-26620000D03*
%TO.P,MCU1,B9*%
%TO.N,B9*%
X49010000Y-26620000D03*
%TO.P,MCU1,b5V*%
%TO.N,b5V*%
X51550000Y-26620000D03*
%TO.P,MCU1,bG*%
%TO.N,bG*%
X54090000Y-26620000D03*
%TO.P,MCU1,b3V3*%
%TO.N,b3V3*%
X56630000Y-26620000D03*
%TD*%
%TO.P,MCU2,Z5*%
%TO.N,Z5*%
X8370000Y-3110000D03*
%TO.P,MCU2,Z6*%
%TO.N,Z6*%
X10910000Y-3110000D03*
%TO.P,MCU2,Z7*%
%TO.N,Z7*%
X13450000Y-3110000D03*
%TO.P,MCU2,Z8*%
%TO.N,Z8*%
X15990000Y-3110000D03*
%TO.P,MCU2,Z9*%
%TO.N,Z9*%
X18530000Y-3110000D03*
%TO.P,MCU2,Z10*%
%TO.N,Z10*%
X21070000Y-3110000D03*
%TO.P,MCU2,GP28*%
%TO.N,GP28*%
X23610000Y-3110000D03*
%TO.P,MCU2,Z11*%
%TO.N,Z11*%
X26150000Y-3110000D03*
%TO.P,MCU2,GP27*%
%TO.N,GP27*%
X28690000Y-3110000D03*
%TO.P,MCU2,GP26*%
%TO.N,A7*%
X31230000Y-3110000D03*
%TO.P,MCU2,Z12*%
%TO.N,Z12*%
X33770000Y-3110000D03*
%TO.P,MCU2,GP22*%
%TO.N,A6*%
X36310000Y-3110000D03*
%TO.P,MCU2,Z13*%
%TO.N,Z13*%
X38850000Y-3110000D03*
%TO.P,MCU2,GP21*%
%TO.N,A5*%
X41390000Y-3110000D03*
%TO.P,MCU2,GP20*%
%TO.N,A4*%
X43930000Y-3110000D03*
%TO.P,MCU2,GP19*%
%TO.N,A3*%
X46470000Y-3110000D03*
%TO.P,MCU2,GP18*%
%TO.N,A2*%
X49010000Y-3110000D03*
%TO.P,MCU2,Z14*%
%TO.N,Z14*%
X51550000Y-3110000D03*
%TO.P,MCU2,GP17*%
%TO.N,A1*%
X54090000Y-3110000D03*
%TO.P,MCU2,GP16*%
%TO.N,A0*%
X56630000Y-3110000D03*
%TO.P,MCU2,GP0*%
%TO.N,B12*%
X8370000Y-20890000D03*
%TO.P,MCU2,GP1*%
%TO.N,B13*%
X10910000Y-20890000D03*
%TO.P,MCU2,Z1*%
%TO.N,Z1*%
X13450000Y-20890000D03*
%TO.P,MCU2,GP2*%
%TO.N,B14*%
X15990000Y-20890000D03*
%TO.P,MCU2,GP3*%
%TO.N,B15*%
X18530000Y-20890000D03*
%TO.P,MCU2,GP4*%
%TO.N,A8*%
X21070000Y-20890000D03*
%TO.P,MCU2,GP5*%
%TO.N,A9*%
X23610000Y-20890000D03*
%TO.P,MCU2,Z2*%
%TO.N,Z2*%
X26150000Y-20890000D03*
%TO.P,MCU2,GP6*%
%TO.N,A10*%
X28690000Y-20890000D03*
%TO.P,MCU2,GP7*%
%TO.N,B4*%
X31230000Y-20890000D03*
%TO.P,MCU2,GP8*%
%TO.N,B5*%
X33770000Y-20890000D03*
%TO.P,MCU2,GP9*%
%TO.N,B6*%
X36310000Y-20890000D03*
%TO.P,MCU2,Z3*%
%TO.N,Z3*%
X38850000Y-20890000D03*
%TO.P,MCU2,GP10*%
%TO.N,B7*%
X41390000Y-20890000D03*
%TO.P,MCU2,GP11*%
%TO.N,B8*%
X43930000Y-20890000D03*
%TO.P,MCU2,GP12*%
%TO.N,B9*%
X46470000Y-20890000D03*
%TO.P,MCU2,GP13*%
%TO.N,C15*%
X49010000Y-20890000D03*
%TO.P,MCU2,Z4*%
%TO.N,Z4*%
X51550000Y-20890000D03*
%TO.P,MCU2,GP14*%
%TO.N,C14*%
X54090000Y-20890000D03*
%TO.P,MCU2,GP15*%
%TO.N,C13*%
X56630000Y-20890000D03*
%TD*%
D11*
%TO.N,A7*%
X31230000Y-6300000D02*
X26150000Y-11380000D01*
X31230000Y-3110000D02*
X31230000Y-6300000D01*
%TO.N,A6*%
X36310000Y-3760000D02*
X36310000Y-3110000D01*
X28690000Y-11380000D02*
X36310000Y-3760000D01*
%TO.N,A5*%
X37500000Y-7000000D02*
X41390000Y-3110000D01*
X35610000Y-7000000D02*
X37500000Y-7000000D01*
X31230000Y-11380000D02*
X35610000Y-7000000D01*
%TO.N,A4*%
X39540000Y-7500000D02*
X43930000Y-3110000D01*
X37650000Y-7500000D02*
X39540000Y-7500000D01*
X33770000Y-11380000D02*
X37650000Y-7500000D01*
%TO.N,A3*%
X41580000Y-8000000D02*
X46470000Y-3110000D01*
X39690000Y-8000000D02*
X41580000Y-8000000D01*
X36310000Y-11380000D02*
X39690000Y-8000000D01*
%TO.N,A2*%
X43620000Y-8500000D02*
X49010000Y-3110000D01*
X41730000Y-8500000D02*
X43620000Y-8500000D01*
X38850000Y-11380000D02*
X41730000Y-8500000D01*
%TO.N,A1*%
X48200000Y-9000000D02*
X54090000Y-3110000D01*
X43770000Y-9000000D02*
X48200000Y-9000000D01*
X41390000Y-11380000D02*
X43770000Y-9000000D01*
%TO.N,A0*%
X50240000Y-9500000D02*
X56630000Y-3110000D01*
X43930000Y-11380000D02*
X45810000Y-9500000D01*
X45810000Y-9500000D02*
X50240000Y-9500000D01*
%TO.N,C15*%
X49010000Y-20890000D02*
X49010000Y-11380000D01*
%TO.N,C14*%
X54090000Y-13920000D02*
X51550000Y-11380000D01*
X54090000Y-20890000D02*
X54090000Y-13920000D01*
%TO.N,C13*%
X56630000Y-13920000D02*
X54090000Y-11380000D01*
X56630000Y-20890000D02*
X56630000Y-13920000D01*
%TO.N,B9*%
X49010000Y-23430000D02*
X46470000Y-20890000D01*
X49010000Y-26620000D02*
X49010000Y-23430000D01*
%TO.N,B8*%
X46470000Y-23430000D02*
X43930000Y-20890000D01*
X46470000Y-26620000D02*
X46470000Y-23430000D01*
%TO.N,B7*%
X43930000Y-23430000D02*
X41390000Y-20890000D01*
X43930000Y-26620000D02*
X43930000Y-23430000D01*
%TO.N,B6*%
X36310000Y-21540000D02*
X36310000Y-20890000D01*
X41390000Y-26620000D02*
X36310000Y-21540000D01*
%TO.N,B5*%
X33770000Y-21540000D02*
X33770000Y-20890000D01*
X38850000Y-26620000D02*
X33770000Y-21540000D01*
%TO.N,B4*%
X31230000Y-21540000D02*
X31230000Y-20890000D01*
X36310000Y-26620000D02*
X31230000Y-21540000D01*
%TO.N,A10*%
X28690000Y-21540000D02*
X28690000Y-20890000D01*
X23610000Y-26620000D02*
X28690000Y-21540000D01*
%TO.N,A9*%
X21070000Y-23430000D02*
X23610000Y-20890000D01*
X21070000Y-26620000D02*
X21070000Y-23430000D01*
%TO.N,A8*%
X18530000Y-23430000D02*
X21070000Y-20890000D01*
X18530000Y-26620000D02*
X18530000Y-23430000D01*
%TO.N,B15*%
X15990000Y-26620000D02*
X15990000Y-23430000D01*
X15990000Y-23430000D02*
X18530000Y-20890000D01*
%TO.N,B14*%
X13450000Y-23430000D02*
X15990000Y-20890000D01*
X13450000Y-26620000D02*
X13450000Y-23430000D01*
%TO.N,B13*%
X10910000Y-26620000D02*
X10910000Y-20890000D01*
%TO.N,B12*%
X8370000Y-26620000D02*
X8370000Y-20890000D01*
%TD*%
M02*
