0
SECTION
2
HEADER
9
$INSUNITS
70
4
0
ENDSEC
0
SECTION
2
TABLES
0
TABLE
2
LTYPE
0
LTYPE
72
65
70
64
2
CONTINUOUS
3
______
73
0
40
0
0
ENDTAB
0
TABLE
2
LAYER
0
ENDTAB
0
ENDSEC
0
SECTION
2
ENTITIES
0
LINE
8
0
10
87.9816965
20
-185.1995536
11
87.9998261
21
-63.3563057
0
LINE
8
0
10
88.7908435
20
-61.3268762
11
104.1085347
21
-44.6576241
0
LINE
8
0
10
106.3175172
20
-43.6875
11
212.274061
21
-43.6875
0
LINE
8
0
10
215.2603472
20
-46.4009778
11
216.7366016
21
-61.787291
0
LINE
8
0
10
216.9174194
20
-62.5634765
11
241.7235788
21
-128.0498632
0
LINE
8
0
10
241.9180148
20
-129.1365325
11
241.4700209
21
-185.2239616
0
LINE
8
0
10
238.4701166
20
-188.2
11
90.9816965
21
-188.2
0
ARC
8
0
10
90.9998261
20
-63.3567521
40
3
50
137.419508
51
179.9914744
0
ARC
8
0
10
106.3175172
20
-46.6875
40
3
50
90
51
137.419508
0
ARC
8
0
10
212.274061
20
-46.6875
40
3
50
5.4805246
51
90
0
ARC
8
0
10
219.7228878
20
-61.5007688
40
3
50
185.4805246
51
200.7466217
0
ARC
8
0
10
238.9181105
20
-129.1125709
40
3
50
359.5423623
51
20.7466217
0
ARC
8
0
10
238.4701166
20
-185.2
40
3
50
270
51
359.5423623
0
ARC
8
0
10
90.9816965
20
-185.2
40
3
50
179.9914744
51
270
0
ENDSEC
0
EOF