0
SECTION
2
HEADER
9
$INSUNITS
70
4
0
ENDSEC
0
SECTION
2
TABLES
0
TABLE
2
LTYPE
0
LTYPE
72
65
70
64
2
CONTINUOUS
3
______
73
0
40
0
0
ENDTAB
0
TABLE
2
LAYER
0
ENDTAB
0
ENDSEC
0
SECTION
2
ENTITIES
0
LINE
8
0
10
87.9816965
20
-185.1995536
11
87.9998261
21
-63.3563057
0
LINE
8
0
10
88.7908435
20
-61.3268762
11
104.1085347
21
-44.6576241
0
LINE
8
0
10
106.3175172
20
-43.6875
11
212.274061
21
-43.6875
0
LINE
8
0
10
215.2603472
20
-46.4009778
11
216.7366016
21
-61.787291
0
LINE
8
0
10
216.9174194
20
-62.5634765
11
241.7235788
21
-128.0498632
0
LINE
8
0
10
241.9180148
20
-129.1365325
11
241.4700209
21
-185.2239616
0
LINE
8
0
10
238.4701166
20
-188.2
11
90.9816965
21
-188.2
0
ARC
8
0
10
90.9998261
20
-63.3567521
40
3
50
137.419508
51
179.9914744
0
ARC
8
0
10
106.3175172
20
-46.6875
40
3
50
90
51
137.419508
0
ARC
8
0
10
212.274061
20
-46.6875
40
3
50
5.4805246
51
90
0
ARC
8
0
10
219.7228878
20
-61.5007688
40
3
50
185.4805246
51
200.7466217
0
ARC
8
0
10
238.9181105
20
-129.1125709
40
3
50
359.5423623
51
20.7466217
0
ARC
8
0
10
238.4701166
20
-185.2
40
3
50
270
51
359.5423623
0
ARC
8
0
10
90.9816965
20
-185.2
40
3
50
179.9914744
51
270
0
LINE
8
0
10
91
20
-85.1875
11
109
21
-85.1875
0
LINE
8
0
10
109
20
-85.1875
11
109
21
-67.1875
0
LINE
8
0
10
109
20
-67.1875
11
91
21
-67.1875
0
LINE
8
0
10
91
20
-67.1875
11
91
21
-85.1875
0
LINE
8
0
10
114.8125
20
-85.1875
11
132.8125
21
-85.1875
0
LINE
8
0
10
132.8125
20
-85.1875
11
132.8125
21
-67.1875
0
LINE
8
0
10
132.8125
20
-67.1875
11
114.8125
21
-67.1875
0
LINE
8
0
10
114.8125
20
-67.1875
11
114.8125
21
-85.1875
0
LINE
8
0
10
133.8625
20
-85.1875
11
151.8625
21
-85.1875
0
LINE
8
0
10
151.8625
20
-85.1875
11
151.8625
21
-67.1875
0
LINE
8
0
10
151.8625
20
-67.1875
11
133.8625
21
-67.1875
0
LINE
8
0
10
133.8625
20
-67.1875
11
133.8625
21
-85.1875
0
LINE
8
0
10
152.9125
20
-85.1875
11
170.9125
21
-85.1875
0
LINE
8
0
10
170.9125
20
-85.1875
11
170.9125
21
-67.1875
0
LINE
8
0
10
170.9125
20
-67.1875
11
152.9125
21
-67.1875
0
LINE
8
0
10
152.9125
20
-67.1875
11
152.9125
21
-85.1875
0
LINE
8
0
10
171.9625
20
-85.1875
11
189.9625
21
-85.1875
0
LINE
8
0
10
189.9625
20
-85.1875
11
189.9625
21
-67.1875
0
LINE
8
0
10
189.9625
20
-67.1875
11
171.9625
21
-67.1875
0
LINE
8
0
10
171.9625
20
-67.1875
11
171.9625
21
-85.1875
0
LINE
8
0
10
195.775
20
-85.1875
11
213.775
21
-85.1875
0
LINE
8
0
10
213.775
20
-85.1875
11
213.775
21
-67.1875
0
LINE
8
0
10
213.775
20
-67.1875
11
195.775
21
-67.1875
0
LINE
8
0
10
195.775
20
-67.1875
11
195.775
21
-85.1875
0
LINE
8
0
10
91
20
-91
11
91
21
-109
0
LINE
8
0
10
91
20
-109
11
109
21
-109
0
LINE
8
0
10
109
20
-109
11
109
21
-91
0
LINE
8
0
10
109
20
-91
11
91
21
-91
0
LINE
8
0
10
110.05
20
-91
11
110.05
21
-109
0
LINE
8
0
10
110.05
20
-109
11
128.05
21
-109
0
LINE
8
0
10
128.05
20
-109
11
128.05
21
-91
0
LINE
8
0
10
128.05
20
-91
11
110.05
21
-91
0
LINE
8
0
10
129.1
20
-91
11
129.1
21
-109
0
LINE
8
0
10
129.1
20
-109
11
147.1
21
-109
0
LINE
8
0
10
147.1
20
-109
11
147.1
21
-91
0
LINE
8
0
10
147.1
20
-91
11
129.1
21
-91
0
LINE
8
0
10
148.15
20
-91
11
148.15
21
-109
0
LINE
8
0
10
148.15
20
-109
11
166.15
21
-109
0
LINE
8
0
10
166.15
20
-109
11
166.15
21
-91
0
LINE
8
0
10
166.15
20
-91
11
148.15
21
-91
0
LINE
8
0
10
167.2
20
-91
11
167.2
21
-109
0
LINE
8
0
10
167.2
20
-109
11
185.2
21
-109
0
LINE
8
0
10
185.2
20
-109
11
185.2
21
-91
0
LINE
8
0
10
185.2
20
-91
11
167.2
21
-91
0
LINE
8
0
10
186.25
20
-91
11
186.25
21
-109
0
LINE
8
0
10
186.25
20
-109
11
204.25
21
-109
0
LINE
8
0
10
204.25
20
-109
11
204.25
21
-91
0
LINE
8
0
10
204.25
20
-91
11
186.25
21
-91
0
LINE
8
0
10
205.3
20
-91
11
205.3
21
-109
0
LINE
8
0
10
205.3
20
-109
11
223.3
21
-109
0
LINE
8
0
10
223.3
20
-109
11
223.3
21
-91
0
LINE
8
0
10
223.3
20
-91
11
205.3
21
-91
0
LINE
8
0
10
95.7625
20
-110.05
11
95.7625
21
-128.05
0
LINE
8
0
10
95.7625
20
-128.05
11
113.7625
21
-128.05
0
LINE
8
0
10
113.7625
20
-128.05
11
113.7625
21
-110.05
0
LINE
8
0
10
113.7625
20
-110.05
11
95.7625
21
-110.05
0
LINE
8
0
10
119.575
20
-110.05
11
119.575
21
-128.05
0
LINE
8
0
10
119.575
20
-128.05
11
137.575
21
-128.05
0
LINE
8
0
10
137.575
20
-128.05
11
137.575
21
-110.05
0
LINE
8
0
10
137.575
20
-110.05
11
119.575
21
-110.05
0
LINE
8
0
10
138.625
20
-110.05
11
138.625
21
-128.05
0
LINE
8
0
10
138.625
20
-128.05
11
156.625
21
-128.05
0
LINE
8
0
10
156.625
20
-128.05
11
156.625
21
-110.05
0
LINE
8
0
10
156.625
20
-110.05
11
138.625
21
-110.05
0
LINE
8
0
10
157.675
20
-110.05
11
157.675
21
-128.05
0
LINE
8
0
10
157.675
20
-128.05
11
175.675
21
-128.05
0
LINE
8
0
10
175.675
20
-128.05
11
175.675
21
-110.05
0
LINE
8
0
10
175.675
20
-110.05
11
157.675
21
-110.05
0
LINE
8
0
10
176.725
20
-110.05
11
176.725
21
-128.05
0
LINE
8
0
10
176.725
20
-128.05
11
194.725
21
-128.05
0
LINE
8
0
10
194.725
20
-128.05
11
194.725
21
-110.05
0
LINE
8
0
10
194.725
20
-110.05
11
176.725
21
-110.05
0
LINE
8
0
10
195.775
20
-110.05
11
195.775
21
-128.05
0
LINE
8
0
10
195.775
20
-128.05
11
213.775
21
-128.05
0
LINE
8
0
10
213.775
20
-128.05
11
213.775
21
-110.05
0
LINE
8
0
10
213.775
20
-110.05
11
195.775
21
-110.05
0
LINE
8
0
10
214.825
20
-110.05
11
214.825
21
-128.05
0
LINE
8
0
10
214.825
20
-128.05
11
232.825
21
-128.05
0
LINE
8
0
10
232.825
20
-128.05
11
232.825
21
-110.05
0
LINE
8
0
10
232.825
20
-110.05
11
214.825
21
-110.05
0
LINE
8
0
10
124.3375
20
-129.1
11
124.3375
21
-147.1
0
LINE
8
0
10
124.3375
20
-147.1
11
142.3375
21
-147.1
0
LINE
8
0
10
142.3375
20
-147.1
11
142.3375
21
-129.1
0
LINE
8
0
10
142.3375
20
-129.1
11
124.3375
21
-129.1
0
LINE
8
0
10
143.3875
20
-129.1
11
143.3875
21
-147.1
0
LINE
8
0
10
143.3875
20
-147.1
11
161.3875
21
-147.1
0
LINE
8
0
10
161.3875
20
-147.1
11
161.3875
21
-129.1
0
LINE
8
0
10
161.3875
20
-129.1
11
143.3875
21
-129.1
0
LINE
8
0
10
162.4375
20
-129.1
11
162.4375
21
-147.1
0
LINE
8
0
10
162.4375
20
-147.1
11
180.4375
21
-147.1
0
LINE
8
0
10
180.4375
20
-147.1
11
180.4375
21
-129.1
0
LINE
8
0
10
180.4375
20
-129.1
11
162.4375
21
-129.1
0
LINE
8
0
10
181.4875
20
-129.1
11
181.4875
21
-147.1
0
LINE
8
0
10
181.4875
20
-147.1
11
199.4875
21
-147.1
0
LINE
8
0
10
199.4875
20
-147.1
11
199.4875
21
-129.1
0
LINE
8
0
10
199.4875
20
-129.1
11
181.4875
21
-129.1
0
LINE
8
0
10
200.5375
20
-129.1
11
200.5375
21
-147.1
0
LINE
8
0
10
200.5375
20
-147.1
11
218.5375
21
-147.1
0
LINE
8
0
10
218.5375
20
-147.1
11
218.5375
21
-129.1
0
LINE
8
0
10
218.5375
20
-129.1
11
200.5375
21
-129.1
0
LINE
8
0
10
219.5875
20
-129.1
11
219.5875
21
-147.1
0
LINE
8
0
10
219.5875
20
-147.1
11
237.5875
21
-147.1
0
LINE
8
0
10
237.5875
20
-147.1
11
237.5875
21
-129.1
0
LINE
8
0
10
237.5875
20
-129.1
11
219.5875
21
-129.1
0
LINE
8
0
10
93.38125
20
-148.15
11
93.38125
21
-166.15
0
LINE
8
0
10
93.38125
20
-166.15
11
111.38125
21
-166.15
0
LINE
8
0
10
111.38125
20
-166.15
11
111.38125
21
-148.15
0
LINE
8
0
10
111.38125
20
-148.15
11
93.38125
21
-148.15
0
LINE
8
0
10
114.8125
20
-148.15
11
114.8125
21
-166.15
0
LINE
8
0
10
114.8125
20
-166.15
11
132.8125
21
-166.15
0
LINE
8
0
10
132.8125
20
-166.15
11
132.8125
21
-148.15
0
LINE
8
0
10
132.8125
20
-148.15
11
114.8125
21
-148.15
0
LINE
8
0
10
133.8625
20
-148.15
11
133.8625
21
-166.15
0
LINE
8
0
10
133.8625
20
-166.15
11
151.8625
21
-166.15
0
LINE
8
0
10
151.8625
20
-166.15
11
151.8625
21
-148.15
0
LINE
8
0
10
151.8625
20
-148.15
11
133.8625
21
-148.15
0
LINE
8
0
10
152.9125
20
-148.15
11
152.9125
21
-166.15
0
LINE
8
0
10
152.9125
20
-166.15
11
170.9125
21
-166.15
0
LINE
8
0
10
170.9125
20
-166.15
11
170.9125
21
-148.15
0
LINE
8
0
10
170.9125
20
-148.15
11
152.9125
21
-148.15
0
LINE
8
0
10
171.9625
20
-148.15
11
171.9625
21
-166.15
0
LINE
8
0
10
171.9625
20
-166.15
11
189.9625
21
-166.15
0
LINE
8
0
10
189.9625
20
-166.15
11
189.9625
21
-148.15
0
LINE
8
0
10
189.9625
20
-148.15
11
171.9625
21
-148.15
0
LINE
8
0
10
191.0125
20
-148.15
11
191.0125
21
-166.15
0
LINE
8
0
10
191.0125
20
-166.15
11
209.0125
21
-166.15
0
LINE
8
0
10
209.0125
20
-166.15
11
209.0125
21
-148.15
0
LINE
8
0
10
209.0125
20
-148.15
11
191.0125
21
-148.15
0
LINE
8
0
10
210.0625
20
-148.15
11
210.0625
21
-166.15
0
LINE
8
0
10
210.0625
20
-166.15
11
228.0625
21
-166.15
0
LINE
8
0
10
228.0625
20
-166.15
11
228.0625
21
-148.15
0
LINE
8
0
10
228.0625
20
-148.15
11
210.0625
21
-148.15
0
LINE
8
0
10
93.38125
20
-185.2
11
111.38125
21
-185.2
0
LINE
8
0
10
111.38125
20
-185.2
11
111.38125
21
-167.2
0
LINE
8
0
10
111.38125
20
-167.2
11
93.38125
21
-167.2
0
LINE
8
0
10
93.38125
20
-167.2
11
93.38125
21
-185.2
0
LINE
8
0
10
117.19375
20
-185.2
11
135.19375
21
-185.2
0
LINE
8
0
10
135.19375
20
-185.2
11
135.19375
21
-167.2
0
LINE
8
0
10
135.19375
20
-167.2
11
117.19375
21
-167.2
0
LINE
8
0
10
117.19375
20
-167.2
11
117.19375
21
-185.2
0
LINE
8
0
10
150.53125
20
-185.2
11
168.53125
21
-185.2
0
LINE
8
0
10
168.53125
20
-185.2
11
168.53125
21
-167.2
0
LINE
8
0
10
168.53125
20
-167.2
11
150.53125
21
-167.2
0
LINE
8
0
10
150.53125
20
-167.2
11
150.53125
21
-185.2
0
LINE
8
0
10
180.15625
20
-185.2
11
234.15625
21
-185.2
0
LINE
8
0
10
180.15625
20
-167.2
11
234.15625
21
-167.2
0
LINE
8
0
10
234.15625
20
-185.2
11
234.15625
21
-167.2
0
LINE
8
0
10
180.15625
20
-167.2
11
180.15625
21
-185.2
0
ENDSEC
0
EOF