0
SECTION
2
HEADER
9
$INSUNITS
70
4
0
ENDSEC
0
SECTION
2
TABLES
0
TABLE
2
LTYPE
0
LTYPE
72
65
70
64
2
CONTINUOUS
3
______
73
0
40
0
0
ENDTAB
0
TABLE
2
LAYER
0
ENDTAB
0
ENDSEC
0
SECTION
2
ENTITIES
0
CIRCLE
8
0
10
112.5
20
-137.6
40
3
0
CIRCLE
8
0
10
142.5
20
-170
40
3
0
CIRCLE
8
0
10
182.5
20
-170
40
3
0
CIRCLE
8
0
10
225
20
-170
40
3
0
CIRCLE
8
0
10
100
20
-88.1
40
3
0
CIRCLE
8
0
10
157
20
-88.1
40
3
0
CIRCLE
8
0
10
214
20
-88.1
40
3
0
CIRCLE
8
0
10
98
20
-60
40
3
0
CIRCLE
8
0
10
165
20
-47
40
3
0
CIRCLE
8
0
10
210
20
-47
40
3
0
ENDSEC
0
EOF