0
SECTION
2
HEADER
9
$INSUNITS
70
4
0
ENDSEC
0
SECTION
2
TABLES
0
TABLE
2
LTYPE
0
LTYPE
72
65
70
64
2
CONTINUOUS
3
______
73
0
40
0
0
ENDTAB
0
TABLE
2
LAYER
0
ENDTAB
0
ENDSEC
0
SECTION
2
ENTITIES
0
LINE
8
0
10
100
20
-114
11
100
21
-100
0
LINE
8
0
10
100
20
-100
11
105
21
-100
0
LINE
8
0
10
105
20
-100
11
105
21
-100.3
0
LINE
8
0
10
105
20
-100.3
11
109
21
-100.3
0
LINE
8
0
10
109
20
-100.3
11
109
21
-100
0
LINE
8
0
10
109
20
-100
11
114
21
-100
0
LINE
8
0
10
114
20
-100
11
114
21
-114
0
LINE
8
0
10
114
20
-114
11
109
21
-114
0
LINE
8
0
10
109
20
-114
11
109
21
-113.7
0
LINE
8
0
10
109
20
-113.7
11
105
21
-113.7
0
LINE
8
0
10
105
20
-113.7
11
105
21
-114
0
LINE
8
0
10
105
20
-114
11
100
21
-114
0
LINE
8
0
10
119.05
20
-114
11
119.05
21
-100
0
LINE
8
0
10
119.05
20
-100
11
124.05
21
-100
0
LINE
8
0
10
124.05
20
-100
11
124.05
21
-100.3
0
LINE
8
0
10
124.05
20
-100.3
11
128.05
21
-100.3
0
LINE
8
0
10
128.05
20
-100.3
11
128.05
21
-100
0
LINE
8
0
10
128.05
20
-100
11
133.05
21
-100
0
LINE
8
0
10
133.05
20
-100
11
133.05
21
-114
0
LINE
8
0
10
133.05
20
-114
11
128.05
21
-114
0
LINE
8
0
10
128.05
20
-114
11
128.05
21
-113.7
0
LINE
8
0
10
128.05
20
-113.7
11
124.05
21
-113.7
0
LINE
8
0
10
124.05
20
-113.7
11
124.05
21
-114
0
LINE
8
0
10
124.05
20
-114
11
119.05
21
-114
0
LINE
8
0
10
138.1
20
-114
11
138.1
21
-100
0
LINE
8
0
10
138.1
20
-100
11
143.1
21
-100
0
LINE
8
0
10
143.1
20
-100
11
143.1
21
-100.3
0
LINE
8
0
10
143.1
20
-100.3
11
147.1
21
-100.3
0
LINE
8
0
10
147.1
20
-100.3
11
147.1
21
-100
0
LINE
8
0
10
147.1
20
-100
11
152.1
21
-100
0
LINE
8
0
10
152.1
20
-100
11
152.1
21
-114
0
LINE
8
0
10
152.1
20
-114
11
147.1
21
-114
0
LINE
8
0
10
147.1
20
-114
11
147.1
21
-113.7
0
LINE
8
0
10
147.1
20
-113.7
11
143.1
21
-113.7
0
LINE
8
0
10
143.1
20
-113.7
11
143.1
21
-114
0
LINE
8
0
10
143.1
20
-114
11
138.1
21
-114
0
LINE
8
0
10
157.15
20
-114
11
157.15
21
-100
0
LINE
8
0
10
157.15
20
-100
11
162.15
21
-100
0
LINE
8
0
10
162.15
20
-100
11
162.15
21
-100.3
0
LINE
8
0
10
162.15
20
-100.3
11
166.15
21
-100.3
0
LINE
8
0
10
166.15
20
-100.3
11
166.15
21
-100
0
LINE
8
0
10
166.15
20
-100
11
171.15
21
-100
0
LINE
8
0
10
171.15
20
-100
11
171.15
21
-114
0
LINE
8
0
10
171.15
20
-114
11
166.15
21
-114
0
LINE
8
0
10
166.15
20
-114
11
166.15
21
-113.7
0
LINE
8
0
10
166.15
20
-113.7
11
162.15
21
-113.7
0
LINE
8
0
10
162.15
20
-113.7
11
162.15
21
-114
0
LINE
8
0
10
162.15
20
-114
11
157.15
21
-114
0
LINE
8
0
10
176.2
20
-114
11
176.2
21
-100
0
LINE
8
0
10
176.2
20
-100
11
181.2
21
-100
0
LINE
8
0
10
181.2
20
-100
11
181.2
21
-100.3
0
LINE
8
0
10
181.2
20
-100.3
11
185.2
21
-100.3
0
LINE
8
0
10
185.2
20
-100.3
11
185.2
21
-100
0
LINE
8
0
10
185.2
20
-100
11
190.2
21
-100
0
LINE
8
0
10
190.2
20
-100
11
190.2
21
-114
0
LINE
8
0
10
190.2
20
-114
11
185.2
21
-114
0
LINE
8
0
10
185.2
20
-114
11
185.2
21
-113.7
0
LINE
8
0
10
185.2
20
-113.7
11
181.2
21
-113.7
0
LINE
8
0
10
181.2
20
-113.7
11
181.2
21
-114
0
LINE
8
0
10
181.2
20
-114
11
176.2
21
-114
0
LINE
8
0
10
195.25
20
-114
11
195.25
21
-100
0
LINE
8
0
10
195.25
20
-100
11
200.25
21
-100
0
LINE
8
0
10
200.25
20
-100
11
200.25
21
-100.3
0
LINE
8
0
10
200.25
20
-100.3
11
204.25
21
-100.3
0
LINE
8
0
10
204.25
20
-100.3
11
204.25
21
-100
0
LINE
8
0
10
204.25
20
-100
11
209.25
21
-100
0
LINE
8
0
10
209.25
20
-100
11
209.25
21
-114
0
LINE
8
0
10
209.25
20
-114
11
204.25
21
-114
0
LINE
8
0
10
204.25
20
-114
11
204.25
21
-113.7
0
LINE
8
0
10
204.25
20
-113.7
11
200.25
21
-113.7
0
LINE
8
0
10
200.25
20
-113.7
11
200.25
21
-114
0
LINE
8
0
10
200.25
20
-114
11
195.25
21
-114
0
LINE
8
0
10
214.3
20
-114
11
214.3
21
-100
0
LINE
8
0
10
214.3
20
-100
11
219.3
21
-100
0
LINE
8
0
10
219.3
20
-100
11
219.3
21
-100.3
0
LINE
8
0
10
219.3
20
-100.3
11
223.3
21
-100.3
0
LINE
8
0
10
223.3
20
-100.3
11
223.3
21
-100
0
LINE
8
0
10
223.3
20
-100
11
228.3
21
-100
0
LINE
8
0
10
228.3
20
-100
11
228.3
21
-114
0
LINE
8
0
10
228.3
20
-114
11
223.3
21
-114
0
LINE
8
0
10
223.3
20
-114
11
223.3
21
-113.7
0
LINE
8
0
10
223.3
20
-113.7
11
219.3
21
-113.7
0
LINE
8
0
10
219.3
20
-113.7
11
219.3
21
-114
0
LINE
8
0
10
219.3
20
-114
11
214.3
21
-114
0
LINE
8
0
10
104.7625
20
-133.05
11
104.7625
21
-119.05
0
LINE
8
0
10
104.7625
20
-119.05
11
109.7625
21
-119.05
0
LINE
8
0
10
109.7625
20
-119.05
11
109.7625
21
-119.35
0
LINE
8
0
10
109.7625
20
-119.35
11
113.7625
21
-119.35
0
LINE
8
0
10
113.7625
20
-119.35
11
113.7625
21
-119.05
0
LINE
8
0
10
113.7625
20
-119.05
11
118.7625
21
-119.05
0
LINE
8
0
10
118.7625
20
-119.05
11
118.7625
21
-133.05
0
LINE
8
0
10
118.7625
20
-133.05
11
113.7625
21
-133.05
0
LINE
8
0
10
113.7625
20
-133.05
11
113.7625
21
-132.75
0
LINE
8
0
10
113.7625
20
-132.75
11
109.7625
21
-132.75
0
LINE
8
0
10
109.7625
20
-132.75
11
109.7625
21
-133.05
0
LINE
8
0
10
109.7625
20
-133.05
11
104.7625
21
-133.05
0
LINE
8
0
10
128.575
20
-133.05
11
128.575
21
-119.05
0
LINE
8
0
10
128.575
20
-119.05
11
133.575
21
-119.05
0
LINE
8
0
10
133.575
20
-119.05
11
133.575
21
-119.35
0
LINE
8
0
10
133.575
20
-119.35
11
137.575
21
-119.35
0
LINE
8
0
10
137.575
20
-119.35
11
137.575
21
-119.05
0
LINE
8
0
10
137.575
20
-119.05
11
142.575
21
-119.05
0
LINE
8
0
10
142.575
20
-119.05
11
142.575
21
-133.05
0
LINE
8
0
10
142.575
20
-133.05
11
137.575
21
-133.05
0
LINE
8
0
10
137.575
20
-133.05
11
137.575
21
-132.75
0
LINE
8
0
10
137.575
20
-132.75
11
133.575
21
-132.75
0
LINE
8
0
10
133.575
20
-132.75
11
133.575
21
-133.05
0
LINE
8
0
10
133.575
20
-133.05
11
128.575
21
-133.05
0
LINE
8
0
10
147.625
20
-133.05
11
147.625
21
-119.05
0
LINE
8
0
10
147.625
20
-119.05
11
152.625
21
-119.05
0
LINE
8
0
10
152.625
20
-119.05
11
152.625
21
-119.35
0
LINE
8
0
10
152.625
20
-119.35
11
156.625
21
-119.35
0
LINE
8
0
10
156.625
20
-119.35
11
156.625
21
-119.05
0
LINE
8
0
10
156.625
20
-119.05
11
161.625
21
-119.05
0
LINE
8
0
10
161.625
20
-119.05
11
161.625
21
-133.05
0
LINE
8
0
10
161.625
20
-133.05
11
156.625
21
-133.05
0
LINE
8
0
10
156.625
20
-133.05
11
156.625
21
-132.75
0
LINE
8
0
10
156.625
20
-132.75
11
152.625
21
-132.75
0
LINE
8
0
10
152.625
20
-132.75
11
152.625
21
-133.05
0
LINE
8
0
10
152.625
20
-133.05
11
147.625
21
-133.05
0
LINE
8
0
10
166.675
20
-133.05
11
166.675
21
-119.05
0
LINE
8
0
10
166.675
20
-119.05
11
171.675
21
-119.05
0
LINE
8
0
10
171.675
20
-119.05
11
171.675
21
-119.35
0
LINE
8
0
10
171.675
20
-119.35
11
175.675
21
-119.35
0
LINE
8
0
10
175.675
20
-119.35
11
175.675
21
-119.05
0
LINE
8
0
10
175.675
20
-119.05
11
180.675
21
-119.05
0
LINE
8
0
10
180.675
20
-119.05
11
180.675
21
-133.05
0
LINE
8
0
10
180.675
20
-133.05
11
175.675
21
-133.05
0
LINE
8
0
10
175.675
20
-133.05
11
175.675
21
-132.75
0
LINE
8
0
10
175.675
20
-132.75
11
171.675
21
-132.75
0
LINE
8
0
10
171.675
20
-132.75
11
171.675
21
-133.05
0
LINE
8
0
10
171.675
20
-133.05
11
166.675
21
-133.05
0
LINE
8
0
10
185.725
20
-133.05
11
185.725
21
-119.05
0
LINE
8
0
10
185.725
20
-119.05
11
190.725
21
-119.05
0
LINE
8
0
10
190.725
20
-119.05
11
190.725
21
-119.35
0
LINE
8
0
10
190.725
20
-119.35
11
194.725
21
-119.35
0
LINE
8
0
10
194.725
20
-119.35
11
194.725
21
-119.05
0
LINE
8
0
10
194.725
20
-119.05
11
199.725
21
-119.05
0
LINE
8
0
10
199.725
20
-119.05
11
199.725
21
-133.05
0
LINE
8
0
10
199.725
20
-133.05
11
194.725
21
-133.05
0
LINE
8
0
10
194.725
20
-133.05
11
194.725
21
-132.75
0
LINE
8
0
10
194.725
20
-132.75
11
190.725
21
-132.75
0
LINE
8
0
10
190.725
20
-132.75
11
190.725
21
-133.05
0
LINE
8
0
10
190.725
20
-133.05
11
185.725
21
-133.05
0
LINE
8
0
10
204.775
20
-133.05
11
204.775
21
-119.05
0
LINE
8
0
10
204.775
20
-119.05
11
209.775
21
-119.05
0
LINE
8
0
10
209.775
20
-119.05
11
209.775
21
-119.35
0
LINE
8
0
10
209.775
20
-119.35
11
213.775
21
-119.35
0
LINE
8
0
10
213.775
20
-119.35
11
213.775
21
-119.05
0
LINE
8
0
10
213.775
20
-119.05
11
218.775
21
-119.05
0
LINE
8
0
10
218.775
20
-119.05
11
218.775
21
-133.05
0
LINE
8
0
10
218.775
20
-133.05
11
213.775
21
-133.05
0
LINE
8
0
10
213.775
20
-133.05
11
213.775
21
-132.75
0
LINE
8
0
10
213.775
20
-132.75
11
209.775
21
-132.75
0
LINE
8
0
10
209.775
20
-132.75
11
209.775
21
-133.05
0
LINE
8
0
10
209.775
20
-133.05
11
204.775
21
-133.05
0
LINE
8
0
10
223.825
20
-133.05
11
223.825
21
-119.05
0
LINE
8
0
10
223.825
20
-119.05
11
228.825
21
-119.05
0
LINE
8
0
10
228.825
20
-119.05
11
228.825
21
-119.35
0
LINE
8
0
10
228.825
20
-119.35
11
232.825
21
-119.35
0
LINE
8
0
10
232.825
20
-119.35
11
232.825
21
-119.05
0
LINE
8
0
10
232.825
20
-119.05
11
237.825
21
-119.05
0
LINE
8
0
10
237.825
20
-119.05
11
237.825
21
-133.05
0
LINE
8
0
10
237.825
20
-133.05
11
232.825
21
-133.05
0
LINE
8
0
10
232.825
20
-133.05
11
232.825
21
-132.75
0
LINE
8
0
10
232.825
20
-132.75
11
228.825
21
-132.75
0
LINE
8
0
10
228.825
20
-132.75
11
228.825
21
-133.05
0
LINE
8
0
10
228.825
20
-133.05
11
223.825
21
-133.05
0
LINE
8
0
10
133.3375
20
-152.1
11
133.3375
21
-138.1
0
LINE
8
0
10
133.3375
20
-138.1
11
138.3375
21
-138.1
0
LINE
8
0
10
138.3375
20
-138.1
11
138.3375
21
-138.4
0
LINE
8
0
10
138.3375
20
-138.4
11
142.3375
21
-138.4
0
LINE
8
0
10
142.3375
20
-138.4
11
142.3375
21
-138.1
0
LINE
8
0
10
142.3375
20
-138.1
11
147.3375
21
-138.1
0
LINE
8
0
10
147.3375
20
-138.1
11
147.3375
21
-152.1
0
LINE
8
0
10
147.3375
20
-152.1
11
142.3375
21
-152.1
0
LINE
8
0
10
142.3375
20
-152.1
11
142.3375
21
-151.8
0
LINE
8
0
10
142.3375
20
-151.8
11
138.3375
21
-151.8
0
LINE
8
0
10
138.3375
20
-151.8
11
138.3375
21
-152.1
0
LINE
8
0
10
138.3375
20
-152.1
11
133.3375
21
-152.1
0
LINE
8
0
10
152.3875
20
-152.1
11
152.3875
21
-138.1
0
LINE
8
0
10
152.3875
20
-138.1
11
157.3875
21
-138.1
0
LINE
8
0
10
157.3875
20
-138.1
11
157.3875
21
-138.4
0
LINE
8
0
10
157.3875
20
-138.4
11
161.3875
21
-138.4
0
LINE
8
0
10
161.3875
20
-138.4
11
161.3875
21
-138.1
0
LINE
8
0
10
161.3875
20
-138.1
11
166.3875
21
-138.1
0
LINE
8
0
10
166.3875
20
-138.1
11
166.3875
21
-152.1
0
LINE
8
0
10
166.3875
20
-152.1
11
161.3875
21
-152.1
0
LINE
8
0
10
161.3875
20
-152.1
11
161.3875
21
-151.8
0
LINE
8
0
10
161.3875
20
-151.8
11
157.3875
21
-151.8
0
LINE
8
0
10
157.3875
20
-151.8
11
157.3875
21
-152.1
0
LINE
8
0
10
157.3875
20
-152.1
11
152.3875
21
-152.1
0
LINE
8
0
10
171.4375
20
-152.1
11
171.4375
21
-138.1
0
LINE
8
0
10
171.4375
20
-138.1
11
176.4375
21
-138.1
0
LINE
8
0
10
176.4375
20
-138.1
11
176.4375
21
-138.4
0
LINE
8
0
10
176.4375
20
-138.4
11
180.4375
21
-138.4
0
LINE
8
0
10
180.4375
20
-138.4
11
180.4375
21
-138.1
0
LINE
8
0
10
180.4375
20
-138.1
11
185.4375
21
-138.1
0
LINE
8
0
10
185.4375
20
-138.1
11
185.4375
21
-152.1
0
LINE
8
0
10
185.4375
20
-152.1
11
180.4375
21
-152.1
0
LINE
8
0
10
180.4375
20
-152.1
11
180.4375
21
-151.8
0
LINE
8
0
10
180.4375
20
-151.8
11
176.4375
21
-151.8
0
LINE
8
0
10
176.4375
20
-151.8
11
176.4375
21
-152.1
0
LINE
8
0
10
176.4375
20
-152.1
11
171.4375
21
-152.1
0
LINE
8
0
10
190.4875
20
-152.1
11
190.4875
21
-138.1
0
LINE
8
0
10
190.4875
20
-138.1
11
195.4875
21
-138.1
0
LINE
8
0
10
195.4875
20
-138.1
11
195.4875
21
-138.4
0
LINE
8
0
10
195.4875
20
-138.4
11
199.4875
21
-138.4
0
LINE
8
0
10
199.4875
20
-138.4
11
199.4875
21
-138.1
0
LINE
8
0
10
199.4875
20
-138.1
11
204.4875
21
-138.1
0
LINE
8
0
10
204.4875
20
-138.1
11
204.4875
21
-152.1
0
LINE
8
0
10
204.4875
20
-152.1
11
199.4875
21
-152.1
0
LINE
8
0
10
199.4875
20
-152.1
11
199.4875
21
-151.8
0
LINE
8
0
10
199.4875
20
-151.8
11
195.4875
21
-151.8
0
LINE
8
0
10
195.4875
20
-151.8
11
195.4875
21
-152.1
0
LINE
8
0
10
195.4875
20
-152.1
11
190.4875
21
-152.1
0
LINE
8
0
10
209.5375
20
-152.1
11
209.5375
21
-138.1
0
LINE
8
0
10
209.5375
20
-138.1
11
214.5375
21
-138.1
0
LINE
8
0
10
214.5375
20
-138.1
11
214.5375
21
-138.4
0
LINE
8
0
10
214.5375
20
-138.4
11
218.5375
21
-138.4
0
LINE
8
0
10
218.5375
20
-138.4
11
218.5375
21
-138.1
0
LINE
8
0
10
218.5375
20
-138.1
11
223.5375
21
-138.1
0
LINE
8
0
10
223.5375
20
-138.1
11
223.5375
21
-152.1
0
LINE
8
0
10
223.5375
20
-152.1
11
218.5375
21
-152.1
0
LINE
8
0
10
218.5375
20
-152.1
11
218.5375
21
-151.8
0
LINE
8
0
10
218.5375
20
-151.8
11
214.5375
21
-151.8
0
LINE
8
0
10
214.5375
20
-151.8
11
214.5375
21
-152.1
0
LINE
8
0
10
214.5375
20
-152.1
11
209.5375
21
-152.1
0
LINE
8
0
10
228.5875
20
-152.1
11
228.5875
21
-138.1
0
LINE
8
0
10
228.5875
20
-138.1
11
233.5875
21
-138.1
0
LINE
8
0
10
233.5875
20
-138.1
11
233.5875
21
-138.4
0
LINE
8
0
10
233.5875
20
-138.4
11
237.5875
21
-138.4
0
LINE
8
0
10
237.5875
20
-138.4
11
237.5875
21
-138.1
0
LINE
8
0
10
237.5875
20
-138.1
11
242.5875
21
-138.1
0
LINE
8
0
10
242.5875
20
-138.1
11
242.5875
21
-152.1
0
LINE
8
0
10
242.5875
20
-152.1
11
237.5875
21
-152.1
0
LINE
8
0
10
237.5875
20
-152.1
11
237.5875
21
-151.8
0
LINE
8
0
10
237.5875
20
-151.8
11
233.5875
21
-151.8
0
LINE
8
0
10
233.5875
20
-151.8
11
233.5875
21
-152.1
0
LINE
8
0
10
233.5875
20
-152.1
11
228.5875
21
-152.1
0
LINE
8
0
10
102.38125
20
-171.15
11
102.38125
21
-157.15
0
LINE
8
0
10
102.38125
20
-157.15
11
107.38125
21
-157.15
0
LINE
8
0
10
107.38125
20
-157.15
11
107.38125
21
-157.45
0
LINE
8
0
10
107.38125
20
-157.45
11
111.38125
21
-157.45
0
LINE
8
0
10
111.38125
20
-157.45
11
111.38125
21
-157.15
0
LINE
8
0
10
111.38125
20
-157.15
11
116.38125
21
-157.15
0
LINE
8
0
10
116.38125
20
-157.15
11
116.38125
21
-171.15
0
LINE
8
0
10
116.38125
20
-171.15
11
111.38125
21
-171.15
0
LINE
8
0
10
111.38125
20
-171.15
11
111.38125
21
-170.85
0
LINE
8
0
10
111.38125
20
-170.85
11
107.38125
21
-170.85
0
LINE
8
0
10
107.38125
20
-170.85
11
107.38125
21
-171.15
0
LINE
8
0
10
107.38125
20
-171.15
11
102.38125
21
-171.15
0
LINE
8
0
10
123.8125
20
-171.15
11
123.8125
21
-157.15
0
LINE
8
0
10
123.8125
20
-157.15
11
128.8125
21
-157.15
0
LINE
8
0
10
128.8125
20
-157.15
11
128.8125
21
-157.45
0
LINE
8
0
10
128.8125
20
-157.45
11
132.8125
21
-157.45
0
LINE
8
0
10
132.8125
20
-157.45
11
132.8125
21
-157.15
0
LINE
8
0
10
132.8125
20
-157.15
11
137.8125
21
-157.15
0
LINE
8
0
10
137.8125
20
-157.15
11
137.8125
21
-171.15
0
LINE
8
0
10
137.8125
20
-171.15
11
132.8125
21
-171.15
0
LINE
8
0
10
132.8125
20
-171.15
11
132.8125
21
-170.85
0
LINE
8
0
10
132.8125
20
-170.85
11
128.8125
21
-170.85
0
LINE
8
0
10
128.8125
20
-170.85
11
128.8125
21
-171.15
0
LINE
8
0
10
128.8125
20
-171.15
11
123.8125
21
-171.15
0
LINE
8
0
10
142.8625
20
-171.15
11
142.8625
21
-157.15
0
LINE
8
0
10
142.8625
20
-157.15
11
147.8625
21
-157.15
0
LINE
8
0
10
147.8625
20
-157.15
11
147.8625
21
-157.45
0
LINE
8
0
10
147.8625
20
-157.45
11
151.8625
21
-157.45
0
LINE
8
0
10
151.8625
20
-157.45
11
151.8625
21
-157.15
0
LINE
8
0
10
151.8625
20
-157.15
11
156.8625
21
-157.15
0
LINE
8
0
10
156.8625
20
-157.15
11
156.8625
21
-171.15
0
LINE
8
0
10
156.8625
20
-171.15
11
151.8625
21
-171.15
0
LINE
8
0
10
151.8625
20
-171.15
11
151.8625
21
-170.85
0
LINE
8
0
10
151.8625
20
-170.85
11
147.8625
21
-170.85
0
LINE
8
0
10
147.8625
20
-170.85
11
147.8625
21
-171.15
0
LINE
8
0
10
147.8625
20
-171.15
11
142.8625
21
-171.15
0
LINE
8
0
10
161.9125
20
-171.15
11
161.9125
21
-157.15
0
LINE
8
0
10
161.9125
20
-157.15
11
166.9125
21
-157.15
0
LINE
8
0
10
166.9125
20
-157.15
11
166.9125
21
-157.45
0
LINE
8
0
10
166.9125
20
-157.45
11
170.9125
21
-157.45
0
LINE
8
0
10
170.9125
20
-157.45
11
170.9125
21
-157.15
0
LINE
8
0
10
170.9125
20
-157.15
11
175.9125
21
-157.15
0
LINE
8
0
10
175.9125
20
-157.15
11
175.9125
21
-171.15
0
LINE
8
0
10
175.9125
20
-171.15
11
170.9125
21
-171.15
0
LINE
8
0
10
170.9125
20
-171.15
11
170.9125
21
-170.85
0
LINE
8
0
10
170.9125
20
-170.85
11
166.9125
21
-170.85
0
LINE
8
0
10
166.9125
20
-170.85
11
166.9125
21
-171.15
0
LINE
8
0
10
166.9125
20
-171.15
11
161.9125
21
-171.15
0
LINE
8
0
10
180.9625
20
-171.15
11
180.9625
21
-157.15
0
LINE
8
0
10
180.9625
20
-157.15
11
185.9625
21
-157.15
0
LINE
8
0
10
185.9625
20
-157.15
11
185.9625
21
-157.45
0
LINE
8
0
10
185.9625
20
-157.45
11
189.9625
21
-157.45
0
LINE
8
0
10
189.9625
20
-157.45
11
189.9625
21
-157.15
0
LINE
8
0
10
189.9625
20
-157.15
11
194.9625
21
-157.15
0
LINE
8
0
10
194.9625
20
-157.15
11
194.9625
21
-171.15
0
LINE
8
0
10
194.9625
20
-171.15
11
189.9625
21
-171.15
0
LINE
8
0
10
189.9625
20
-171.15
11
189.9625
21
-170.85
0
LINE
8
0
10
189.9625
20
-170.85
11
185.9625
21
-170.85
0
LINE
8
0
10
185.9625
20
-170.85
11
185.9625
21
-171.15
0
LINE
8
0
10
185.9625
20
-171.15
11
180.9625
21
-171.15
0
LINE
8
0
10
200.0125
20
-171.15
11
200.0125
21
-157.15
0
LINE
8
0
10
200.0125
20
-157.15
11
205.0125
21
-157.15
0
LINE
8
0
10
205.0125
20
-157.15
11
205.0125
21
-157.45
0
LINE
8
0
10
205.0125
20
-157.45
11
209.0125
21
-157.45
0
LINE
8
0
10
209.0125
20
-157.45
11
209.0125
21
-157.15
0
LINE
8
0
10
209.0125
20
-157.15
11
214.0125
21
-157.15
0
LINE
8
0
10
214.0125
20
-157.15
11
214.0125
21
-171.15
0
LINE
8
0
10
214.0125
20
-171.15
11
209.0125
21
-171.15
0
LINE
8
0
10
209.0125
20
-171.15
11
209.0125
21
-170.85
0
LINE
8
0
10
209.0125
20
-170.85
11
205.0125
21
-170.85
0
LINE
8
0
10
205.0125
20
-170.85
11
205.0125
21
-171.15
0
LINE
8
0
10
205.0125
20
-171.15
11
200.0125
21
-171.15
0
LINE
8
0
10
219.0625
20
-171.15
11
219.0625
21
-157.15
0
LINE
8
0
10
219.0625
20
-157.15
11
224.0625
21
-157.15
0
LINE
8
0
10
224.0625
20
-157.15
11
224.0625
21
-157.45
0
LINE
8
0
10
224.0625
20
-157.45
11
228.0625
21
-157.45
0
LINE
8
0
10
228.0625
20
-157.45
11
228.0625
21
-157.15
0
LINE
8
0
10
228.0625
20
-157.15
11
233.0625
21
-157.15
0
LINE
8
0
10
233.0625
20
-157.15
11
233.0625
21
-171.15
0
LINE
8
0
10
233.0625
20
-171.15
11
228.0625
21
-171.15
0
LINE
8
0
10
228.0625
20
-171.15
11
228.0625
21
-170.85
0
LINE
8
0
10
228.0625
20
-170.85
11
224.0625
21
-170.85
0
LINE
8
0
10
224.0625
20
-170.85
11
224.0625
21
-171.15
0
LINE
8
0
10
224.0625
20
-171.15
11
219.0625
21
-171.15
0
LINE
8
0
10
100
20
-90.1875
11
100
21
-76.1875
0
LINE
8
0
10
100
20
-76.1875
11
105
21
-76.1875
0
LINE
8
0
10
105
20
-76.1875
11
105
21
-76.4875
0
LINE
8
0
10
105
20
-76.4875
11
109
21
-76.4875
0
LINE
8
0
10
109
20
-76.4875
11
109
21
-76.1875
0
LINE
8
0
10
109
20
-76.1875
11
114
21
-76.1875
0
LINE
8
0
10
114
20
-76.1875
11
114
21
-90.1875
0
LINE
8
0
10
114
20
-90.1875
11
109
21
-90.1875
0
LINE
8
0
10
109
20
-90.1875
11
109
21
-89.8875
0
LINE
8
0
10
109
20
-89.8875
11
105
21
-89.8875
0
LINE
8
0
10
105
20
-89.8875
11
105
21
-90.1875
0
LINE
8
0
10
105
20
-90.1875
11
100
21
-90.1875
0
LINE
8
0
10
123.8125
20
-90.1875
11
123.8125
21
-76.1875
0
LINE
8
0
10
123.8125
20
-76.1875
11
128.8125
21
-76.1875
0
LINE
8
0
10
128.8125
20
-76.1875
11
128.8125
21
-76.4875
0
LINE
8
0
10
128.8125
20
-76.4875
11
132.8125
21
-76.4875
0
LINE
8
0
10
132.8125
20
-76.4875
11
132.8125
21
-76.1875
0
LINE
8
0
10
132.8125
20
-76.1875
11
137.8125
21
-76.1875
0
LINE
8
0
10
137.8125
20
-76.1875
11
137.8125
21
-90.1875
0
LINE
8
0
10
137.8125
20
-90.1875
11
132.8125
21
-90.1875
0
LINE
8
0
10
132.8125
20
-90.1875
11
132.8125
21
-89.8875
0
LINE
8
0
10
132.8125
20
-89.8875
11
128.8125
21
-89.8875
0
LINE
8
0
10
128.8125
20
-89.8875
11
128.8125
21
-90.1875
0
LINE
8
0
10
128.8125
20
-90.1875
11
123.8125
21
-90.1875
0
LINE
8
0
10
142.8625
20
-90.1875
11
142.8625
21
-76.1875
0
LINE
8
0
10
142.8625
20
-76.1875
11
147.8625
21
-76.1875
0
LINE
8
0
10
147.8625
20
-76.1875
11
147.8625
21
-76.4875
0
LINE
8
0
10
147.8625
20
-76.4875
11
151.8625
21
-76.4875
0
LINE
8
0
10
151.8625
20
-76.4875
11
151.8625
21
-76.1875
0
LINE
8
0
10
151.8625
20
-76.1875
11
156.8625
21
-76.1875
0
LINE
8
0
10
156.8625
20
-76.1875
11
156.8625
21
-90.1875
0
LINE
8
0
10
156.8625
20
-90.1875
11
151.8625
21
-90.1875
0
LINE
8
0
10
151.8625
20
-90.1875
11
151.8625
21
-89.8875
0
LINE
8
0
10
151.8625
20
-89.8875
11
147.8625
21
-89.8875
0
LINE
8
0
10
147.8625
20
-89.8875
11
147.8625
21
-90.1875
0
LINE
8
0
10
147.8625
20
-90.1875
11
142.8625
21
-90.1875
0
LINE
8
0
10
161.9125
20
-90.1875
11
161.9125
21
-76.1875
0
LINE
8
0
10
161.9125
20
-76.1875
11
166.9125
21
-76.1875
0
LINE
8
0
10
166.9125
20
-76.1875
11
166.9125
21
-76.4875
0
LINE
8
0
10
166.9125
20
-76.4875
11
170.9125
21
-76.4875
0
LINE
8
0
10
170.9125
20
-76.4875
11
170.9125
21
-76.1875
0
LINE
8
0
10
170.9125
20
-76.1875
11
175.9125
21
-76.1875
0
LINE
8
0
10
175.9125
20
-76.1875
11
175.9125
21
-90.1875
0
LINE
8
0
10
175.9125
20
-90.1875
11
170.9125
21
-90.1875
0
LINE
8
0
10
170.9125
20
-90.1875
11
170.9125
21
-89.8875
0
LINE
8
0
10
170.9125
20
-89.8875
11
166.9125
21
-89.8875
0
LINE
8
0
10
166.9125
20
-89.8875
11
166.9125
21
-90.1875
0
LINE
8
0
10
166.9125
20
-90.1875
11
161.9125
21
-90.1875
0
LINE
8
0
10
180.9625
20
-90.1875
11
180.9625
21
-76.1875
0
LINE
8
0
10
180.9625
20
-76.1875
11
185.9625
21
-76.1875
0
LINE
8
0
10
185.9625
20
-76.1875
11
185.9625
21
-76.4875
0
LINE
8
0
10
185.9625
20
-76.4875
11
189.9625
21
-76.4875
0
LINE
8
0
10
189.9625
20
-76.4875
11
189.9625
21
-76.1875
0
LINE
8
0
10
189.9625
20
-76.1875
11
194.9625
21
-76.1875
0
LINE
8
0
10
194.9625
20
-76.1875
11
194.9625
21
-90.1875
0
LINE
8
0
10
194.9625
20
-90.1875
11
189.9625
21
-90.1875
0
LINE
8
0
10
189.9625
20
-90.1875
11
189.9625
21
-89.8875
0
LINE
8
0
10
189.9625
20
-89.8875
11
185.9625
21
-89.8875
0
LINE
8
0
10
185.9625
20
-89.8875
11
185.9625
21
-90.1875
0
LINE
8
0
10
185.9625
20
-90.1875
11
180.9625
21
-90.1875
0
LINE
8
0
10
204.775
20
-90.1875
11
204.775
21
-76.1875
0
LINE
8
0
10
204.775
20
-76.1875
11
209.775
21
-76.1875
0
LINE
8
0
10
209.775
20
-76.1875
11
209.775
21
-76.4875
0
LINE
8
0
10
209.775
20
-76.4875
11
213.775
21
-76.4875
0
LINE
8
0
10
213.775
20
-76.4875
11
213.775
21
-76.1875
0
LINE
8
0
10
213.775
20
-76.1875
11
218.775
21
-76.1875
0
LINE
8
0
10
218.775
20
-76.1875
11
218.775
21
-90.1875
0
LINE
8
0
10
218.775
20
-90.1875
11
213.775
21
-90.1875
0
LINE
8
0
10
213.775
20
-90.1875
11
213.775
21
-89.8875
0
LINE
8
0
10
213.775
20
-89.8875
11
209.775
21
-89.8875
0
LINE
8
0
10
209.775
20
-89.8875
11
209.775
21
-90.1875
0
LINE
8
0
10
209.775
20
-90.1875
11
204.775
21
-90.1875
0
LINE
8
0
10
102.38125
20
-190.2
11
102.38125
21
-176.2
0
LINE
8
0
10
102.38125
20
-176.2
11
107.38125
21
-176.2
0
LINE
8
0
10
107.38125
20
-176.2
11
107.38125
21
-176.5
0
LINE
8
0
10
107.38125
20
-176.5
11
111.38125
21
-176.5
0
LINE
8
0
10
111.38125
20
-176.5
11
111.38125
21
-176.2
0
LINE
8
0
10
111.38125
20
-176.2
11
116.38125
21
-176.2
0
LINE
8
0
10
116.38125
20
-176.2
11
116.38125
21
-190.2
0
LINE
8
0
10
116.38125
20
-190.2
11
111.38125
21
-190.2
0
LINE
8
0
10
111.38125
20
-190.2
11
111.38125
21
-189.9
0
LINE
8
0
10
111.38125
20
-189.9
11
107.38125
21
-189.9
0
LINE
8
0
10
107.38125
20
-189.9
11
107.38125
21
-190.2
0
LINE
8
0
10
107.38125
20
-190.2
11
102.38125
21
-190.2
0
LINE
8
0
10
126.19375
20
-190.2
11
126.19375
21
-176.2
0
LINE
8
0
10
126.19375
20
-176.2
11
131.19375
21
-176.2
0
LINE
8
0
10
131.19375
20
-176.2
11
131.19375
21
-176.5
0
LINE
8
0
10
131.19375
20
-176.5
11
135.19375
21
-176.5
0
LINE
8
0
10
135.19375
20
-176.5
11
135.19375
21
-176.2
0
LINE
8
0
10
135.19375
20
-176.2
11
140.19375
21
-176.2
0
LINE
8
0
10
140.19375
20
-176.2
11
140.19375
21
-190.2
0
LINE
8
0
10
140.19375
20
-190.2
11
135.19375
21
-190.2
0
LINE
8
0
10
135.19375
20
-190.2
11
135.19375
21
-189.9
0
LINE
8
0
10
135.19375
20
-189.9
11
131.19375
21
-189.9
0
LINE
8
0
10
131.19375
20
-189.9
11
131.19375
21
-190.2
0
LINE
8
0
10
131.19375
20
-190.2
11
126.19375
21
-190.2
0
LINE
8
0
10
159.53125
20
-190.2
11
159.53125
21
-176.2
0
LINE
8
0
10
159.53125
20
-176.2
11
164.53125
21
-176.2
0
LINE
8
0
10
164.53125
20
-176.2
11
164.53125
21
-176.5
0
LINE
8
0
10
164.53125
20
-176.5
11
168.53125
21
-176.5
0
LINE
8
0
10
168.53125
20
-176.5
11
168.53125
21
-176.2
0
LINE
8
0
10
168.53125
20
-176.2
11
173.53125
21
-176.2
0
LINE
8
0
10
173.53125
20
-176.2
11
173.53125
21
-190.2
0
LINE
8
0
10
173.53125
20
-190.2
11
168.53125
21
-190.2
0
LINE
8
0
10
168.53125
20
-190.2
11
168.53125
21
-189.9
0
LINE
8
0
10
168.53125
20
-189.9
11
164.53125
21
-189.9
0
LINE
8
0
10
164.53125
20
-189.9
11
164.53125
21
-190.2
0
LINE
8
0
10
164.53125
20
-190.2
11
159.53125
21
-190.2
0
LINE
8
0
10
207.15625
20
-190.2
11
207.15625
21
-176.2
0
LINE
8
0
10
207.15625
20
-176.2
11
212.15625
21
-176.2
0
LINE
8
0
10
212.15625
20
-176.2
11
212.15625
21
-176.5
0
LINE
8
0
10
212.15625
20
-176.5
11
216.15625
21
-176.5
0
LINE
8
0
10
216.15625
20
-176.5
11
216.15625
21
-176.2
0
LINE
8
0
10
216.15625
20
-176.2
11
221.15625
21
-176.2
0
LINE
8
0
10
221.15625
20
-176.2
11
221.15625
21
-190.2
0
LINE
8
0
10
221.15625
20
-190.2
11
216.15625
21
-190.2
0
LINE
8
0
10
216.15625
20
-190.2
11
216.15625
21
-189.9
0
LINE
8
0
10
216.15625
20
-189.9
11
212.15625
21
-189.9
0
LINE
8
0
10
212.15625
20
-189.9
11
212.15625
21
-190.2
0
LINE
8
0
10
212.15625
20
-190.2
11
207.15625
21
-190.2
0
ENDSEC
0
EOF