0
SECTION
2
HEADER
9
$INSUNITS
70
4
0
ENDSEC
0
SECTION
2
TABLES
0
TABLE
2
LTYPE
0
LTYPE
72
65
70
64
2
CONTINUOUS
3
______
73
0
40
0
0
ENDTAB
0
TABLE
2
LAYER
0
ENDTAB
0
ENDSEC
0
SECTION
2
ENTITIES
0
LINE
8
0
10
107
20
-107
11
107
21
-69.1875
0
LINE
8
0
10
107
20
-69.1875
11
93
21
-69.1875
0
LINE
8
0
10
93
20
-107
11
93
21
-69.1875
0
LINE
8
0
10
116.8125
20
-83.1875
11
130.8125
21
-83.1875
0
LINE
8
0
10
130.8125
20
-83.1875
11
130.8125
21
-69.1875
0
LINE
8
0
10
130.8125
20
-69.1875
11
116.8125
21
-69.1875
0
LINE
8
0
10
116.8125
20
-69.1875
11
116.8125
21
-83.1875
0
LINE
8
0
10
135.8625
20
-83.1875
11
149.8625
21
-83.1875
0
LINE
8
0
10
149.8625
20
-83.1875
11
149.8625
21
-69.1875
0
LINE
8
0
10
149.8625
20
-69.1875
11
135.8625
21
-69.1875
0
LINE
8
0
10
135.8625
20
-69.1875
11
135.8625
21
-83.1875
0
LINE
8
0
10
164
20
-83.1875
11
168.9125
21
-83.1875
0
LINE
8
0
10
168.9125
20
-83.1875
11
168.9125
21
-69.1875
0
LINE
8
0
10
168.9125
20
-69.1875
11
154.9125
21
-69.1875
0
LINE
8
0
10
154.9125
20
-69.1875
11
154.9125
21
-81.1
0
LINE
8
0
10
173.9625
20
-83.1875
11
187.9625
21
-83.1875
0
LINE
8
0
10
187.9625
20
-83.1875
11
187.9625
21
-69.1875
0
LINE
8
0
10
187.9625
20
-69.1875
11
173.9625
21
-69.1875
0
LINE
8
0
10
173.9625
20
-69.1875
11
173.9625
21
-83.1875
0
LINE
8
0
10
197.775
20
-83.1875
11
207
21
-83.1875
0
LINE
8
0
10
211.775
20
-81.1
11
211.775
21
-69.1875
0
LINE
8
0
10
211.775
20
-69.1875
11
197.775
21
-69.1875
0
LINE
8
0
10
197.775
20
-69.1875
11
197.775
21
-83.1875
0
LINE
8
0
10
93
20
-107
11
107
21
-107
0
LINE
8
0
10
112.05
20
-93
11
112.05
21
-107
0
LINE
8
0
10
112.05
20
-107
11
126.05
21
-107
0
LINE
8
0
10
126.05
20
-107
11
126.05
21
-93
0
LINE
8
0
10
126.05
20
-93
11
112.05
21
-93
0
LINE
8
0
10
131.1
20
-93
11
131.1
21
-107
0
LINE
8
0
10
131.1
20
-107
11
145.1
21
-107
0
LINE
8
0
10
145.1
20
-107
11
145.1
21
-93
0
LINE
8
0
10
145.1
20
-93
11
131.1
21
-93
0
LINE
8
0
10
150.15
20
-95.1
11
150.15
21
-107
0
LINE
8
0
10
150.15
20
-107
11
164.15
21
-107
0
LINE
8
0
10
164.15
20
-107
11
164.15
21
-93
0
LINE
8
0
10
164.15
20
-93
11
164
21
-93
0
LINE
8
0
10
169.2
20
-93
11
169.2
21
-107
0
LINE
8
0
10
169.2
20
-107
11
183.2
21
-107
0
LINE
8
0
10
183.2
20
-107
11
183.2
21
-93
0
LINE
8
0
10
183.2
20
-93
11
169.2
21
-93
0
LINE
8
0
10
188.25
20
-93
11
188.25
21
-107
0
LINE
8
0
10
188.25
20
-107
11
202.25
21
-107
0
LINE
8
0
10
202.25
20
-107
11
202.25
21
-93
0
LINE
8
0
10
202.25
20
-93
11
188.25
21
-93
0
LINE
8
0
10
207.3
20
-95.1
11
207.3
21
-107
0
LINE
8
0
10
207.3
20
-107
11
221.3
21
-107
0
LINE
8
0
10
221.3
20
-107
11
221.3
21
-93
0
LINE
8
0
10
221.3
20
-93
11
221
21
-93
0
LINE
8
0
10
97.7625
20
-112.05
11
97.7625
21
-126.05
0
LINE
8
0
10
97.7625
20
-126.05
11
111.7625
21
-126.05
0
LINE
8
0
10
111.7625
20
-126.05
11
111.7625
21
-112.05
0
LINE
8
0
10
111.7625
20
-112.05
11
97.7625
21
-112.05
0
LINE
8
0
10
121.575
20
-112.05
11
121.575
21
-126.05
0
LINE
8
0
10
121.575
20
-126.05
11
135.575
21
-126.05
0
LINE
8
0
10
135.575
20
-126.05
11
135.575
21
-112.05
0
LINE
8
0
10
135.575
20
-112.05
11
121.575
21
-112.05
0
LINE
8
0
10
140.625
20
-112.05
11
140.625
21
-126.05
0
LINE
8
0
10
140.625
20
-126.05
11
154.625
21
-126.05
0
LINE
8
0
10
154.625
20
-126.05
11
154.625
21
-112.05
0
LINE
8
0
10
154.625
20
-112.05
11
140.625
21
-112.05
0
LINE
8
0
10
159.675
20
-112.05
11
159.675
21
-126.05
0
LINE
8
0
10
159.675
20
-126.05
11
173.675
21
-126.05
0
LINE
8
0
10
173.675
20
-126.05
11
173.675
21
-112.05
0
LINE
8
0
10
173.675
20
-112.05
11
159.675
21
-112.05
0
LINE
8
0
10
178.725
20
-112.05
11
178.725
21
-126.05
0
LINE
8
0
10
178.725
20
-126.05
11
192.725
21
-126.05
0
LINE
8
0
10
192.725
20
-126.05
11
192.725
21
-112.05
0
LINE
8
0
10
192.725
20
-112.05
11
178.725
21
-112.05
0
LINE
8
0
10
197.775
20
-112.05
11
197.775
21
-126.05
0
LINE
8
0
10
197.775
20
-126.05
11
211.775
21
-126.05
0
LINE
8
0
10
211.775
20
-126.05
11
211.775
21
-112.05
0
LINE
8
0
10
211.775
20
-112.05
11
197.775
21
-112.05
0
LINE
8
0
10
216.825
20
-112.05
11
216.825
21
-126.05
0
LINE
8
0
10
216.825
20
-126.05
11
230.825
21
-126.05
0
LINE
8
0
10
230.825
20
-126.05
11
230.825
21
-112.05
0
LINE
8
0
10
230.825
20
-112.05
11
216.825
21
-112.05
0
LINE
8
0
10
126.3375
20
-131.1
11
126.3375
21
-145.1
0
LINE
8
0
10
126.3375
20
-145.1
11
140.3375
21
-145.1
0
LINE
8
0
10
140.3375
20
-145.1
11
140.3375
21
-131.1
0
LINE
8
0
10
140.3375
20
-131.1
11
126.3375
21
-131.1
0
LINE
8
0
10
145.3875
20
-131.1
11
145.3875
21
-145.1
0
LINE
8
0
10
145.3875
20
-145.1
11
159.3875
21
-145.1
0
LINE
8
0
10
159.3875
20
-145.1
11
159.3875
21
-131.1
0
LINE
8
0
10
159.3875
20
-131.1
11
145.3875
21
-131.1
0
LINE
8
0
10
164.4375
20
-131.1
11
164.4375
21
-145.1
0
LINE
8
0
10
164.4375
20
-145.1
11
178.4375
21
-145.1
0
LINE
8
0
10
178.4375
20
-145.1
11
178.4375
21
-131.1
0
LINE
8
0
10
178.4375
20
-131.1
11
164.4375
21
-131.1
0
LINE
8
0
10
183.4875
20
-131.1
11
183.4875
21
-145.1
0
LINE
8
0
10
183.4875
20
-145.1
11
197.4875
21
-145.1
0
LINE
8
0
10
197.4875
20
-145.1
11
197.4875
21
-131.1
0
LINE
8
0
10
197.4875
20
-131.1
11
183.4875
21
-131.1
0
LINE
8
0
10
202.5375
20
-131.1
11
202.5375
21
-145.1
0
LINE
8
0
10
202.5375
20
-145.1
11
216.5375
21
-145.1
0
LINE
8
0
10
216.5375
20
-145.1
11
216.5375
21
-131.1
0
LINE
8
0
10
216.5375
20
-131.1
11
202.5375
21
-131.1
0
LINE
8
0
10
221.5875
20
-131.1
11
221.5875
21
-145.1
0
LINE
8
0
10
221.5875
20
-145.1
11
235.5875
21
-145.1
0
LINE
8
0
10
235.5875
20
-145.1
11
235.5875
21
-131.1
0
LINE
8
0
10
235.5875
20
-131.1
11
221.5875
21
-131.1
0
LINE
8
0
10
95.38125
20
-150.15
11
95.38125
21
-164.15
0
LINE
8
0
10
95.38125
20
-164.15
11
109.38125
21
-164.15
0
LINE
8
0
10
109.38125
20
-164.15
11
109.38125
21
-150.15
0
LINE
8
0
10
109.38125
20
-150.15
11
95.38125
21
-150.15
0
LINE
8
0
10
116.8125
20
-150.15
11
116.8125
21
-164.15
0
LINE
8
0
10
116.8125
20
-164.15
11
130.8125
21
-164.15
0
LINE
8
0
10
130.8125
20
-164.15
11
130.8125
21
-150.15
0
LINE
8
0
10
130.8125
20
-150.15
11
116.8125
21
-150.15
0
LINE
8
0
10
135.8625
20
-150.15
11
135.8625
21
-163
0
LINE
8
0
10
149.5
20
-164.15
11
149.8625
21
-164.15
0
LINE
8
0
10
149.8625
20
-164.15
11
149.8625
21
-150.15
0
LINE
8
0
10
149.8625
20
-150.15
11
135.8625
21
-150.15
0
LINE
8
0
10
154.9125
20
-150.15
11
154.9125
21
-164.15
0
LINE
8
0
10
154.9125
20
-164.15
11
168.9125
21
-164.15
0
LINE
8
0
10
168.9125
20
-164.15
11
168.9125
21
-150.15
0
LINE
8
0
10
168.9125
20
-150.15
11
154.9125
21
-150.15
0
LINE
8
0
10
173.9625
20
-150.15
11
173.9625
21
-164.15
0
LINE
8
0
10
173.9625
20
-164.15
11
175.5
21
-164.15
0
LINE
8
0
10
187.9625
20
-163
11
187.9625
21
-150.15
0
LINE
8
0
10
187.9625
20
-150.15
11
173.9625
21
-150.15
0
LINE
8
0
10
193.0125
20
-150.15
11
193.0125
21
-164.15
0
LINE
8
0
10
193.0125
20
-164.15
11
207.0125
21
-164.15
0
LINE
8
0
10
207.0125
20
-164.15
11
207.0125
21
-150.15
0
LINE
8
0
10
207.0125
20
-150.15
11
193.0125
21
-150.15
0
LINE
8
0
10
212.0625
20
-150.15
11
212.0625
21
-164.15
0
LINE
8
0
10
212.0625
20
-164.15
11
218
21
-164.15
0
LINE
8
0
10
226.0625
20
-163
11
226.0625
21
-150.15
0
LINE
8
0
10
226.0625
20
-150.15
11
212.0625
21
-150.15
0
LINE
8
0
10
95.38125
20
-183.2
11
109.38125
21
-183.2
0
LINE
8
0
10
109.38125
20
-183.2
11
109.38125
21
-169.2
0
LINE
8
0
10
109.38125
20
-169.2
11
95.38125
21
-169.2
0
LINE
8
0
10
95.38125
20
-169.2
11
95.38125
21
-183.2
0
LINE
8
0
10
119.19375
20
-183.2
11
133.19375
21
-183.2
0
LINE
8
0
10
133.19375
20
-183.2
11
133.19375
21
-169.2
0
LINE
8
0
10
133.19375
20
-169.2
11
119.19375
21
-169.2
0
LINE
8
0
10
119.19375
20
-169.2
11
119.19375
21
-183.2
0
LINE
8
0
10
152.53125
20
-183.2
11
166.53125
21
-183.2
0
LINE
8
0
10
166.53125
20
-183.2
11
166.53125
21
-169.2
0
LINE
8
0
10
166.53125
20
-169.2
11
152.53125
21
-169.2
0
LINE
8
0
10
152.53125
20
-169.2
11
152.53125
21
-183.2
0
LINE
8
0
10
200.15625
20
-183.2
11
214.15625
21
-183.2
0
LINE
8
0
10
214.15625
20
-183.2
11
214.15625
21
-169.2
0
LINE
8
0
10
214.15625
20
-169.2
11
200.15625
21
-169.2
0
LINE
8
0
10
200.15625
20
-169.2
11
200.15625
21
-183.2
0
LINE
8
0
10
105.5
20
-144.6
11
119.5
21
-144.6
0
LINE
8
0
10
119.5
20
-144.6
11
119.5
21
-130.6
0
LINE
8
0
10
119.5
20
-130.6
11
105.5
21
-130.6
0
LINE
8
0
10
105.5
20
-130.6
11
105.5
21
-144.6
0
LINE
8
0
10
135.5
20
-177
11
149.5
21
-177
0
LINE
8
0
10
149.5
20
-177
11
149.5
21
-164.15
0
LINE
8
0
10
135.8625
20
-163
11
135.5
21
-163
0
LINE
8
0
10
135.5
20
-163
11
135.5
21
-177
0
LINE
8
0
10
175.5
20
-177
11
189.5
21
-177
0
LINE
8
0
10
189.5
20
-177
11
189.5
21
-163
0
LINE
8
0
10
189.5
20
-163
11
187.9625
21
-163
0
LINE
8
0
10
175.5
20
-164.15
11
175.5
21
-177
0
LINE
8
0
10
218
20
-177
11
232
21
-177
0
LINE
8
0
10
232
20
-177
11
232
21
-163
0
LINE
8
0
10
232
20
-163
11
226.0625
21
-163
0
LINE
8
0
10
218
20
-164.15
11
218
21
-177
0
LINE
8
0
10
150
20
-95.1
11
150.15
21
-95.1
0
LINE
8
0
10
164
20
-93
11
164
21
-83.1875
0
LINE
8
0
10
154.9125
20
-81.1
11
150
21
-81.1
0
LINE
8
0
10
150
20
-81.1
11
150
21
-95.1
0
LINE
8
0
10
207
20
-95.1
11
207.3
21
-95.1
0
LINE
8
0
10
221
20
-93
11
221
21
-81.1
0
LINE
8
0
10
221
20
-81.1
11
211.775
21
-81.1
0
LINE
8
0
10
207
20
-83.1875
11
207
21
-95.1
0
LINE
8
0
10
91
20
-67
11
105
21
-67
0
LINE
8
0
10
105
20
-67
11
105
21
-53
0
LINE
8
0
10
105
20
-53
11
91
21
-53
0
LINE
8
0
10
91
20
-53
11
91
21
-67
0
LINE
8
0
10
158
20
-54
11
172
21
-54
0
LINE
8
0
10
172
20
-54
11
172
21
-40
0
LINE
8
0
10
172
20
-40
11
158
21
-40
0
LINE
8
0
10
158
20
-40
11
158
21
-54
0
LINE
8
0
10
203
20
-54
11
217
21
-54
0
LINE
8
0
10
217
20
-54
11
217
21
-40
0
LINE
8
0
10
217
20
-40
11
203
21
-40
0
LINE
8
0
10
203
20
-40
11
203
21
-54
0
ENDSEC
0
EOF