0
SECTION
2
HEADER
9
$INSUNITS
70
4
0
ENDSEC
0
SECTION
2
TABLES
0
TABLE
2
LTYPE
0
LTYPE
72
65
70
64
2
CONTINUOUS
3
______
73
0
40
0
0
ENDTAB
0
TABLE
2
LAYER
0
ENDTAB
0
ENDSEC
0
SECTION
2
ENTITIES
0
LINE
8
0
10
129.139382
20
-211.0508165
11
117.8981769
21
-173.0414919
0
LINE
8
0
10
117.775
20
-172.1906754
11
117.775
21
-151.299638
0
LINE
8
0
10
117.8014532
20
-150.9021218
11
122.4703254
21
-115.9774872
0
LINE
8
0
10
122.7660559
20
-115.0224873
11
135.992886
21
-88.8349839
0
LINE
8
0
10
138.6707022
20
-87.1875
11
170.8726569
21
-87.1875
0
LINE
8
0
10
172.7467419
20
-86.5301064
11
186.1032581
21
-75.8448936
0
LINE
8
0
10
187.9773431
20
-75.1875
11
220.8726569
21
-75.1875
0
LINE
8
0
10
222.7467419
20
-75.8448936
11
236.1032581
21
-86.5301064
0
LINE
8
0
10
237.9773431
20
-87.1875
11
357.85
21
-87.1875
0
LINE
8
0
10
360.85
20
-90.1875
11
360.85
21
-210.2
0
LINE
8
0
10
357.85
20
-213.2
11
132.0162051
21
-213.2
0
ARC
8
0
10
120.775
20
-172.1906754
40
3
50
180
51
196.4755113
0
ARC
8
0
10
120.775
20
-151.299638
40
3
50
172.3856062
51
180
0
ARC
8
0
10
125.4438722
20
-116.3750034
40
3
50
153.2024922
51
172.3856062
0
ARC
8
0
10
138.6707022
20
-90.1875
40
3
50
90
51
153.2024922
0
ARC
8
0
10
170.8726569
20
-84.1875
40
3
50
270
51
308.6598065
0
ARC
8
0
10
187.9773431
20
-78.1875
40
3
50
90
51
128.6598065
0
ARC
8
0
10
220.8726569
20
-78.1875
40
3
50
51.3401935
51
90
0
ARC
8
0
10
237.9773431
20
-84.1875
40
3
50
231.3401935
51
270
0
ARC
8
0
10
357.85
20
-90.1875
40
3
50
0
51
90
0
ARC
8
0
10
357.85
20
-210.2
40
3
50
270
51
0
0
ARC
8
0
10
132.0162051
20
-210.2
40
3
50
196.4755113
51
270
0
ENDSEC
0
EOF