0
SECTION
2
HEADER
9
$INSUNITS
70
4
0
ENDSEC
0
SECTION
2
TABLES
0
TABLE
2
LTYPE
0
LTYPE
72
65
70
64
2
CONTINUOUS
3
______
73
0
40
0
0
ENDTAB
0
TABLE
2
LAYER
0
ENDTAB
0
ENDSEC
0
SECTION
2
ENTITIES
0
LINE
8
0
10
121.825
20
-110.1875
11
125.5375
21
-110.1875
0
LINE
8
0
10
143.5375
20
-110.1875
11
144.5875
21
-110.1875
0
LINE
8
0
10
162.5875
20
-110.1875
11
163.6375
21
-110.1875
0
LINE
8
0
10
121.825
20
-92.1875
11
375.85
21
-92.1875
0
LINE
8
0
10
121.825
20
-92.1875
11
121.825
21
-110.1875
0
LINE
8
0
10
181.6375
20
-110.1875
11
182.6875
21
-110.1875
0
LINE
8
0
10
200.6875
20
-110.1875
11
201.7375
21
-110.1875
0
LINE
8
0
10
219.7375
20
-110.1875
11
220.7875
21
-110.1875
0
LINE
8
0
10
238.7875
20
-110.1875
11
239.8375
21
-110.1875
0
LINE
8
0
10
257.8375
20
-110.1875
11
268.4125
21
-110.1875
0
LINE
8
0
10
286.4125
20
-110.1875
11
375.85
21
-110.1875
0
LINE
8
0
10
375.85
20
-110.1875
11
375.85
21
-92.1875
0
LINE
8
0
10
125.5375
20
-110.1875
11
125.5375
21
-136.1
0
LINE
8
0
10
143.5375
20
-117.05
11
143.5375
21
-110.1875
0
LINE
8
0
10
144.5875
20
-110.1875
11
144.5875
21
-117.05
0
LINE
8
0
10
162.5875
20
-117.05
11
162.5875
21
-110.1875
0
LINE
8
0
10
163.6375
20
-110.1875
11
163.6375
21
-117.05
0
LINE
8
0
10
181.6375
20
-117.05
11
181.6375
21
-110.1875
0
LINE
8
0
10
182.6875
20
-110.1875
11
182.6875
21
-117.05
0
LINE
8
0
10
200.6875
20
-117.05
11
200.6875
21
-110.1875
0
LINE
8
0
10
201.7375
20
-110.1875
11
201.7375
21
-117.05
0
LINE
8
0
10
219.7375
20
-117.05
11
219.7375
21
-110.1875
0
LINE
8
0
10
220.7875
20
-110.1875
11
220.7875
21
-117.05
0
LINE
8
0
10
238.7875
20
-117.05
11
238.7875
21
-110.1875
0
LINE
8
0
10
239.8375
20
-110.1875
11
239.8375
21
-117.05
0
LINE
8
0
10
257.8375
20
-117.05
11
257.8375
21
-110.1875
0
LINE
8
0
10
268.4125
20
-110.1875
11
268.4125
21
-136.1
0
LINE
8
0
10
286.4125
20
-135.05
11
286.4125
21
-134
0
LINE
8
0
10
286.4125
20
-116
11
286.4125
21
-110.1875
0
LINE
8
0
10
144.5875
20
-117.05
11
143.5375
21
-117.05
0
LINE
8
0
10
163.6375
20
-117.05
11
162.5875
21
-117.05
0
LINE
8
0
10
182.6875
20
-117.05
11
181.6375
21
-117.05
0
LINE
8
0
10
201.7375
20
-117.05
11
200.6875
21
-117.05
0
LINE
8
0
10
220.7875
20
-117.05
11
219.7375
21
-117.05
0
LINE
8
0
10
239.8375
20
-117.05
11
238.7875
21
-117.05
0
LINE
8
0
10
253.075
20
-171.05
11
254.125
21
-171.05
0
LINE
8
0
10
267.3625
20
-136.1
11
267.3625
21
-117.05
0
LINE
8
0
10
267.3625
20
-117.05
11
257.8375
21
-117.05
0
LINE
8
0
10
120.775
20
-136.1
11
120.775
21
-190.1
0
LINE
8
0
10
120.775
20
-190.1
11
130.3
21
-190.1
0
LINE
8
0
10
125.5375
20
-136.1
11
120.775
21
-136.1
0
LINE
8
0
10
148.3
20
-190.1
11
149.35
21
-190.1
0
LINE
8
0
10
167.35
20
-190.1
11
168.4
21
-190.1
0
LINE
8
0
10
186.4
20
-190.1
11
187.45
21
-190.1
0
LINE
8
0
10
205.45
20
-190.1
11
206.5
21
-190.1
0
LINE
8
0
10
224.5
20
-190.1
11
225.55
21
-190.1
0
LINE
8
0
10
243.55
20
-190.1
11
253.075
21
-190.1
0
LINE
8
0
10
253.075
20
-190.1
11
253.075
21
-171.05
0
LINE
8
0
10
254.125
20
-171.05
11
254.125
21
-190.1
0
LINE
8
0
10
254.125
20
-190.1
11
261.364
21
-190.1
0
LINE
8
0
10
268.4125
20
-136.1
11
267.3625
21
-136.1
0
LINE
8
0
10
130.3
20
-190.1
11
130.3
21
-209.15
0
LINE
8
0
10
130.3
20
-209.15
11
131.35
21
-209.15
0
LINE
8
0
10
148.3
20
-192.2
11
148.3
21
-190.1
0
LINE
8
0
10
149.35
20
-190.1
11
149.35
21
-192.2
0
LINE
8
0
10
167.35
20
-192.2
11
167.35
21
-190.1
0
LINE
8
0
10
168.4
20
-190.1
11
168.4
21
-192.2
0
LINE
8
0
10
185.35
20
-209.15
11
186.11875
21
-209.15
0
LINE
8
0
10
186.4
20
-192.2
11
186.4
21
-190.1
0
LINE
8
0
10
187.45
20
-190.1
11
187.45
21
-192.2
0
LINE
8
0
10
205.45
20
-192.2
11
205.45
21
-190.1
0
LINE
8
0
10
206.5
20
-190.1
11
206.5
21
-192.2
0
LINE
8
0
10
224.5
20
-192.2
11
224.5
21
-190.1
0
LINE
8
0
10
225.55
20
-190.1
11
225.55
21
-192.2
0
LINE
8
0
10
243.55
20
-192.2
11
243.55
21
-190.1
0
LINE
8
0
10
261.364
20
-190.1
11
261.364
21
-192.2
0
LINE
8
0
10
279.364
20
-192.2
11
279.364
21
-162.575
0
LINE
8
0
10
131.35
20
-210.2
11
185.35
21
-210.2
0
LINE
8
0
10
185.35
20
-210.2
11
185.35
21
-209.15
0
LINE
8
0
10
149.35
20
-192.2
11
148.3
21
-192.2
0
LINE
8
0
10
168.4
20
-192.2
11
167.35
21
-192.2
0
LINE
8
0
10
131.35
20
-209.15
11
131.35
21
-210.2
0
LINE
8
0
10
186.11875
20
-210.2
11
375.85
21
-210.2
0
LINE
8
0
10
187.45
20
-192.2
11
186.4
21
-192.2
0
LINE
8
0
10
206.5
20
-192.2
11
205.45
21
-192.2
0
LINE
8
0
10
225.55
20
-192.2
11
224.5
21
-192.2
0
LINE
8
0
10
186.11875
20
-209.15
11
186.11875
21
-210.2
0
LINE
8
0
10
243.55
20
-192.2
11
261.364
21
-192.2
0
LINE
8
0
10
279.364
20
-192.2
11
375.85
21
-192.2
0
LINE
8
0
10
279.364
20
-162.575
11
312.985
21
-162.575
0
LINE
8
0
10
312.985
20
-162.575
11
312.985
21
-153.05
0
LINE
8
0
10
312.985
20
-153.05
11
375.85
21
-153.05
0
LINE
8
0
10
286.4125
20
-135.05
11
375.85
21
-135.05
0
LINE
8
0
10
286.4125
20
-134
11
375.85
21
-134
0
LINE
8
0
10
286.4125
20
-116
11
375.85
21
-116
0
LINE
8
0
10
302.8
20
-191.15
11
356.8
21
-191.15
0
LINE
8
0
10
356.8
20
-191.15
11
356.8
21
-173.15
0
LINE
8
0
10
356.8
20
-173.15
11
302.8
21
-173.15
0
LINE
8
0
10
302.8
20
-173.15
11
302.8
21
-191.15
0
LINE
8
0
10
375.85
20
-210.2
11
375.85
21
-192.2
0
LINE
8
0
10
375.85
20
-153.05
11
375.85
21
-135.05
0
LINE
8
0
10
375.85
20
-134
11
375.85
21
-116
0
ENDSEC
0
EOF